<svg width="800" height="400" xmlns="http://www.w3.org/2000/svg">
  <!-- Background -->
  <rect width="800" height="400" fill="white"/>

  <!-- Title -->
  <text x="400" y="30" text-anchor="middle" font-size="18" font-weight="bold" fill="#1f2937">
    Array Push - Performance Trend
  </text>

  <!-- Grid lines -->
  <line x1="60" y1="60" x2="740" y2="60" stroke="#e5e7eb" stroke-width="1"/>
  <text x="50" y="65" text-anchor="end" font-size="12" fill="#6b7280">
    536K
  </text>
  <line x1="60" y1="116" x2="740" y2="116" stroke="#e5e7eb" stroke-width="1"/>
  <text x="50" y="121" text-anchor="end" font-size="12" fill="#6b7280">
    429K
  </text>
  <line x1="60" y1="172" x2="740" y2="172" stroke="#e5e7eb" stroke-width="1"/>
  <text x="50" y="177" text-anchor="end" font-size="12" fill="#6b7280">
    322K
  </text>
  <line x1="60" y1="228" x2="740" y2="228" stroke="#e5e7eb" stroke-width="1"/>
  <text x="50" y="233" text-anchor="end" font-size="12" fill="#6b7280">
    214K
  </text>
  <line x1="60" y1="284" x2="740" y2="284" stroke="#e5e7eb" stroke-width="1"/>
  <text x="50" y="289" text-anchor="end" font-size="12" fill="#6b7280">
    107K
  </text>
  <line x1="60" y1="340" x2="740" y2="340" stroke="#e5e7eb" stroke-width="1"/>
  <text x="50" y="345" text-anchor="end" font-size="12" fill="#6b7280">
    0
  </text>
  <text x="60" y="365" text-anchor="middle" font-size="10" fill="#6b7280" transform="rotate(-45, 60, 365)">
    11-06
  </text>
  <text x="400" y="365" text-anchor="middle" font-size="10" fill="#6b7280" transform="rotate(-45, 400, 365)">
    11-07
  </text>
  <text x="740" y="365" text-anchor="middle" font-size="10" fill="#6b7280" transform="rotate(-45, 740, 365)">
    11-09
  </text>
  <polyline points="60,336.1089637313081 400,336.3662176850262 740,337.5868038398724" fill="none" stroke="#3b82f6" stroke-width="2"/>
  <circle cx="60" cy="336.1089637313081" r="4" fill="#3b82f6"/>
  <circle cx="400" cy="336.3662176850262" r="4" fill="#3b82f6"/>
  <circle cx="740" cy="337.5868038398724" r="4" fill="#3b82f6"/>
  <polyline points="60,330.6222941370391 400,331.38992859466856 740,333.4938324368499" fill="none" stroke="#ef4444" stroke-width="2"/>
  <circle cx="60" cy="330.6222941370391" r="4" fill="#ef4444"/>
  <circle cx="400" cy="331.38992859466856" r="4" fill="#ef4444"/>
  <circle cx="740" cy="333.4938324368499" r="4" fill="#ef4444"/>
  <polyline points="60,330.79179878984337 400,331.39148186005787 740,335.138177989775" fill="none" stroke="#10b981" stroke-width="2"/>
  <circle cx="60" cy="330.79179878984337" r="4" fill="#10b981"/>
  <circle cx="400" cy="331.39148186005787" r="4" fill="#10b981"/>
  <circle cx="740" cy="335.138177989775" r="4" fill="#10b981"/>
  <polyline points="60,85.45454545454547 400,87.17065081772418 740,263.27686157309563" fill="none" stroke="#f59e0b" stroke-width="2"/>
  <circle cx="60" cy="85.45454545454547" r="4" fill="#f59e0b"/>
  <circle cx="400" cy="87.17065081772418" r="4" fill="#f59e0b"/>
  <circle cx="740" cy="263.27686157309563" r="4" fill="#f59e0b"/>
  <polyline points="60,162.19466913507438 400,160.68128548975602 740,258.10907190855465" fill="none" stroke="#8b5cf6" stroke-width="2"/>
  <circle cx="60" cy="162.19466913507438" r="4" fill="#8b5cf6"/>
  <circle cx="400" cy="160.68128548975602" r="4" fill="#8b5cf6"/>
  <circle cx="740" cy="258.10907190855465" r="4" fill="#8b5cf6"/>
  <polyline points="60,332.55435869357126 400,333.1930355333688 740,335.63098304904224" fill="none" stroke="#ec4899" stroke-width="2"/>
  <circle cx="60" cy="332.55435869357126" r="4" fill="#ec4899"/>
  <circle cx="400" cy="333.1930355333688" r="4" fill="#ec4899"/>
  <circle cx="740" cy="335.63098304904224" r="4" fill="#ec4899"/>
  <polyline points="60,332.46599362349457 400,332.78247477973434 740,335.7477179036329" fill="none" stroke="#06b6d4" stroke-width="2"/>
  <circle cx="60" cy="332.46599362349457" r="4" fill="#06b6d4"/>
  <circle cx="400" cy="332.78247477973434" r="4" fill="#06b6d4"/>
  <circle cx="740" cy="335.7477179036329" r="4" fill="#06b6d4"/>
  <polyline points="60,332.688291578727 400,332.80273690755826 740,335.65946520158684" fill="none" stroke="#84cc16" stroke-width="2"/>
  <circle cx="60" cy="332.688291578727" r="4" fill="#84cc16"/>
  <circle cx="400" cy="332.80273690755826" r="4" fill="#84cc16"/>
  <circle cx="740" cy="335.65946520158684" r="4" fill="#84cc16"/>
  <rect x="650" y="42" width="12" height="12" fill="#3b82f6"/>
  <text x="668" y="53" font-size="12" fill="#374151">Redux Toolkit</text>
  <rect x="650" y="62" width="12" height="12" fill="#ef4444"/>
  <text x="668" y="73" font-size="12" fill="#374151">Zustand</text>
  <rect x="650" y="82" width="12" height="12" fill="#10b981"/>
  <text x="668" y="93" font-size="12" fill="#374151">Jotai</text>
  <rect x="650" y="102" width="12" height="12" fill="#f59e0b"/>
  <text x="668" y="113" font-size="12" fill="#374151">MobX</text>
  <rect x="650" y="122" width="12" height="12" fill="#8b5cf6"/>
  <text x="668" y="133" font-size="12" fill="#374151">Valtio</text>
  <rect x="650" y="142" width="12" height="12" fill="#ec4899"/>
  <text x="668" y="153" font-size="12" fill="#374151">Preact Signals</text>
  <rect x="650" y="162" width="12" height="12" fill="#06b6d4"/>
  <text x="668" y="173" font-size="12" fill="#374151">Solid Signals</text>
  <rect x="650" y="182" width="12" height="12" fill="#84cc16"/>
  <text x="668" y="193" font-size="12" fill="#374151">Zen</text>
</svg>