<svg width="800" height="400" xmlns="http://www.w3.org/2000/svg">
  <!-- Background -->
  <rect width="800" height="400" fill="white"/>

  <!-- Title -->
  <text x="400" y="30" text-anchor="middle" font-size="18" font-weight="bold" fill="#1f2937">
    Loading State Toggle - Performance Trend
  </text>

  <!-- Grid lines -->
  <line x1="60" y1="60" x2="740" y2="60" stroke="#e5e7eb" stroke-width="1"/>
  <text x="50" y="65" text-anchor="end" font-size="12" fill="#6b7280">
    33.9M
  </text>
  <line x1="60" y1="116" x2="740" y2="116" stroke="#e5e7eb" stroke-width="1"/>
  <text x="50" y="121" text-anchor="end" font-size="12" fill="#6b7280">
    27.1M
  </text>
  <line x1="60" y1="172" x2="740" y2="172" stroke="#e5e7eb" stroke-width="1"/>
  <text x="50" y="177" text-anchor="end" font-size="12" fill="#6b7280">
    20.3M
  </text>
  <line x1="60" y1="228" x2="740" y2="228" stroke="#e5e7eb" stroke-width="1"/>
  <text x="50" y="233" text-anchor="end" font-size="12" fill="#6b7280">
    13.6M
  </text>
  <line x1="60" y1="284" x2="740" y2="284" stroke="#e5e7eb" stroke-width="1"/>
  <text x="50" y="289" text-anchor="end" font-size="12" fill="#6b7280">
    6.8M
  </text>
  <line x1="60" y1="340" x2="740" y2="340" stroke="#e5e7eb" stroke-width="1"/>
  <text x="50" y="345" text-anchor="end" font-size="12" fill="#6b7280">
    0
  </text>
  <text x="60" y="365" text-anchor="middle" font-size="10" fill="#6b7280" transform="rotate(-45, 60, 365)">
    11-06
  </text>
  <text x="400" y="365" text-anchor="middle" font-size="10" fill="#6b7280" transform="rotate(-45, 400, 365)">
    11-07
  </text>
  <text x="740" y="365" text-anchor="middle" font-size="10" fill="#6b7280" transform="rotate(-45, 740, 365)">
    11-09
  </text>
  <polyline points="60,331.39998933154027 400,331.47633444256707 740,337.1701576983321" fill="none" stroke="#3b82f6" stroke-width="2"/>
  <circle cx="60" cy="331.39998933154027" r="4" fill="#3b82f6"/>
  <circle cx="400" cy="331.47633444256707" r="4" fill="#3b82f6"/>
  <circle cx="740" cy="337.1701576983321" r="4" fill="#3b82f6"/>
  <polyline points="60,336.90244177469566 400,336.7822661362945 740,338.6623843935468" fill="none" stroke="#ef4444" stroke-width="2"/>
  <circle cx="60" cy="336.90244177469566" r="4" fill="#ef4444"/>
  <circle cx="400" cy="336.7822661362945" r="4" fill="#ef4444"/>
  <circle cx="740" cy="338.6623843935468" r="4" fill="#ef4444"/>
  <polyline points="60,323.32532702530716 400,324.05115465071697 740,335.199318972688" fill="none" stroke="#10b981" stroke-width="2"/>
  <circle cx="60" cy="323.32532702530716" r="4" fill="#10b981"/>
  <circle cx="400" cy="324.05115465071697" r="4" fill="#10b981"/>
  <circle cx="740" cy="335.199318972688" r="4" fill="#10b981"/>
  <polyline points="60,286.5468133248675 400,287.5279142819076 740,322.80843389671764" fill="none" stroke="#f59e0b" stroke-width="2"/>
  <circle cx="60" cy="286.5468133248675" r="4" fill="#f59e0b"/>
  <circle cx="400" cy="287.5279142819076" r="4" fill="#f59e0b"/>
  <circle cx="740" cy="322.80843389671764" r="4" fill="#f59e0b"/>
  <polyline points="60,274.0534079934201 400,276.3536561242559 740,320.9262312626462" fill="none" stroke="#8b5cf6" stroke-width="2"/>
  <circle cx="60" cy="274.0534079934201" r="4" fill="#8b5cf6"/>
  <circle cx="400" cy="276.3536561242559" r="4" fill="#8b5cf6"/>
  <circle cx="740" cy="320.9262312626462" r="4" fill="#8b5cf6"/>
  <polyline points="60,129.9332184897524 400,126.8236703406883 740,268.49598835331795" fill="none" stroke="#ec4899" stroke-width="2"/>
  <circle cx="60" cy="129.9332184897524" r="4" fill="#ec4899"/>
  <circle cx="400" cy="126.8236703406883" r="4" fill="#ec4899"/>
  <circle cx="740" cy="268.49598835331795" r="4" fill="#ec4899"/>
  <polyline points="60,113.45478191193786 400,129.3715894702324 740,265.33958409359644" fill="none" stroke="#06b6d4" stroke-width="2"/>
  <circle cx="60" cy="113.45478191193786" r="4" fill="#06b6d4"/>
  <circle cx="400" cy="129.3715894702324" r="4" fill="#06b6d4"/>
  <circle cx="740" cy="265.33958409359644" r="4" fill="#06b6d4"/>
  <polyline points="60,85.45454545454547 400,179.70634888170858 740,293.93696496630565" fill="none" stroke="#84cc16" stroke-width="2"/>
  <circle cx="60" cy="85.45454545454547" r="4" fill="#84cc16"/>
  <circle cx="400" cy="179.70634888170858" r="4" fill="#84cc16"/>
  <circle cx="740" cy="293.93696496630565" r="4" fill="#84cc16"/>
  <rect x="650" y="42" width="12" height="12" fill="#3b82f6"/>
  <text x="668" y="53" font-size="12" fill="#374151">Redux Toolkit</text>
  <rect x="650" y="62" width="12" height="12" fill="#ef4444"/>
  <text x="668" y="73" font-size="12" fill="#374151">Zustand</text>
  <rect x="650" y="82" width="12" height="12" fill="#10b981"/>
  <text x="668" y="93" font-size="12" fill="#374151">Jotai</text>
  <rect x="650" y="102" width="12" height="12" fill="#f59e0b"/>
  <text x="668" y="113" font-size="12" fill="#374151">MobX</text>
  <rect x="650" y="122" width="12" height="12" fill="#8b5cf6"/>
  <text x="668" y="133" font-size="12" fill="#374151">Valtio</text>
  <rect x="650" y="142" width="12" height="12" fill="#ec4899"/>
  <text x="668" y="153" font-size="12" fill="#374151">Preact Signals</text>
  <rect x="650" y="162" width="12" height="12" fill="#06b6d4"/>
  <text x="668" y="173" font-size="12" fill="#374151">Solid Signals</text>
  <rect x="650" y="182" width="12" height="12" fill="#84cc16"/>
  <text x="668" y="193" font-size="12" fill="#374151">Zen</text>
</svg>