<svg width="800" height="400" xmlns="http://www.w3.org/2000/svg">
  <!-- Background -->
  <rect width="800" height="400" fill="white"/>

  <!-- Title -->
  <text x="400" y="30" text-anchor="middle" font-size="18" font-weight="bold" fill="#1f2937">
    Nested Update - Performance Trend
  </text>

  <!-- Grid lines -->
  <line x1="60" y1="60" x2="740" y2="60" stroke="#e5e7eb" stroke-width="1"/>
  <text x="50" y="65" text-anchor="end" font-size="12" fill="#6b7280">
    31.6M
  </text>
  <line x1="60" y1="116" x2="740" y2="116" stroke="#e5e7eb" stroke-width="1"/>
  <text x="50" y="121" text-anchor="end" font-size="12" fill="#6b7280">
    25.3M
  </text>
  <line x1="60" y1="172" x2="740" y2="172" stroke="#e5e7eb" stroke-width="1"/>
  <text x="50" y="177" text-anchor="end" font-size="12" fill="#6b7280">
    18.9M
  </text>
  <line x1="60" y1="228" x2="740" y2="228" stroke="#e5e7eb" stroke-width="1"/>
  <text x="50" y="233" text-anchor="end" font-size="12" fill="#6b7280">
    12.6M
  </text>
  <line x1="60" y1="284" x2="740" y2="284" stroke="#e5e7eb" stroke-width="1"/>
  <text x="50" y="289" text-anchor="end" font-size="12" fill="#6b7280">
    6.3M
  </text>
  <line x1="60" y1="340" x2="740" y2="340" stroke="#e5e7eb" stroke-width="1"/>
  <text x="50" y="345" text-anchor="end" font-size="12" fill="#6b7280">
    0
  </text>
  <text x="60" y="365" text-anchor="middle" font-size="10" fill="#6b7280" transform="rotate(-45, 60, 365)">
    11-06
  </text>
  <text x="400" y="365" text-anchor="middle" font-size="10" fill="#6b7280" transform="rotate(-45, 400, 365)">
    11-07
  </text>
  <text x="740" y="365" text-anchor="middle" font-size="10" fill="#6b7280" transform="rotate(-45, 740, 365)">
    11-09
  </text>
  <polyline points="60,334.2174056378335 400,334.3880622198567 740,338.2198879435844" fill="none" stroke="#3b82f6" stroke-width="2"/>
  <circle cx="60" cy="334.2174056378335" r="4" fill="#3b82f6"/>
  <circle cx="400" cy="334.3880622198567" r="4" fill="#3b82f6"/>
  <circle cx="740" cy="338.2198879435844" r="4" fill="#3b82f6"/>
  <polyline points="60,336.63369178955463 400,336.5327676149845 740,338.58957091264637" fill="none" stroke="#ef4444" stroke-width="2"/>
  <circle cx="60" cy="336.63369178955463" r="4" fill="#ef4444"/>
  <circle cx="400" cy="336.5327676149845" r="4" fill="#ef4444"/>
  <circle cx="740" cy="338.58957091264637" r="4" fill="#ef4444"/>
  <polyline points="60,320.5905679998705 400,322.38123778496316 740,334.07034955799594" fill="none" stroke="#10b981" stroke-width="2"/>
  <circle cx="60" cy="320.5905679998705" r="4" fill="#10b981"/>
  <circle cx="400" cy="322.38123778496316" r="4" fill="#10b981"/>
  <circle cx="740" cy="334.07034955799594" r="4" fill="#10b981"/>
  <polyline points="60,289.3964794631174 400,288.7951743159176 740,321.10017408819596" fill="none" stroke="#f59e0b" stroke-width="2"/>
  <circle cx="60" cy="289.3964794631174" r="4" fill="#f59e0b"/>
  <circle cx="400" cy="288.7951743159176" r="4" fill="#f59e0b"/>
  <circle cx="740" cy="321.10017408819596" r="4" fill="#f59e0b"/>
  <polyline points="60,292.90665677127595 400,294.3676122258408 740,327.84446806121844" fill="none" stroke="#8b5cf6" stroke-width="2"/>
  <circle cx="60" cy="292.90665677127595" r="4" fill="#8b5cf6"/>
  <circle cx="400" cy="294.3676122258408" r="4" fill="#8b5cf6"/>
  <circle cx="740" cy="327.84446806121844" r="4" fill="#8b5cf6"/>
  <polyline points="60,101.4308733183413 400,103.52535235076158 740,265.5515855655383" fill="none" stroke="#ec4899" stroke-width="2"/>
  <circle cx="60" cy="101.4308733183413" r="4" fill="#ec4899"/>
  <circle cx="400" cy="103.52535235076158" r="4" fill="#ec4899"/>
  <circle cx="740" cy="265.5515855655383" r="4" fill="#ec4899"/>
  <polyline points="60,85.45454545454547 400,118.0957920670325 740,263.3395679204958" fill="none" stroke="#06b6d4" stroke-width="2"/>
  <circle cx="60" cy="85.45454545454547" r="4" fill="#06b6d4"/>
  <circle cx="400" cy="118.0957920670325" r="4" fill="#06b6d4"/>
  <circle cx="740" cy="263.3395679204958" r="4" fill="#06b6d4"/>
  <polyline points="60,106.3671040984234 400,111.17670031259286 740,263.13070773090055" fill="none" stroke="#84cc16" stroke-width="2"/>
  <circle cx="60" cy="106.3671040984234" r="4" fill="#84cc16"/>
  <circle cx="400" cy="111.17670031259286" r="4" fill="#84cc16"/>
  <circle cx="740" cy="263.13070773090055" r="4" fill="#84cc16"/>
  <rect x="650" y="42" width="12" height="12" fill="#3b82f6"/>
  <text x="668" y="53" font-size="12" fill="#374151">Redux Toolkit</text>
  <rect x="650" y="62" width="12" height="12" fill="#ef4444"/>
  <text x="668" y="73" font-size="12" fill="#374151">Zustand</text>
  <rect x="650" y="82" width="12" height="12" fill="#10b981"/>
  <text x="668" y="93" font-size="12" fill="#374151">Jotai</text>
  <rect x="650" y="102" width="12" height="12" fill="#f59e0b"/>
  <text x="668" y="113" font-size="12" fill="#374151">MobX</text>
  <rect x="650" y="122" width="12" height="12" fill="#8b5cf6"/>
  <text x="668" y="133" font-size="12" fill="#374151">Valtio</text>
  <rect x="650" y="142" width="12" height="12" fill="#ec4899"/>
  <text x="668" y="153" font-size="12" fill="#374151">Preact Signals</text>
  <rect x="650" y="162" width="12" height="12" fill="#06b6d4"/>
  <text x="668" y="173" font-size="12" fill="#374151">Solid Signals</text>
  <rect x="650" y="182" width="12" height="12" fill="#84cc16"/>
  <text x="668" y="193" font-size="12" fill="#374151">Zen</text>
</svg>