<svg width="800" height="400" xmlns="http://www.w3.org/2000/svg">
  <!-- Background -->
  <rect width="800" height="400" fill="white"/>

  <!-- Title -->
  <text x="400" y="30" text-anchor="middle" font-size="18" font-weight="bold" fill="#1f2937">
    Simple Route Matching - Performance Trend
  </text>

  <!-- Grid lines -->
  <line x1="60" y1="60" x2="740" y2="60" stroke="#e5e7eb" stroke-width="1"/>
  <text x="50" y="65" text-anchor="end" font-size="12" fill="#6b7280">
    6.8M
  </text>
  <line x1="60" y1="116" x2="740" y2="116" stroke="#e5e7eb" stroke-width="1"/>
  <text x="50" y="121" text-anchor="end" font-size="12" fill="#6b7280">
    5.4M
  </text>
  <line x1="60" y1="172" x2="740" y2="172" stroke="#e5e7eb" stroke-width="1"/>
  <text x="50" y="177" text-anchor="end" font-size="12" fill="#6b7280">
    4.1M
  </text>
  <line x1="60" y1="228" x2="740" y2="228" stroke="#e5e7eb" stroke-width="1"/>
  <text x="50" y="233" text-anchor="end" font-size="12" fill="#6b7280">
    2.7M
  </text>
  <line x1="60" y1="284" x2="740" y2="284" stroke="#e5e7eb" stroke-width="1"/>
  <text x="50" y="289" text-anchor="end" font-size="12" fill="#6b7280">
    1.4M
  </text>
  <line x1="60" y1="340" x2="740" y2="340" stroke="#e5e7eb" stroke-width="1"/>
  <text x="50" y="345" text-anchor="end" font-size="12" fill="#6b7280">
    0
  </text>
  <text x="60" y="365" text-anchor="middle" font-size="10" fill="#6b7280" transform="rotate(-45, 60, 365)">
    11-07
  </text>
  <text x="230" y="365" text-anchor="middle" font-size="10" fill="#6b7280" transform="rotate(-45, 230, 365)">
    11-08
  </text>
  <text x="400" y="365" text-anchor="middle" font-size="10" fill="#6b7280" transform="rotate(-45, 400, 365)">
    11-09
  </text>
  <text x="570" y="365" text-anchor="middle" font-size="10" fill="#6b7280" transform="rotate(-45, 570, 365)">
    11-10
  </text>
  <text x="740" y="365" text-anchor="middle" font-size="10" fill="#6b7280" transform="rotate(-45, 740, 365)">
    11-11
  </text>
  <polyline points="60,338.5748033289825 230,338.52316592389985 400,338.5396790339042 570,338.53503706869276 740,338.51777085649854" fill="none" stroke="#3b82f6" stroke-width="2"/>
  <circle cx="60" cy="338.5748033289825" r="4" fill="#3b82f6"/>
  <circle cx="230" cy="338.52316592389985" r="4" fill="#3b82f6"/>
  <circle cx="400" cy="338.5396790339042" r="4" fill="#3b82f6"/>
  <circle cx="570" cy="338.53503706869276" r="4" fill="#3b82f6"/>
  <circle cx="740" cy="338.51777085649854" r="4" fill="#3b82f6"/>
  <polyline points="60,302.44940198044753 230,302.3130573464022 400,301.9200693997751 570,302.412388722964 740,301.75631285091885" fill="none" stroke="#ef4444" stroke-width="2"/>
  <circle cx="60" cy="302.44940198044753" r="4" fill="#ef4444"/>
  <circle cx="230" cy="302.3130573464022" r="4" fill="#ef4444"/>
  <circle cx="400" cy="301.9200693997751" r="4" fill="#ef4444"/>
  <circle cx="570" cy="302.412388722964" r="4" fill="#ef4444"/>
  <circle cx="740" cy="301.75631285091885" r="4" fill="#ef4444"/>
  <polyline points="60,85.4545454545455 230,95.67205104470747 400,93.29032528869962 570,92.20125931808062 740,97.1217385432075" fill="none" stroke="#10b981" stroke-width="2"/>
  <circle cx="60" cy="85.4545454545455" r="4" fill="#10b981"/>
  <circle cx="230" cy="95.67205104470747" r="4" fill="#10b981"/>
  <circle cx="400" cy="93.29032528869962" r="4" fill="#10b981"/>
  <circle cx="570" cy="92.20125931808062" r="4" fill="#10b981"/>
  <circle cx="740" cy="97.1217385432075" r="4" fill="#10b981"/>
  <rect x="650" y="42" width="12" height="12" fill="#3b82f6"/>
  <text x="668" y="53" font-size="12" fill="#374151">React Router</text>
  <rect x="650" y="62" width="12" height="12" fill="#ef4444"/>
  <text x="668" y="73" font-size="12" fill="#374151">Wouter</text>
  <rect x="650" y="82" width="12" height="12" fill="#10b981"/>
  <text x="668" y="93" font-size="12" fill="#374151">Zen Router</text>
</svg>