<svg width="800" height="400" xmlns="http://www.w3.org/2000/svg">
  <!-- Background -->
  <rect width="800" height="400" fill="white"/>

  <!-- Title -->
  <text x="400" y="30" text-anchor="middle" font-size="18" font-weight="bold" fill="#1f2937">
    Simple Route Matching - Performance Trend
  </text>

  <!-- Grid lines -->
  <line x1="60" y1="60" x2="740" y2="60" stroke="#e5e7eb" stroke-width="1"/>
  <text x="50" y="65" text-anchor="end" font-size="12" fill="#6b7280">
    6.9M
  </text>
  <line x1="60" y1="116" x2="740" y2="116" stroke="#e5e7eb" stroke-width="1"/>
  <text x="50" y="121" text-anchor="end" font-size="12" fill="#6b7280">
    5.5M
  </text>
  <line x1="60" y1="172" x2="740" y2="172" stroke="#e5e7eb" stroke-width="1"/>
  <text x="50" y="177" text-anchor="end" font-size="12" fill="#6b7280">
    4.1M
  </text>
  <line x1="60" y1="228" x2="740" y2="228" stroke="#e5e7eb" stroke-width="1"/>
  <text x="50" y="233" text-anchor="end" font-size="12" fill="#6b7280">
    2.8M
  </text>
  <line x1="60" y1="284" x2="740" y2="284" stroke="#e5e7eb" stroke-width="1"/>
  <text x="50" y="289" text-anchor="end" font-size="12" fill="#6b7280">
    1.4M
  </text>
  <line x1="60" y1="340" x2="740" y2="340" stroke="#e5e7eb" stroke-width="1"/>
  <text x="50" y="345" text-anchor="end" font-size="12" fill="#6b7280">
    0
  </text>
  <text x="60" y="365" text-anchor="middle" font-size="10" fill="#6b7280" transform="rotate(-45, 60, 365)">
    11-07
  </text>
  <text x="286.66666666666663" y="365" text-anchor="middle" font-size="10" fill="#6b7280" transform="rotate(-45, 286.66666666666663, 365)">
    11-08
  </text>
  <text x="513.3333333333333" y="365" text-anchor="middle" font-size="10" fill="#6b7280" transform="rotate(-45, 513.3333333333333, 365)">
    11-09
  </text>
  <text x="740" y="365" text-anchor="middle" font-size="10" fill="#6b7280" transform="rotate(-45, 740, 365)">
    11-10
  </text>
  <polyline points="60,338.5922626246501 286.66666666666663,338.54125780083933 513.3333333333333,338.5575686178719 740,338.5417376621914" fill="none" stroke="#3b82f6" stroke-width="2"/>
  <circle cx="60" cy="338.5922626246501" r="4" fill="#3b82f6"/>
  <circle cx="286.66666666666663" cy="338.54125780083933" r="4" fill="#3b82f6"/>
  <circle cx="513.3333333333333" cy="338.5575686178719" r="4" fill="#3b82f6"/>
  <circle cx="740" cy="338.5417376621914" r="4" fill="#3b82f6"/>
  <polyline points="60,302.9094135750935 286.66666666666663,302.7747392237024 513.3333333333333,302.3865655549174 740,302.31563723775554" fill="none" stroke="#ef4444" stroke-width="2"/>
  <circle cx="60" cy="302.9094135750935" r="4" fill="#ef4444"/>
  <circle cx="286.66666666666663" cy="302.7747392237024" r="4" fill="#ef4444"/>
  <circle cx="513.3333333333333" cy="302.3865655549174" r="4" fill="#ef4444"/>
  <circle cx="740" cy="302.31563723775554" r="4" fill="#ef4444"/>
  <polyline points="60,88.57284094465606 286.66666666666663,98.66517752852457 513.3333333333333,96.312628976631 740,85.45454545454547" fill="none" stroke="#10b981" stroke-width="2"/>
  <circle cx="60" cy="88.57284094465606" r="4" fill="#10b981"/>
  <circle cx="286.66666666666663" cy="98.66517752852457" r="4" fill="#10b981"/>
  <circle cx="513.3333333333333" cy="96.312628976631" r="4" fill="#10b981"/>
  <circle cx="740" cy="85.45454545454547" r="4" fill="#10b981"/>
  <rect x="650" y="42" width="12" height="12" fill="#3b82f6"/>
  <text x="668" y="53" font-size="12" fill="#374151">React Router</text>
  <rect x="650" y="62" width="12" height="12" fill="#ef4444"/>
  <text x="668" y="73" font-size="12" fill="#374151">Wouter</text>
  <rect x="650" y="82" width="12" height="12" fill="#10b981"/>
  <text x="668" y="93" font-size="12" fill="#374151">Zen Router</text>
</svg>