<svg width="800" height="400" xmlns="http://www.w3.org/2000/svg">
  <!-- Background -->
  <rect width="800" height="400" fill="white"/>

  <!-- Title -->
  <text x="400" y="30" text-anchor="middle" font-size="18" font-weight="bold" fill="#1f2937">
    Static Route Matching - Performance Trend
  </text>

  <!-- Grid lines -->
  <line x1="60" y1="60" x2="740" y2="60" stroke="#e5e7eb" stroke-width="1"/>
  <text x="50" y="65" text-anchor="end" font-size="12" fill="#6b7280">
    8.2M
  </text>
  <line x1="60" y1="116" x2="740" y2="116" stroke="#e5e7eb" stroke-width="1"/>
  <text x="50" y="121" text-anchor="end" font-size="12" fill="#6b7280">
    6.6M
  </text>
  <line x1="60" y1="172" x2="740" y2="172" stroke="#e5e7eb" stroke-width="1"/>
  <text x="50" y="177" text-anchor="end" font-size="12" fill="#6b7280">
    4.9M
  </text>
  <line x1="60" y1="228" x2="740" y2="228" stroke="#e5e7eb" stroke-width="1"/>
  <text x="50" y="233" text-anchor="end" font-size="12" fill="#6b7280">
    3.3M
  </text>
  <line x1="60" y1="284" x2="740" y2="284" stroke="#e5e7eb" stroke-width="1"/>
  <text x="50" y="289" text-anchor="end" font-size="12" fill="#6b7280">
    1.6M
  </text>
  <line x1="60" y1="340" x2="740" y2="340" stroke="#e5e7eb" stroke-width="1"/>
  <text x="50" y="345" text-anchor="end" font-size="12" fill="#6b7280">
    0
  </text>
  <text x="60" y="365" text-anchor="middle" font-size="10" fill="#6b7280" transform="rotate(-45, 60, 365)">
    11-07
  </text>
  <text x="286.66666666666663" y="365" text-anchor="middle" font-size="10" fill="#6b7280" transform="rotate(-45, 286.66666666666663, 365)">
    11-08
  </text>
  <text x="513.3333333333333" y="365" text-anchor="middle" font-size="10" fill="#6b7280" transform="rotate(-45, 513.3333333333333, 365)">
    11-09
  </text>
  <text x="740" y="365" text-anchor="middle" font-size="10" fill="#6b7280" transform="rotate(-45, 740, 365)">
    11-10
  </text>
  <polyline points="60,338.9361887567708 286.66666666666663,338.9248832463402 513.3333333333333,338.90345158508245 740,338.90529622305974" fill="none" stroke="#3b82f6" stroke-width="2"/>
  <circle cx="60" cy="338.9361887567708" r="4" fill="#3b82f6"/>
  <circle cx="286.66666666666663" cy="338.9248832463402" r="4" fill="#3b82f6"/>
  <circle cx="513.3333333333333" cy="338.90345158508245" r="4" fill="#3b82f6"/>
  <circle cx="740" cy="338.90529622305974" r="4" fill="#3b82f6"/>
  <polyline points="60,286.5431372189248 286.66666666666663,287.7349002553874 513.3333333333333,286.71542089716655 740,286.213592113557" fill="none" stroke="#ef4444" stroke-width="2"/>
  <circle cx="60" cy="286.5431372189248" r="4" fill="#ef4444"/>
  <circle cx="286.66666666666663" cy="287.7349002553874" r="4" fill="#ef4444"/>
  <circle cx="513.3333333333333" cy="286.71542089716655" r="4" fill="#ef4444"/>
  <circle cx="740" cy="286.213592113557" r="4" fill="#ef4444"/>
  <polyline points="60,97.6928709156713 286.66666666666663,87.42216315316551 513.3333333333333,96.62107231026661 740,85.45454545454547" fill="none" stroke="#10b981" stroke-width="2"/>
  <circle cx="60" cy="97.6928709156713" r="4" fill="#10b981"/>
  <circle cx="286.66666666666663" cy="87.42216315316551" r="4" fill="#10b981"/>
  <circle cx="513.3333333333333" cy="96.62107231026661" r="4" fill="#10b981"/>
  <circle cx="740" cy="85.45454545454547" r="4" fill="#10b981"/>
  <rect x="650" y="42" width="12" height="12" fill="#3b82f6"/>
  <text x="668" y="53" font-size="12" fill="#374151">React Router</text>
  <rect x="650" y="62" width="12" height="12" fill="#ef4444"/>
  <text x="668" y="73" font-size="12" fill="#374151">Wouter</text>
  <rect x="650" y="82" width="12" height="12" fill="#10b981"/>
  <text x="668" y="93" font-size="12" fill="#374151">Zen Router</text>
</svg>