<svg width="800" height="400" xmlns="http://www.w3.org/2000/svg">
  <!-- Background -->
  <rect width="800" height="400" fill="white"/>

  <!-- Title -->
  <text x="400" y="30" text-anchor="middle" font-size="18" font-weight="bold" fill="#1f2937">
    Static Route Matching - Performance Trend
  </text>

  <!-- Grid lines -->
  <line x1="60" y1="60" x2="740" y2="60" stroke="#e5e7eb" stroke-width="1"/>
  <text x="50" y="65" text-anchor="end" font-size="12" fill="#6b7280">
    8.1M
  </text>
  <line x1="60" y1="116" x2="740" y2="116" stroke="#e5e7eb" stroke-width="1"/>
  <text x="50" y="121" text-anchor="end" font-size="12" fill="#6b7280">
    6.5M
  </text>
  <line x1="60" y1="172" x2="740" y2="172" stroke="#e5e7eb" stroke-width="1"/>
  <text x="50" y="177" text-anchor="end" font-size="12" fill="#6b7280">
    4.9M
  </text>
  <line x1="60" y1="228" x2="740" y2="228" stroke="#e5e7eb" stroke-width="1"/>
  <text x="50" y="233" text-anchor="end" font-size="12" fill="#6b7280">
    3.3M
  </text>
  <line x1="60" y1="284" x2="740" y2="284" stroke="#e5e7eb" stroke-width="1"/>
  <text x="50" y="289" text-anchor="end" font-size="12" fill="#6b7280">
    1.6M
  </text>
  <line x1="60" y1="340" x2="740" y2="340" stroke="#e5e7eb" stroke-width="1"/>
  <text x="50" y="345" text-anchor="end" font-size="12" fill="#6b7280">
    0
  </text>
  <text x="60" y="365" text-anchor="middle" font-size="10" fill="#6b7280" transform="rotate(-45, 60, 365)">
    11-07
  </text>
  <text x="230" y="365" text-anchor="middle" font-size="10" fill="#6b7280" transform="rotate(-45, 230, 365)">
    11-08
  </text>
  <text x="400" y="365" text-anchor="middle" font-size="10" fill="#6b7280" transform="rotate(-45, 400, 365)">
    11-09
  </text>
  <text x="570" y="365" text-anchor="middle" font-size="10" fill="#6b7280" transform="rotate(-45, 570, 365)">
    11-10
  </text>
  <text x="740" y="365" text-anchor="middle" font-size="10" fill="#6b7280" transform="rotate(-45, 740, 365)">
    11-11
  </text>
  <polyline points="60,338.9279015140883 230,338.9165079321044 400,338.8949093151212 570,338.9619298031166 740,338.91795780467095" fill="none" stroke="#3b82f6" stroke-width="2"/>
  <circle cx="60" cy="338.9279015140883" r="4" fill="#3b82f6"/>
  <circle cx="230" cy="338.9165079321044" r="4" fill="#3b82f6"/>
  <circle cx="400" cy="338.8949093151212" r="4" fill="#3b82f6"/>
  <circle cx="570" cy="338.9619298031166" r="4" fill="#3b82f6"/>
  <circle cx="740" cy="338.91795780467095" r="4" fill="#3b82f6"/>
  <polyline points="60,286.12670056464884 230,287.32774760667735 400,286.3003263575382 570,285.66582196711954 740,287.18845524886547" fill="none" stroke="#ef4444" stroke-width="2"/>
  <circle cx="60" cy="286.12670056464884" r="4" fill="#ef4444"/>
  <circle cx="230" cy="287.32774760667735" r="4" fill="#ef4444"/>
  <circle cx="400" cy="286.3003263575382" r="4" fill="#ef4444"/>
  <circle cx="570" cy="285.66582196711954" r="4" fill="#ef4444"/>
  <circle cx="740" cy="287.18845524886547" r="4" fill="#ef4444"/>
  <polyline points="60,95.80526350862374 230,85.45454545454547 400,94.72511543783571 570,97.34676559530462 740,96.35467930208867" fill="none" stroke="#10b981" stroke-width="2"/>
  <circle cx="60" cy="95.80526350862374" r="4" fill="#10b981"/>
  <circle cx="230" cy="85.45454545454547" r="4" fill="#10b981"/>
  <circle cx="400" cy="94.72511543783571" r="4" fill="#10b981"/>
  <circle cx="570" cy="97.34676559530462" r="4" fill="#10b981"/>
  <circle cx="740" cy="96.35467930208867" r="4" fill="#10b981"/>
  <rect x="650" y="42" width="12" height="12" fill="#3b82f6"/>
  <text x="668" y="53" font-size="12" fill="#374151">React Router</text>
  <rect x="650" y="62" width="12" height="12" fill="#ef4444"/>
  <text x="668" y="73" font-size="12" fill="#374151">Wouter</text>
  <rect x="650" y="82" width="12" height="12" fill="#10b981"/>
  <text x="668" y="93" font-size="12" fill="#374151">Zen Router</text>
</svg>