<svg width="800" height="400" xmlns="http://www.w3.org/2000/svg">
  <!-- Background -->
  <rect width="800" height="400" fill="white"/>

  <!-- Title -->
  <text x="400" y="30" text-anchor="middle" font-size="18" font-weight="bold" fill="#1f2937">
    Static Route Matching - Performance Trend
  </text>

  <!-- Grid lines -->
  <line x1="60" y1="60" x2="740" y2="60" stroke="#e5e7eb" stroke-width="1"/>
  <text x="50" y="65" text-anchor="end" font-size="12" fill="#6b7280">
    8.1M
  </text>
  <line x1="60" y1="116" x2="740" y2="116" stroke="#e5e7eb" stroke-width="1"/>
  <text x="50" y="121" text-anchor="end" font-size="12" fill="#6b7280">
    6.5M
  </text>
  <line x1="60" y1="172" x2="740" y2="172" stroke="#e5e7eb" stroke-width="1"/>
  <text x="50" y="177" text-anchor="end" font-size="12" fill="#6b7280">
    4.9M
  </text>
  <line x1="60" y1="228" x2="740" y2="228" stroke="#e5e7eb" stroke-width="1"/>
  <text x="50" y="233" text-anchor="end" font-size="12" fill="#6b7280">
    3.3M
  </text>
  <line x1="60" y1="284" x2="740" y2="284" stroke="#e5e7eb" stroke-width="1"/>
  <text x="50" y="289" text-anchor="end" font-size="12" fill="#6b7280">
    1.6M
  </text>
  <line x1="60" y1="340" x2="740" y2="340" stroke="#e5e7eb" stroke-width="1"/>
  <text x="50" y="345" text-anchor="end" font-size="12" fill="#6b7280">
    0
  </text>
  <text x="60" y="365" text-anchor="middle" font-size="10" fill="#6b7280" transform="rotate(-45, 60, 365)">
    11-07
  </text>
  <text x="400" y="365" text-anchor="middle" font-size="10" fill="#6b7280" transform="rotate(-45, 400, 365)">
    11-08
  </text>
  <text x="740" y="365" text-anchor="middle" font-size="10" fill="#6b7280" transform="rotate(-45, 740, 365)">
    11-09
  </text>
  <polyline points="60,338.9279015140883 400,338.9165079321044 740,338.90472207868953" fill="none" stroke="#3b82f6" stroke-width="2"/>
  <circle cx="60" cy="338.9279015140883" r="4" fill="#3b82f6"/>
  <circle cx="400" cy="338.9165079321044" r="4" fill="#3b82f6"/>
  <circle cx="740" cy="338.90472207868953" r="4" fill="#3b82f6"/>
  <polyline points="60,286.12670056464884 400,287.32774760667735 740,286.342781786061" fill="none" stroke="#ef4444" stroke-width="2"/>
  <circle cx="60" cy="286.12670056464884" r="4" fill="#ef4444"/>
  <circle cx="400" cy="287.32774760667735" r="4" fill="#ef4444"/>
  <circle cx="740" cy="286.342781786061" r="4" fill="#ef4444"/>
  <polyline points="60,95.80526350862374 400,85.45454545454547 740,97.9679778359789" fill="none" stroke="#10b981" stroke-width="2"/>
  <circle cx="60" cy="95.80526350862374" r="4" fill="#10b981"/>
  <circle cx="400" cy="85.45454545454547" r="4" fill="#10b981"/>
  <circle cx="740" cy="97.9679778359789" r="4" fill="#10b981"/>
  <rect x="650" y="42" width="12" height="12" fill="#3b82f6"/>
  <text x="668" y="53" font-size="12" fill="#374151">React Router</text>
  <rect x="650" y="62" width="12" height="12" fill="#ef4444"/>
  <text x="668" y="73" font-size="12" fill="#374151">Wouter</text>
  <rect x="650" y="82" width="12" height="12" fill="#10b981"/>
  <text x="668" y="93" font-size="12" fill="#374151">Zen Router</text>
</svg>