<svg width="800" height="400" xmlns="http://www.w3.org/2000/svg">
  <!-- Background -->
  <rect width="800" height="400" fill="white"/>

  <!-- Title -->
  <text x="400" y="30" text-anchor="middle" font-size="18" font-weight="bold" fill="#1f2937">
    Array Remove - Performance Trend
  </text>

  <!-- Grid lines -->
  <line x1="60" y1="60" x2="740" y2="60" stroke="#e5e7eb" stroke-width="1"/>
  <text x="50" y="65" text-anchor="end" font-size="12" fill="#6b7280">
    3.2M
  </text>
  <line x1="60" y1="116" x2="740" y2="116" stroke="#e5e7eb" stroke-width="1"/>
  <text x="50" y="121" text-anchor="end" font-size="12" fill="#6b7280">
    2.6M
  </text>
  <line x1="60" y1="172" x2="740" y2="172" stroke="#e5e7eb" stroke-width="1"/>
  <text x="50" y="177" text-anchor="end" font-size="12" fill="#6b7280">
    1.9M
  </text>
  <line x1="60" y1="228" x2="740" y2="228" stroke="#e5e7eb" stroke-width="1"/>
  <text x="50" y="233" text-anchor="end" font-size="12" fill="#6b7280">
    1.3M
  </text>
  <line x1="60" y1="284" x2="740" y2="284" stroke="#e5e7eb" stroke-width="1"/>
  <text x="50" y="289" text-anchor="end" font-size="12" fill="#6b7280">
    639K
  </text>
  <line x1="60" y1="340" x2="740" y2="340" stroke="#e5e7eb" stroke-width="1"/>
  <text x="50" y="345" text-anchor="end" font-size="12" fill="#6b7280">
    0
  </text>
  <text x="60" y="365" text-anchor="middle" font-size="10" fill="#6b7280" transform="rotate(-45, 60, 365)">
    11-03
  </text>
  <text x="230" y="365" text-anchor="middle" font-size="10" fill="#6b7280" transform="rotate(-45, 230, 365)">
    11-04
  </text>
  <text x="400" y="365" text-anchor="middle" font-size="10" fill="#6b7280" transform="rotate(-45, 400, 365)">
    11-05
  </text>
  <text x="570" y="365" text-anchor="middle" font-size="10" fill="#6b7280" transform="rotate(-45, 570, 365)">
    11-06
  </text>
  <text x="740" y="365" text-anchor="middle" font-size="10" fill="#6b7280" transform="rotate(-45, 740, 365)">
    11-07
  </text>
  <polyline points="60,301.67134149599593 230,301.67134149599593 400,301.67134149599593 570,301.4706593784686 740,327.50852983765566" fill="none" stroke="#3b82f6" stroke-width="2"/>
  <circle cx="60" cy="301.67134149599593" r="4" fill="#3b82f6"/>
  <circle cx="230" cy="301.67134149599593" r="4" fill="#3b82f6"/>
  <circle cx="400" cy="301.67134149599593" r="4" fill="#3b82f6"/>
  <circle cx="570" cy="301.4706593784686" r="4" fill="#3b82f6"/>
  <circle cx="740" cy="327.50852983765566" r="4" fill="#3b82f6"/>
  <polyline points="60,284.232165958752 230,284.232165958752 400,284.232165958752 570,282.54786586391276 740,320.90593846559756" fill="none" stroke="#ef4444" stroke-width="2"/>
  <circle cx="60" cy="284.232165958752" r="4" fill="#ef4444"/>
  <circle cx="230" cy="284.232165958752" r="4" fill="#ef4444"/>
  <circle cx="400" cy="284.232165958752" r="4" fill="#ef4444"/>
  <circle cx="570" cy="282.54786586391276" r="4" fill="#ef4444"/>
  <circle cx="740" cy="320.90593846559756" r="4" fill="#ef4444"/>
  <polyline points="60,85.45454545454547 230,85.45454545454547 400,85.45454545454547 570,137.07614102037115 740,270.0786507748101" fill="none" stroke="#10b981" stroke-width="2"/>
  <circle cx="60" cy="85.45454545454547" r="4" fill="#10b981"/>
  <circle cx="230" cy="85.45454545454547" r="4" fill="#10b981"/>
  <circle cx="400" cy="85.45454545454547" r="4" fill="#10b981"/>
  <circle cx="570" cy="137.07614102037115" r="4" fill="#10b981"/>
  <circle cx="740" cy="270.0786507748101" r="4" fill="#10b981"/>
  <polyline points="60,187.11653837917595 230,187.11653837917595 400,187.11653837917595 570,188.00935612204313 740,289.2479216119157" fill="none" stroke="#f59e0b" stroke-width="2"/>
  <circle cx="60" cy="187.11653837917595" r="4" fill="#f59e0b"/>
  <circle cx="230" cy="187.11653837917595" r="4" fill="#f59e0b"/>
  <circle cx="400" cy="187.11653837917595" r="4" fill="#f59e0b"/>
  <circle cx="570" cy="188.00935612204313" r="4" fill="#f59e0b"/>
  <circle cx="740" cy="289.2479216119157" r="4" fill="#f59e0b"/>
  <polyline points="60,325.1657208660117 230,325.1657208660117 400,325.1657208660117 570,325.06913608054 740,334.6744164707525" fill="none" stroke="#8b5cf6" stroke-width="2"/>
  <circle cx="60" cy="325.1657208660117" r="4" fill="#8b5cf6"/>
  <circle cx="230" cy="325.1657208660117" r="4" fill="#8b5cf6"/>
  <circle cx="400" cy="325.1657208660117" r="4" fill="#8b5cf6"/>
  <circle cx="570" cy="325.06913608054" r="4" fill="#8b5cf6"/>
  <circle cx="740" cy="334.6744164707525" r="4" fill="#8b5cf6"/>
  <polyline points="570,253.88612067577208 740,312.7033629051356" fill="none" stroke="#ec4899" stroke-width="2"/>
  <circle cx="570" cy="253.88612067577208" r="4" fill="#ec4899"/>
  <circle cx="740" cy="312.7033629051356" r="4" fill="#ec4899"/>
  <rect x="650" y="42" width="12" height="12" fill="#3b82f6"/>
  <text x="668" y="53" font-size="12" fill="#374151">Immer</text>
  <rect x="650" y="62" width="12" height="12" fill="#ef4444"/>
  <text x="668" y="73" font-size="12" fill="#374151">Mutative</text>
  <rect x="650" y="82" width="12" height="12" fill="#10b981"/>
  <text x="668" y="93" font-size="12" fill="#374151">Immutable.js</text>
  <rect x="650" y="102" width="12" height="12" fill="#f59e0b"/>
  <text x="668" y="113" font-size="12" fill="#374151">Immutability Helper</text>
  <rect x="650" y="122" width="12" height="12" fill="#8b5cf6"/>
  <text x="668" y="133" font-size="12" fill="#374151">Seamless Immutable</text>
  <rect x="650" y="142" width="12" height="12" fill="#ec4899"/>
  <text x="668" y="153" font-size="12" fill="#374151">Craft</text>
</svg>