<svg width="800" height="400" xmlns="http://www.w3.org/2000/svg">
  <!-- Background -->
  <rect width="800" height="400" fill="white"/>

  <!-- Title -->
  <text x="400" y="30" text-anchor="middle" font-size="18" font-weight="bold" fill="#1f2937">
    Array Update - Performance Trend
  </text>

  <!-- Grid lines -->
  <line x1="60" y1="60" x2="740" y2="60" stroke="#e5e7eb" stroke-width="1"/>
  <text x="50" y="65" text-anchor="end" font-size="12" fill="#6b7280">
    1.6M
  </text>
  <line x1="60" y1="116" x2="740" y2="116" stroke="#e5e7eb" stroke-width="1"/>
  <text x="50" y="121" text-anchor="end" font-size="12" fill="#6b7280">
    1.2M
  </text>
  <line x1="60" y1="172" x2="740" y2="172" stroke="#e5e7eb" stroke-width="1"/>
  <text x="50" y="177" text-anchor="end" font-size="12" fill="#6b7280">
    935K
  </text>
  <line x1="60" y1="228" x2="740" y2="228" stroke="#e5e7eb" stroke-width="1"/>
  <text x="50" y="233" text-anchor="end" font-size="12" fill="#6b7280">
    623K
  </text>
  <line x1="60" y1="284" x2="740" y2="284" stroke="#e5e7eb" stroke-width="1"/>
  <text x="50" y="289" text-anchor="end" font-size="12" fill="#6b7280">
    312K
  </text>
  <line x1="60" y1="340" x2="740" y2="340" stroke="#e5e7eb" stroke-width="1"/>
  <text x="50" y="345" text-anchor="end" font-size="12" fill="#6b7280">
    0
  </text>
  <text x="60" y="365" text-anchor="middle" font-size="10" fill="#6b7280" transform="rotate(-45, 60, 365)">
    11-03
  </text>
  <text x="173.33333333333331" y="365" text-anchor="middle" font-size="10" fill="#6b7280" transform="rotate(-45, 173.33333333333331, 365)">
    11-04
  </text>
  <text x="286.66666666666663" y="365" text-anchor="middle" font-size="10" fill="#6b7280" transform="rotate(-45, 286.66666666666663, 365)">
    11-05
  </text>
  <text x="400" y="365" text-anchor="middle" font-size="10" fill="#6b7280" transform="rotate(-45, 400, 365)">
    11-06
  </text>
  <text x="513.3333333333333" y="365" text-anchor="middle" font-size="10" fill="#6b7280" transform="rotate(-45, 513.3333333333333, 365)">
    11-07
  </text>
  <text x="626.6666666666666" y="365" text-anchor="middle" font-size="10" fill="#6b7280" transform="rotate(-45, 626.6666666666666, 365)">
    11-08
  </text>
  <text x="740" y="365" text-anchor="middle" font-size="10" fill="#6b7280" transform="rotate(-45, 740, 365)">
    11-09
  </text>
  <polyline points="60,178.94185730784588 173.33333333333331,178.94185730784588 286.66666666666663,178.94185730784588 400,173.41982733178938 513.3333333333333,288.53556982656835 626.6666666666666,289.0746350589498 740,289.7184079954453" fill="none" stroke="#3b82f6" stroke-width="2"/>
  <circle cx="60" cy="178.94185730784588" r="4" fill="#3b82f6"/>
  <circle cx="173.33333333333331" cy="178.94185730784588" r="4" fill="#3b82f6"/>
  <circle cx="286.66666666666663" cy="178.94185730784588" r="4" fill="#3b82f6"/>
  <circle cx="400" cy="173.41982733178938" r="4" fill="#3b82f6"/>
  <circle cx="513.3333333333333" cy="288.53556982656835" r="4" fill="#3b82f6"/>
  <circle cx="626.6666666666666" cy="289.0746350589498" r="4" fill="#3b82f6"/>
  <circle cx="740" cy="289.7184079954453" r="4" fill="#3b82f6"/>
  <polyline points="60,85.4545454545455 173.33333333333331,85.4545454545455 286.66666666666663,85.4545454545455 400,105.17932438504263 513.3333333333333,257.9316227446265 626.6666666666666,258.9402832055557 740,259.5377353667195" fill="none" stroke="#ef4444" stroke-width="2"/>
  <circle cx="60" cy="85.4545454545455" r="4" fill="#ef4444"/>
  <circle cx="173.33333333333331" cy="85.4545454545455" r="4" fill="#ef4444"/>
  <circle cx="286.66666666666663" cy="85.4545454545455" r="4" fill="#ef4444"/>
  <circle cx="400" cy="105.17932438504263" r="4" fill="#ef4444"/>
  <circle cx="513.3333333333333" cy="257.9316227446265" r="4" fill="#ef4444"/>
  <circle cx="626.6666666666666" cy="258.9402832055557" r="4" fill="#ef4444"/>
  <circle cx="740" cy="259.5377353667195" r="4" fill="#ef4444"/>
  <polyline points="60,239.831524800554 173.33333333333331,239.831524800554 286.66666666666663,239.831524800554 400,248.11398331999183 513.3333333333333,306.6196683920766 626.6666666666666,305.867477777829 740,306.9728499905035" fill="none" stroke="#10b981" stroke-width="2"/>
  <circle cx="60" cy="239.831524800554" r="4" fill="#10b981"/>
  <circle cx="173.33333333333331" cy="239.831524800554" r="4" fill="#10b981"/>
  <circle cx="286.66666666666663" cy="239.831524800554" r="4" fill="#10b981"/>
  <circle cx="400" cy="248.11398331999183" r="4" fill="#10b981"/>
  <circle cx="513.3333333333333" cy="306.6196683920766" r="4" fill="#10b981"/>
  <circle cx="626.6666666666666" cy="305.867477777829" r="4" fill="#10b981"/>
  <circle cx="740" cy="306.9728499905035" r="4" fill="#10b981"/>
  <polyline points="60,116.32919388325058 173.33333333333331,116.32919388325058 286.66666666666663,116.32919388325058 400,128.38276933685003 513.3333333333333,268.24973382584005 626.6666666666666,267.90579687491964 740,268.4304557452584" fill="none" stroke="#f59e0b" stroke-width="2"/>
  <circle cx="60" cy="116.32919388325058" r="4" fill="#f59e0b"/>
  <circle cx="173.33333333333331" cy="116.32919388325058" r="4" fill="#f59e0b"/>
  <circle cx="286.66666666666663" cy="116.32919388325058" r="4" fill="#f59e0b"/>
  <circle cx="400" cy="128.38276933685003" r="4" fill="#f59e0b"/>
  <circle cx="513.3333333333333" cy="268.24973382584005" r="4" fill="#f59e0b"/>
  <circle cx="626.6666666666666" cy="267.90579687491964" r="4" fill="#f59e0b"/>
  <circle cx="740" cy="268.4304557452584" r="4" fill="#f59e0b"/>
  <polyline points="60,324.90799484206 173.33333333333331,324.90799484206 286.66666666666663,324.90799484206 400,324.7317665201283 513.3333333333333,334.33547384104685 626.6666666666666,334.34129646333395 740,334.4027060831107" fill="none" stroke="#8b5cf6" stroke-width="2"/>
  <circle cx="60" cy="324.90799484206" r="4" fill="#8b5cf6"/>
  <circle cx="173.33333333333331" cy="324.90799484206" r="4" fill="#8b5cf6"/>
  <circle cx="286.66666666666663" cy="324.90799484206" r="4" fill="#8b5cf6"/>
  <circle cx="400" cy="324.7317665201283" r="4" fill="#8b5cf6"/>
  <circle cx="513.3333333333333" cy="334.33547384104685" r="4" fill="#8b5cf6"/>
  <circle cx="626.6666666666666" cy="334.34129646333395" r="4" fill="#8b5cf6"/>
  <circle cx="740" cy="334.4027060831107" r="4" fill="#8b5cf6"/>
  <polyline points="400,94.95168280075296 513.3333333333333,251.8531896636103 626.6666666666666,255.7246013195779 740,253.77643858481537" fill="none" stroke="#ec4899" stroke-width="2"/>
  <circle cx="400" cy="94.95168280075296" r="4" fill="#ec4899"/>
  <circle cx="513.3333333333333" cy="251.8531896636103" r="4" fill="#ec4899"/>
  <circle cx="626.6666666666666" cy="255.7246013195779" r="4" fill="#ec4899"/>
  <circle cx="740" cy="253.77643858481537" r="4" fill="#ec4899"/>
  <rect x="650" y="42" width="12" height="12" fill="#3b82f6"/>
  <text x="668" y="53" font-size="12" fill="#374151">Immer</text>
  <rect x="650" y="62" width="12" height="12" fill="#ef4444"/>
  <text x="668" y="73" font-size="12" fill="#374151">Mutative</text>
  <rect x="650" y="82" width="12" height="12" fill="#10b981"/>
  <text x="668" y="93" font-size="12" fill="#374151">Immutable.js</text>
  <rect x="650" y="102" width="12" height="12" fill="#f59e0b"/>
  <text x="668" y="113" font-size="12" fill="#374151">Immutability Helper</text>
  <rect x="650" y="122" width="12" height="12" fill="#8b5cf6"/>
  <text x="668" y="133" font-size="12" fill="#374151">Seamless Immutable</text>
  <rect x="650" y="142" width="12" height="12" fill="#ec4899"/>
  <text x="668" y="153" font-size="12" fill="#374151">Craft</text>
</svg>