<svg width="800" height="400" xmlns="http://www.w3.org/2000/svg">
  <!-- Background -->
  <rect width="800" height="400" fill="white"/>

  <!-- Title -->
  <text x="400" y="30" text-anchor="middle" font-size="18" font-weight="bold" fill="#1f2937">
    Array Push - Performance Trend
  </text>

  <!-- Grid lines -->
  <line x1="60" y1="60" x2="740" y2="60" stroke="#e5e7eb" stroke-width="1"/>
  <text x="50" y="65" text-anchor="end" font-size="12" fill="#6b7280">
    9.1M
  </text>
  <line x1="60" y1="116" x2="740" y2="116" stroke="#e5e7eb" stroke-width="1"/>
  <text x="50" y="121" text-anchor="end" font-size="12" fill="#6b7280">
    7.2M
  </text>
  <line x1="60" y1="172" x2="740" y2="172" stroke="#e5e7eb" stroke-width="1"/>
  <text x="50" y="177" text-anchor="end" font-size="12" fill="#6b7280">
    5.4M
  </text>
  <line x1="60" y1="228" x2="740" y2="228" stroke="#e5e7eb" stroke-width="1"/>
  <text x="50" y="233" text-anchor="end" font-size="12" fill="#6b7280">
    3.6M
  </text>
  <line x1="60" y1="284" x2="740" y2="284" stroke="#e5e7eb" stroke-width="1"/>
  <text x="50" y="289" text-anchor="end" font-size="12" fill="#6b7280">
    1.8M
  </text>
  <line x1="60" y1="340" x2="740" y2="340" stroke="#e5e7eb" stroke-width="1"/>
  <text x="50" y="345" text-anchor="end" font-size="12" fill="#6b7280">
    0
  </text>
  <text x="60" y="365" text-anchor="middle" font-size="10" fill="#6b7280" transform="rotate(-45, 60, 365)">
    11-03
  </text>
  <text x="173.33333333333331" y="365" text-anchor="middle" font-size="10" fill="#6b7280" transform="rotate(-45, 173.33333333333331, 365)">
    11-04
  </text>
  <text x="286.66666666666663" y="365" text-anchor="middle" font-size="10" fill="#6b7280" transform="rotate(-45, 286.66666666666663, 365)">
    11-05
  </text>
  <text x="400" y="365" text-anchor="middle" font-size="10" fill="#6b7280" transform="rotate(-45, 400, 365)">
    11-06
  </text>
  <text x="513.3333333333333" y="365" text-anchor="middle" font-size="10" fill="#6b7280" transform="rotate(-45, 513.3333333333333, 365)">
    11-07
  </text>
  <text x="626.6666666666666" y="365" text-anchor="middle" font-size="10" fill="#6b7280" transform="rotate(-45, 626.6666666666666, 365)">
    11-08
  </text>
  <text x="740" y="365" text-anchor="middle" font-size="10" fill="#6b7280" transform="rotate(-45, 740, 365)">
    11-09
  </text>
  <polyline points="60,310.47936576478185 173.33333333333331,310.47936576478185 286.66666666666663,310.47936576478185 400,311.06937196243456 513.3333333333333,331.2563983504398 626.6666666666666,331.18388162423844 740,331.297751425725" fill="none" stroke="#3b82f6" stroke-width="2"/>
  <circle cx="60" cy="310.47936576478185" r="4" fill="#3b82f6"/>
  <circle cx="173.33333333333331" cy="310.47936576478185" r="4" fill="#3b82f6"/>
  <circle cx="286.66666666666663" cy="310.47936576478185" r="4" fill="#3b82f6"/>
  <circle cx="400" cy="311.06937196243456" r="4" fill="#3b82f6"/>
  <circle cx="513.3333333333333" cy="331.2563983504398" r="4" fill="#3b82f6"/>
  <circle cx="626.6666666666666" cy="331.18388162423844" r="4" fill="#3b82f6"/>
  <circle cx="740" cy="331.297751425725" r="4" fill="#3b82f6"/>
  <polyline points="60,297.50833311171647 173.33333333333331,297.50833311171647 286.66666666666663,297.50833311171647 400,298.50036029726016 513.3333333333333,326.9240668228265 626.6666666666666,326.79186556168014 740,327.10514814401006" fill="none" stroke="#ef4444" stroke-width="2"/>
  <circle cx="60" cy="297.50833311171647" r="4" fill="#ef4444"/>
  <circle cx="173.33333333333331" cy="297.50833311171647" r="4" fill="#ef4444"/>
  <circle cx="286.66666666666663" cy="297.50833311171647" r="4" fill="#ef4444"/>
  <circle cx="400" cy="298.50036029726016" r="4" fill="#ef4444"/>
  <circle cx="513.3333333333333" cy="326.9240668228265" r="4" fill="#ef4444"/>
  <circle cx="626.6666666666666" cy="326.79186556168014" r="4" fill="#ef4444"/>
  <circle cx="740" cy="327.10514814401006" r="4" fill="#ef4444"/>
  <polyline points="60,85.45454545454547 173.33333333333331,85.45454545454547 286.66666666666663,85.45454545454547 400,177.9410518765961 513.3333333333333,283.8299954463889 626.6666666666666,286.04185879754783 740,284.2097984672531" fill="none" stroke="#10b981" stroke-width="2"/>
  <circle cx="60" cy="85.45454545454547" r="4" fill="#10b981"/>
  <circle cx="173.33333333333331" cy="85.45454545454547" r="4" fill="#10b981"/>
  <circle cx="286.66666666666663" cy="85.45454545454547" r="4" fill="#10b981"/>
  <circle cx="400" cy="177.9410518765961" r="4" fill="#10b981"/>
  <circle cx="513.3333333333333" cy="283.8299954463889" r="4" fill="#10b981"/>
  <circle cx="626.6666666666666" cy="286.04185879754783" r="4" fill="#10b981"/>
  <circle cx="740" cy="284.2097984672531" r="4" fill="#10b981"/>
  <polyline points="60,191.63087532455435 173.33333333333331,191.63087532455435 286.66666666666663,191.63087532455435 400,194.5139018555865 513.3333333333333,297.33329222323437 626.6666666666666,296.6521617738647 740,296.76445213479525" fill="none" stroke="#f59e0b" stroke-width="2"/>
  <circle cx="60" cy="191.63087532455435" r="4" fill="#f59e0b"/>
  <circle cx="173.33333333333331" cy="191.63087532455435" r="4" fill="#f59e0b"/>
  <circle cx="286.66666666666663" cy="191.63087532455435" r="4" fill="#f59e0b"/>
  <circle cx="400" cy="194.5139018555865" r="4" fill="#f59e0b"/>
  <circle cx="513.3333333333333" cy="297.33329222323437" r="4" fill="#f59e0b"/>
  <circle cx="626.6666666666666" cy="296.6521617738647" r="4" fill="#f59e0b"/>
  <circle cx="740" cy="296.76445213479525" r="4" fill="#f59e0b"/>
  <polyline points="60,334.7432090035185 173.33333333333331,334.7432090035185 286.66666666666663,334.7432090035185 400,334.7981230820241 513.3333333333333,338.12372847099726 626.6666666666666,338.07544069171666 740,338.1125073251607" fill="none" stroke="#8b5cf6" stroke-width="2"/>
  <circle cx="60" cy="334.7432090035185" r="4" fill="#8b5cf6"/>
  <circle cx="173.33333333333331" cy="334.7432090035185" r="4" fill="#8b5cf6"/>
  <circle cx="286.66666666666663" cy="334.7432090035185" r="4" fill="#8b5cf6"/>
  <circle cx="400" cy="334.7981230820241" r="4" fill="#8b5cf6"/>
  <circle cx="513.3333333333333" cy="338.12372847099726" r="4" fill="#8b5cf6"/>
  <circle cx="626.6666666666666" cy="338.07544069171666" r="4" fill="#8b5cf6"/>
  <circle cx="740" cy="338.1125073251607" r="4" fill="#8b5cf6"/>
  <polyline points="400,290.51339251914726 513.3333333333333,324.4862881284875 626.6666666666666,324.3048370109491 740,324.1155273250779" fill="none" stroke="#ec4899" stroke-width="2"/>
  <circle cx="400" cy="290.51339251914726" r="4" fill="#ec4899"/>
  <circle cx="513.3333333333333" cy="324.4862881284875" r="4" fill="#ec4899"/>
  <circle cx="626.6666666666666" cy="324.3048370109491" r="4" fill="#ec4899"/>
  <circle cx="740" cy="324.1155273250779" r="4" fill="#ec4899"/>
  <rect x="650" y="42" width="12" height="12" fill="#3b82f6"/>
  <text x="668" y="53" font-size="12" fill="#374151">Immer</text>
  <rect x="650" y="62" width="12" height="12" fill="#ef4444"/>
  <text x="668" y="73" font-size="12" fill="#374151">Mutative</text>
  <rect x="650" y="82" width="12" height="12" fill="#10b981"/>
  <text x="668" y="93" font-size="12" fill="#374151">Immutable.js</text>
  <rect x="650" y="102" width="12" height="12" fill="#f59e0b"/>
  <text x="668" y="113" font-size="12" fill="#374151">Immutability Helper</text>
  <rect x="650" y="122" width="12" height="12" fill="#8b5cf6"/>
  <text x="668" y="133" font-size="12" fill="#374151">Seamless Immutable</text>
  <rect x="650" y="142" width="12" height="12" fill="#ec4899"/>
  <text x="668" y="153" font-size="12" fill="#374151">Craft</text>
</svg>