<svg width="800" height="400" xmlns="http://www.w3.org/2000/svg">
  <!-- Background -->
  <rect width="800" height="400" fill="white"/>

  <!-- Title -->
  <text x="400" y="30" text-anchor="middle" font-size="18" font-weight="bold" fill="#1f2937">
    Array Update - Performance Trend
  </text>

  <!-- Grid lines -->
  <line x1="60" y1="60" x2="740" y2="60" stroke="#e5e7eb" stroke-width="1"/>
  <text x="50" y="65" text-anchor="end" font-size="12" fill="#6b7280">
    1.6M
  </text>
  <line x1="60" y1="116" x2="740" y2="116" stroke="#e5e7eb" stroke-width="1"/>
  <text x="50" y="121" text-anchor="end" font-size="12" fill="#6b7280">
    1.2M
  </text>
  <line x1="60" y1="172" x2="740" y2="172" stroke="#e5e7eb" stroke-width="1"/>
  <text x="50" y="177" text-anchor="end" font-size="12" fill="#6b7280">
    935K
  </text>
  <line x1="60" y1="228" x2="740" y2="228" stroke="#e5e7eb" stroke-width="1"/>
  <text x="50" y="233" text-anchor="end" font-size="12" fill="#6b7280">
    623K
  </text>
  <line x1="60" y1="284" x2="740" y2="284" stroke="#e5e7eb" stroke-width="1"/>
  <text x="50" y="289" text-anchor="end" font-size="12" fill="#6b7280">
    312K
  </text>
  <line x1="60" y1="340" x2="740" y2="340" stroke="#e5e7eb" stroke-width="1"/>
  <text x="50" y="345" text-anchor="end" font-size="12" fill="#6b7280">
    0
  </text>
  <text x="60" y="365" text-anchor="middle" font-size="10" fill="#6b7280" transform="rotate(-45, 60, 365)">
    11-03
  </text>
  <text x="145" y="365" text-anchor="middle" font-size="10" fill="#6b7280" transform="rotate(-45, 145, 365)">
    11-04
  </text>
  <text x="230" y="365" text-anchor="middle" font-size="10" fill="#6b7280" transform="rotate(-45, 230, 365)">
    11-05
  </text>
  <text x="315" y="365" text-anchor="middle" font-size="10" fill="#6b7280" transform="rotate(-45, 315, 365)">
    11-06
  </text>
  <text x="400" y="365" text-anchor="middle" font-size="10" fill="#6b7280" transform="rotate(-45, 400, 365)">
    11-07
  </text>
  <text x="485" y="365" text-anchor="middle" font-size="10" fill="#6b7280" transform="rotate(-45, 485, 365)">
    11-08
  </text>
  <text x="570" y="365" text-anchor="middle" font-size="10" fill="#6b7280" transform="rotate(-45, 570, 365)">
    11-09
  </text>
  <text x="655" y="365" text-anchor="middle" font-size="10" fill="#6b7280" transform="rotate(-45, 655, 365)">
    11-10
  </text>
  <text x="740" y="365" text-anchor="middle" font-size="10" fill="#6b7280" transform="rotate(-45, 740, 365)">
    11-11
  </text>
  <polyline points="60,178.94185730784588 145,178.94185730784588 230,178.94185730784588 315,173.41982733178938 400,288.53556982656835 485,289.0746350589498 570,287.83757121045295 655,291.6471578744428 740,288.95769894179864" fill="none" stroke="#3b82f6" stroke-width="2"/>
  <circle cx="60" cy="178.94185730784588" r="4" fill="#3b82f6"/>
  <circle cx="145" cy="178.94185730784588" r="4" fill="#3b82f6"/>
  <circle cx="230" cy="178.94185730784588" r="4" fill="#3b82f6"/>
  <circle cx="315" cy="173.41982733178938" r="4" fill="#3b82f6"/>
  <circle cx="400" cy="288.53556982656835" r="4" fill="#3b82f6"/>
  <circle cx="485" cy="289.0746350589498" r="4" fill="#3b82f6"/>
  <circle cx="570" cy="287.83757121045295" r="4" fill="#3b82f6"/>
  <circle cx="655" cy="291.6471578744428" r="4" fill="#3b82f6"/>
  <circle cx="740" cy="288.95769894179864" r="4" fill="#3b82f6"/>
  <polyline points="60,85.4545454545455 145,85.4545454545455 230,85.4545454545455 315,105.17932438504263 400,257.9316227446265 485,258.9402832055557 570,257.50391947051 655,265.8501607686959 740,258.056601082338" fill="none" stroke="#ef4444" stroke-width="2"/>
  <circle cx="60" cy="85.4545454545455" r="4" fill="#ef4444"/>
  <circle cx="145" cy="85.4545454545455" r="4" fill="#ef4444"/>
  <circle cx="230" cy="85.4545454545455" r="4" fill="#ef4444"/>
  <circle cx="315" cy="105.17932438504263" r="4" fill="#ef4444"/>
  <circle cx="400" cy="257.9316227446265" r="4" fill="#ef4444"/>
  <circle cx="485" cy="258.9402832055557" r="4" fill="#ef4444"/>
  <circle cx="570" cy="257.50391947051" r="4" fill="#ef4444"/>
  <circle cx="655" cy="265.8501607686959" r="4" fill="#ef4444"/>
  <circle cx="740" cy="258.056601082338" r="4" fill="#ef4444"/>
  <polyline points="60,239.831524800554 145,239.831524800554 230,239.831524800554 315,248.11398331999183 400,306.6196683920766 485,305.867477777829 570,305.9903330187639 655,310.5476600659077 740,306.0064310016107" fill="none" stroke="#10b981" stroke-width="2"/>
  <circle cx="60" cy="239.831524800554" r="4" fill="#10b981"/>
  <circle cx="145" cy="239.831524800554" r="4" fill="#10b981"/>
  <circle cx="230" cy="239.831524800554" r="4" fill="#10b981"/>
  <circle cx="315" cy="248.11398331999183" r="4" fill="#10b981"/>
  <circle cx="400" cy="306.6196683920766" r="4" fill="#10b981"/>
  <circle cx="485" cy="305.867477777829" r="4" fill="#10b981"/>
  <circle cx="570" cy="305.9903330187639" r="4" fill="#10b981"/>
  <circle cx="655" cy="310.5476600659077" r="4" fill="#10b981"/>
  <circle cx="740" cy="306.0064310016107" r="4" fill="#10b981"/>
  <polyline points="60,116.32919388325058 145,116.32919388325058 230,116.32919388325058 315,128.38276933685003 400,268.24973382584005 485,267.90579687491964 570,268.94440378148477 655,276.8244621882541 740,268.0625366609091" fill="none" stroke="#f59e0b" stroke-width="2"/>
  <circle cx="60" cy="116.32919388325058" r="4" fill="#f59e0b"/>
  <circle cx="145" cy="116.32919388325058" r="4" fill="#f59e0b"/>
  <circle cx="230" cy="116.32919388325058" r="4" fill="#f59e0b"/>
  <circle cx="315" cy="128.38276933685003" r="4" fill="#f59e0b"/>
  <circle cx="400" cy="268.24973382584005" r="4" fill="#f59e0b"/>
  <circle cx="485" cy="267.90579687491964" r="4" fill="#f59e0b"/>
  <circle cx="570" cy="268.94440378148477" r="4" fill="#f59e0b"/>
  <circle cx="655" cy="276.8244621882541" r="4" fill="#f59e0b"/>
  <circle cx="740" cy="268.0625366609091" r="4" fill="#f59e0b"/>
  <polyline points="60,324.90799484206 145,324.90799484206 230,324.90799484206 315,324.7317665201283 400,334.33547384104685 485,334.34129646333395 570,334.2807962608466 655,334.39379297306607 740,334.37803720049226" fill="none" stroke="#8b5cf6" stroke-width="2"/>
  <circle cx="60" cy="324.90799484206" r="4" fill="#8b5cf6"/>
  <circle cx="145" cy="324.90799484206" r="4" fill="#8b5cf6"/>
  <circle cx="230" cy="324.90799484206" r="4" fill="#8b5cf6"/>
  <circle cx="315" cy="324.7317665201283" r="4" fill="#8b5cf6"/>
  <circle cx="400" cy="334.33547384104685" r="4" fill="#8b5cf6"/>
  <circle cx="485" cy="334.34129646333395" r="4" fill="#8b5cf6"/>
  <circle cx="570" cy="334.2807962608466" r="4" fill="#8b5cf6"/>
  <circle cx="655" cy="334.39379297306607" r="4" fill="#8b5cf6"/>
  <circle cx="740" cy="334.37803720049226" r="4" fill="#8b5cf6"/>
  <polyline points="315,94.95168280075296 400,251.8531896636103 485,255.7246013195779 570,252.06584878468215 655,259.94659941017454 740,254.58872672838538" fill="none" stroke="#ec4899" stroke-width="2"/>
  <circle cx="315" cy="94.95168280075296" r="4" fill="#ec4899"/>
  <circle cx="400" cy="251.8531896636103" r="4" fill="#ec4899"/>
  <circle cx="485" cy="255.7246013195779" r="4" fill="#ec4899"/>
  <circle cx="570" cy="252.06584878468215" r="4" fill="#ec4899"/>
  <circle cx="655" cy="259.94659941017454" r="4" fill="#ec4899"/>
  <circle cx="740" cy="254.58872672838538" r="4" fill="#ec4899"/>
  <rect x="650" y="42" width="12" height="12" fill="#3b82f6"/>
  <text x="668" y="53" font-size="12" fill="#374151">Immer</text>
  <rect x="650" y="62" width="12" height="12" fill="#ef4444"/>
  <text x="668" y="73" font-size="12" fill="#374151">Mutative</text>
  <rect x="650" y="82" width="12" height="12" fill="#10b981"/>
  <text x="668" y="93" font-size="12" fill="#374151">Immutable.js</text>
  <rect x="650" y="102" width="12" height="12" fill="#f59e0b"/>
  <text x="668" y="113" font-size="12" fill="#374151">Immutability Helper</text>
  <rect x="650" y="122" width="12" height="12" fill="#8b5cf6"/>
  <text x="668" y="133" font-size="12" fill="#374151">Seamless Immutable</text>
  <rect x="650" y="142" width="12" height="12" fill="#ec4899"/>
  <text x="668" y="153" font-size="12" fill="#374151">Craft</text>
</svg>