<svg width="800" height="400" xmlns="http://www.w3.org/2000/svg">
  <!-- Background -->
  <rect width="800" height="400" fill="white"/>

  <!-- Title -->
  <text x="400" y="30" text-anchor="middle" font-size="18" font-weight="bold" fill="#1f2937">
    Array Push - Performance Trend
  </text>

  <!-- Grid lines -->
  <line x1="60" y1="60" x2="740" y2="60" stroke="#e5e7eb" stroke-width="1"/>
  <text x="50" y="65" text-anchor="end" font-size="12" fill="#6b7280">
    9.1M
  </text>
  <line x1="60" y1="116" x2="740" y2="116" stroke="#e5e7eb" stroke-width="1"/>
  <text x="50" y="121" text-anchor="end" font-size="12" fill="#6b7280">
    7.2M
  </text>
  <line x1="60" y1="172" x2="740" y2="172" stroke="#e5e7eb" stroke-width="1"/>
  <text x="50" y="177" text-anchor="end" font-size="12" fill="#6b7280">
    5.4M
  </text>
  <line x1="60" y1="228" x2="740" y2="228" stroke="#e5e7eb" stroke-width="1"/>
  <text x="50" y="233" text-anchor="end" font-size="12" fill="#6b7280">
    3.6M
  </text>
  <line x1="60" y1="284" x2="740" y2="284" stroke="#e5e7eb" stroke-width="1"/>
  <text x="50" y="289" text-anchor="end" font-size="12" fill="#6b7280">
    1.8M
  </text>
  <line x1="60" y1="340" x2="740" y2="340" stroke="#e5e7eb" stroke-width="1"/>
  <text x="50" y="345" text-anchor="end" font-size="12" fill="#6b7280">
    0
  </text>
  <text x="60" y="365" text-anchor="middle" font-size="10" fill="#6b7280" transform="rotate(-45, 60, 365)">
    11-03
  </text>
  <text x="145" y="365" text-anchor="middle" font-size="10" fill="#6b7280" transform="rotate(-45, 145, 365)">
    11-04
  </text>
  <text x="230" y="365" text-anchor="middle" font-size="10" fill="#6b7280" transform="rotate(-45, 230, 365)">
    11-05
  </text>
  <text x="315" y="365" text-anchor="middle" font-size="10" fill="#6b7280" transform="rotate(-45, 315, 365)">
    11-06
  </text>
  <text x="400" y="365" text-anchor="middle" font-size="10" fill="#6b7280" transform="rotate(-45, 400, 365)">
    11-07
  </text>
  <text x="485" y="365" text-anchor="middle" font-size="10" fill="#6b7280" transform="rotate(-45, 485, 365)">
    11-08
  </text>
  <text x="570" y="365" text-anchor="middle" font-size="10" fill="#6b7280" transform="rotate(-45, 570, 365)">
    11-09
  </text>
  <text x="655" y="365" text-anchor="middle" font-size="10" fill="#6b7280" transform="rotate(-45, 655, 365)">
    11-10
  </text>
  <text x="740" y="365" text-anchor="middle" font-size="10" fill="#6b7280" transform="rotate(-45, 740, 365)">
    11-11
  </text>
  <polyline points="60,310.47936576478185 145,310.47936576478185 230,310.47936576478185 315,311.06937196243456 400,331.2563983504398 485,331.18388162423844 570,331.1611627326006 655,332.0260830942923 740,331.35251864906127" fill="none" stroke="#3b82f6" stroke-width="2"/>
  <circle cx="60" cy="310.47936576478185" r="4" fill="#3b82f6"/>
  <circle cx="145" cy="310.47936576478185" r="4" fill="#3b82f6"/>
  <circle cx="230" cy="310.47936576478185" r="4" fill="#3b82f6"/>
  <circle cx="315" cy="311.06937196243456" r="4" fill="#3b82f6"/>
  <circle cx="400" cy="331.2563983504398" r="4" fill="#3b82f6"/>
  <circle cx="485" cy="331.18388162423844" r="4" fill="#3b82f6"/>
  <circle cx="570" cy="331.1611627326006" r="4" fill="#3b82f6"/>
  <circle cx="655" cy="332.0260830942923" r="4" fill="#3b82f6"/>
  <circle cx="740" cy="331.35251864906127" r="4" fill="#3b82f6"/>
  <polyline points="60,297.50833311171647 145,297.50833311171647 230,297.50833311171647 315,298.50036029726016 400,326.9240668228265 485,326.79186556168014 570,326.94712471626593 655,328.20623664299336 740,326.74709095063594" fill="none" stroke="#ef4444" stroke-width="2"/>
  <circle cx="60" cy="297.50833311171647" r="4" fill="#ef4444"/>
  <circle cx="145" cy="297.50833311171647" r="4" fill="#ef4444"/>
  <circle cx="230" cy="297.50833311171647" r="4" fill="#ef4444"/>
  <circle cx="315" cy="298.50036029726016" r="4" fill="#ef4444"/>
  <circle cx="400" cy="326.9240668228265" r="4" fill="#ef4444"/>
  <circle cx="485" cy="326.79186556168014" r="4" fill="#ef4444"/>
  <circle cx="570" cy="326.94712471626593" r="4" fill="#ef4444"/>
  <circle cx="655" cy="328.20623664299336" r="4" fill="#ef4444"/>
  <circle cx="740" cy="326.74709095063594" r="4" fill="#ef4444"/>
  <polyline points="60,85.45454545454547 145,85.45454545454547 230,85.45454545454547 315,177.9410518765961 400,283.8299954463889 485,286.04185879754783 570,282.41330327462293 655,291.67853009323187 740,287.31406161687664" fill="none" stroke="#10b981" stroke-width="2"/>
  <circle cx="60" cy="85.45454545454547" r="4" fill="#10b981"/>
  <circle cx="145" cy="85.45454545454547" r="4" fill="#10b981"/>
  <circle cx="230" cy="85.45454545454547" r="4" fill="#10b981"/>
  <circle cx="315" cy="177.9410518765961" r="4" fill="#10b981"/>
  <circle cx="400" cy="283.8299954463889" r="4" fill="#10b981"/>
  <circle cx="485" cy="286.04185879754783" r="4" fill="#10b981"/>
  <circle cx="570" cy="282.41330327462293" r="4" fill="#10b981"/>
  <circle cx="655" cy="291.67853009323187" r="4" fill="#10b981"/>
  <circle cx="740" cy="287.31406161687664" r="4" fill="#10b981"/>
  <polyline points="60,191.63087532455435 145,191.63087532455435 230,191.63087532455435 315,194.5139018555865 400,297.33329222323437 485,296.6521617738647 570,296.96342501988147 655,299.8205627147941 740,295.58996337734004" fill="none" stroke="#f59e0b" stroke-width="2"/>
  <circle cx="60" cy="191.63087532455435" r="4" fill="#f59e0b"/>
  <circle cx="145" cy="191.63087532455435" r="4" fill="#f59e0b"/>
  <circle cx="230" cy="191.63087532455435" r="4" fill="#f59e0b"/>
  <circle cx="315" cy="194.5139018555865" r="4" fill="#f59e0b"/>
  <circle cx="400" cy="297.33329222323437" r="4" fill="#f59e0b"/>
  <circle cx="485" cy="296.6521617738647" r="4" fill="#f59e0b"/>
  <circle cx="570" cy="296.96342501988147" r="4" fill="#f59e0b"/>
  <circle cx="655" cy="299.8205627147941" r="4" fill="#f59e0b"/>
  <circle cx="740" cy="295.58996337734004" r="4" fill="#f59e0b"/>
  <polyline points="60,334.7432090035185 145,334.7432090035185 230,334.7432090035185 315,334.7981230820241 400,338.12372847099726 485,338.07544069171666 570,338.0844932618913 655,338.12855809163057 740,338.08819820507097" fill="none" stroke="#8b5cf6" stroke-width="2"/>
  <circle cx="60" cy="334.7432090035185" r="4" fill="#8b5cf6"/>
  <circle cx="145" cy="334.7432090035185" r="4" fill="#8b5cf6"/>
  <circle cx="230" cy="334.7432090035185" r="4" fill="#8b5cf6"/>
  <circle cx="315" cy="334.7981230820241" r="4" fill="#8b5cf6"/>
  <circle cx="400" cy="338.12372847099726" r="4" fill="#8b5cf6"/>
  <circle cx="485" cy="338.07544069171666" r="4" fill="#8b5cf6"/>
  <circle cx="570" cy="338.0844932618913" r="4" fill="#8b5cf6"/>
  <circle cx="655" cy="338.12855809163057" r="4" fill="#8b5cf6"/>
  <circle cx="740" cy="338.08819820507097" r="4" fill="#8b5cf6"/>
  <polyline points="315,290.51339251914726 400,324.4862881284875 485,324.3048370109491 570,324.65445541317064 655,326.7202272468794 740,324.3347019795892" fill="none" stroke="#ec4899" stroke-width="2"/>
  <circle cx="315" cy="290.51339251914726" r="4" fill="#ec4899"/>
  <circle cx="400" cy="324.4862881284875" r="4" fill="#ec4899"/>
  <circle cx="485" cy="324.3048370109491" r="4" fill="#ec4899"/>
  <circle cx="570" cy="324.65445541317064" r="4" fill="#ec4899"/>
  <circle cx="655" cy="326.7202272468794" r="4" fill="#ec4899"/>
  <circle cx="740" cy="324.3347019795892" r="4" fill="#ec4899"/>
  <rect x="650" y="42" width="12" height="12" fill="#3b82f6"/>
  <text x="668" y="53" font-size="12" fill="#374151">Immer</text>
  <rect x="650" y="62" width="12" height="12" fill="#ef4444"/>
  <text x="668" y="73" font-size="12" fill="#374151">Mutative</text>
  <rect x="650" y="82" width="12" height="12" fill="#10b981"/>
  <text x="668" y="93" font-size="12" fill="#374151">Immutable.js</text>
  <rect x="650" y="102" width="12" height="12" fill="#f59e0b"/>
  <text x="668" y="113" font-size="12" fill="#374151">Immutability Helper</text>
  <rect x="650" y="122" width="12" height="12" fill="#8b5cf6"/>
  <text x="668" y="133" font-size="12" fill="#374151">Seamless Immutable</text>
  <rect x="650" y="142" width="12" height="12" fill="#ec4899"/>
  <text x="668" y="153" font-size="12" fill="#374151">Craft</text>
</svg>