<svg width="800" height="400" xmlns="http://www.w3.org/2000/svg">
  <!-- Background -->
  <rect width="800" height="400" fill="white"/>

  <!-- Title -->
  <text x="400" y="30" text-anchor="middle" font-size="18" font-weight="bold" fill="#1f2937">
    Array Remove - Performance Trend
  </text>

  <!-- Grid lines -->
  <line x1="60" y1="60" x2="740" y2="60" stroke="#e5e7eb" stroke-width="1"/>
  <text x="50" y="65" text-anchor="end" font-size="12" fill="#6b7280">
    3.2M
  </text>
  <line x1="60" y1="116" x2="740" y2="116" stroke="#e5e7eb" stroke-width="1"/>
  <text x="50" y="121" text-anchor="end" font-size="12" fill="#6b7280">
    2.6M
  </text>
  <line x1="60" y1="172" x2="740" y2="172" stroke="#e5e7eb" stroke-width="1"/>
  <text x="50" y="177" text-anchor="end" font-size="12" fill="#6b7280">
    1.9M
  </text>
  <line x1="60" y1="228" x2="740" y2="228" stroke="#e5e7eb" stroke-width="1"/>
  <text x="50" y="233" text-anchor="end" font-size="12" fill="#6b7280">
    1.3M
  </text>
  <line x1="60" y1="284" x2="740" y2="284" stroke="#e5e7eb" stroke-width="1"/>
  <text x="50" y="289" text-anchor="end" font-size="12" fill="#6b7280">
    639K
  </text>
  <line x1="60" y1="340" x2="740" y2="340" stroke="#e5e7eb" stroke-width="1"/>
  <text x="50" y="345" text-anchor="end" font-size="12" fill="#6b7280">
    0
  </text>
  <text x="60" y="365" text-anchor="middle" font-size="10" fill="#6b7280" transform="rotate(-45, 60, 365)">
    11-03
  </text>
  <text x="173.33333333333331" y="365" text-anchor="middle" font-size="10" fill="#6b7280" transform="rotate(-45, 173.33333333333331, 365)">
    11-04
  </text>
  <text x="286.66666666666663" y="365" text-anchor="middle" font-size="10" fill="#6b7280" transform="rotate(-45, 286.66666666666663, 365)">
    11-05
  </text>
  <text x="400" y="365" text-anchor="middle" font-size="10" fill="#6b7280" transform="rotate(-45, 400, 365)">
    11-06
  </text>
  <text x="513.3333333333333" y="365" text-anchor="middle" font-size="10" fill="#6b7280" transform="rotate(-45, 513.3333333333333, 365)">
    11-07
  </text>
  <text x="626.6666666666666" y="365" text-anchor="middle" font-size="10" fill="#6b7280" transform="rotate(-45, 626.6666666666666, 365)">
    11-08
  </text>
  <text x="740" y="365" text-anchor="middle" font-size="10" fill="#6b7280" transform="rotate(-45, 740, 365)">
    11-09
  </text>
  <polyline points="60,301.67134149599593 173.33333333333331,301.67134149599593 286.66666666666663,301.67134149599593 400,301.4706593784686 513.3333333333333,327.60273213594326 626.6666666666666,327.6027619022026 740,327.96366320952853" fill="none" stroke="#3b82f6" stroke-width="2"/>
  <circle cx="60" cy="301.67134149599593" r="4" fill="#3b82f6"/>
  <circle cx="173.33333333333331" cy="301.67134149599593" r="4" fill="#3b82f6"/>
  <circle cx="286.66666666666663" cy="301.67134149599593" r="4" fill="#3b82f6"/>
  <circle cx="400" cy="301.4706593784686" r="4" fill="#3b82f6"/>
  <circle cx="513.3333333333333" cy="327.60273213594326" r="4" fill="#3b82f6"/>
  <circle cx="626.6666666666666" cy="327.6027619022026" r="4" fill="#3b82f6"/>
  <circle cx="740" cy="327.96366320952853" r="4" fill="#3b82f6"/>
  <polyline points="60,284.232165958752 173.33333333333331,284.232165958752 286.66666666666663,284.232165958752 400,282.54786586391276 513.3333333333333,320.679917799652 626.6666666666666,320.77972120537595 740,321.1054279505969" fill="none" stroke="#ef4444" stroke-width="2"/>
  <circle cx="60" cy="284.232165958752" r="4" fill="#ef4444"/>
  <circle cx="173.33333333333331" cy="284.232165958752" r="4" fill="#ef4444"/>
  <circle cx="286.66666666666663" cy="284.232165958752" r="4" fill="#ef4444"/>
  <circle cx="400" cy="282.54786586391276" r="4" fill="#ef4444"/>
  <circle cx="513.3333333333333" cy="320.679917799652" r="4" fill="#ef4444"/>
  <circle cx="626.6666666666666" cy="320.77972120537595" r="4" fill="#ef4444"/>
  <circle cx="740" cy="321.1054279505969" r="4" fill="#ef4444"/>
  <polyline points="60,85.45454545454547 173.33333333333331,85.45454545454547 286.66666666666663,85.45454545454547 400,137.07614102037115 513.3333333333333,267.7247884101681 626.6666666666666,268.6864367670561 740,267.18808898435367" fill="none" stroke="#10b981" stroke-width="2"/>
  <circle cx="60" cy="85.45454545454547" r="4" fill="#10b981"/>
  <circle cx="173.33333333333331" cy="85.45454545454547" r="4" fill="#10b981"/>
  <circle cx="286.66666666666663" cy="85.45454545454547" r="4" fill="#10b981"/>
  <circle cx="400" cy="137.07614102037115" r="4" fill="#10b981"/>
  <circle cx="513.3333333333333" cy="267.7247884101681" r="4" fill="#10b981"/>
  <circle cx="626.6666666666666" cy="268.6864367670561" r="4" fill="#10b981"/>
  <circle cx="740" cy="267.18808898435367" r="4" fill="#10b981"/>
  <polyline points="60,187.11653837917595 173.33333333333331,187.11653837917595 286.66666666666663,187.11653837917595 400,188.00935612204313 513.3333333333333,289.96305164874457 626.6666666666666,289.7663825158042 740,290.1527110938077" fill="none" stroke="#f59e0b" stroke-width="2"/>
  <circle cx="60" cy="187.11653837917595" r="4" fill="#f59e0b"/>
  <circle cx="173.33333333333331" cy="187.11653837917595" r="4" fill="#f59e0b"/>
  <circle cx="286.66666666666663" cy="187.11653837917595" r="4" fill="#f59e0b"/>
  <circle cx="400" cy="188.00935612204313" r="4" fill="#f59e0b"/>
  <circle cx="513.3333333333333" cy="289.96305164874457" r="4" fill="#f59e0b"/>
  <circle cx="626.6666666666666" cy="289.7663825158042" r="4" fill="#f59e0b"/>
  <circle cx="740" cy="290.1527110938077" r="4" fill="#f59e0b"/>
  <polyline points="60,325.1657208660117 173.33333333333331,325.1657208660117 286.66666666666663,325.1657208660117 400,325.06913608054 513.3333333333333,334.52411021495476 626.6666666666666,334.5263443371865 740,334.76798090897273" fill="none" stroke="#8b5cf6" stroke-width="2"/>
  <circle cx="60" cy="325.1657208660117" r="4" fill="#8b5cf6"/>
  <circle cx="173.33333333333331" cy="325.1657208660117" r="4" fill="#8b5cf6"/>
  <circle cx="286.66666666666663" cy="325.1657208660117" r="4" fill="#8b5cf6"/>
  <circle cx="400" cy="325.06913608054" r="4" fill="#8b5cf6"/>
  <circle cx="513.3333333333333" cy="334.52411021495476" r="4" fill="#8b5cf6"/>
  <circle cx="626.6666666666666" cy="334.5263443371865" r="4" fill="#8b5cf6"/>
  <circle cx="740" cy="334.76798090897273" r="4" fill="#8b5cf6"/>
  <polyline points="400,253.88612067577208 513.3333333333333,311.9821590853354 626.6666666666666,311.84668639601523 740,312.5739189598203" fill="none" stroke="#ec4899" stroke-width="2"/>
  <circle cx="400" cy="253.88612067577208" r="4" fill="#ec4899"/>
  <circle cx="513.3333333333333" cy="311.9821590853354" r="4" fill="#ec4899"/>
  <circle cx="626.6666666666666" cy="311.84668639601523" r="4" fill="#ec4899"/>
  <circle cx="740" cy="312.5739189598203" r="4" fill="#ec4899"/>
  <rect x="650" y="42" width="12" height="12" fill="#3b82f6"/>
  <text x="668" y="53" font-size="12" fill="#374151">Immer</text>
  <rect x="650" y="62" width="12" height="12" fill="#ef4444"/>
  <text x="668" y="73" font-size="12" fill="#374151">Mutative</text>
  <rect x="650" y="82" width="12" height="12" fill="#10b981"/>
  <text x="668" y="93" font-size="12" fill="#374151">Immutable.js</text>
  <rect x="650" y="102" width="12" height="12" fill="#f59e0b"/>
  <text x="668" y="113" font-size="12" fill="#374151">Immutability Helper</text>
  <rect x="650" y="122" width="12" height="12" fill="#8b5cf6"/>
  <text x="668" y="133" font-size="12" fill="#374151">Seamless Immutable</text>
  <rect x="650" y="142" width="12" height="12" fill="#ec4899"/>
  <text x="668" y="153" font-size="12" fill="#374151">Craft</text>
</svg>