<svg width="800" height="400" xmlns="http://www.w3.org/2000/svg">
  <!-- Background -->
  <rect width="800" height="400" fill="white"/>

  <!-- Title -->
  <text x="400" y="30" text-anchor="middle" font-size="18" font-weight="bold" fill="#1f2937">
    Array Push - Performance Trend
  </text>

  <!-- Grid lines -->
  <line x1="60" y1="60" x2="740" y2="60" stroke="#e5e7eb" stroke-width="1"/>
  <text x="50" y="65" text-anchor="end" font-size="12" fill="#6b7280">
    9.1M
  </text>
  <line x1="60" y1="116" x2="740" y2="116" stroke="#e5e7eb" stroke-width="1"/>
  <text x="50" y="121" text-anchor="end" font-size="12" fill="#6b7280">
    7.2M
  </text>
  <line x1="60" y1="172" x2="740" y2="172" stroke="#e5e7eb" stroke-width="1"/>
  <text x="50" y="177" text-anchor="end" font-size="12" fill="#6b7280">
    5.4M
  </text>
  <line x1="60" y1="228" x2="740" y2="228" stroke="#e5e7eb" stroke-width="1"/>
  <text x="50" y="233" text-anchor="end" font-size="12" fill="#6b7280">
    3.6M
  </text>
  <line x1="60" y1="284" x2="740" y2="284" stroke="#e5e7eb" stroke-width="1"/>
  <text x="50" y="289" text-anchor="end" font-size="12" fill="#6b7280">
    1.8M
  </text>
  <line x1="60" y1="340" x2="740" y2="340" stroke="#e5e7eb" stroke-width="1"/>
  <text x="50" y="345" text-anchor="end" font-size="12" fill="#6b7280">
    0
  </text>
  <text x="60" y="365" text-anchor="middle" font-size="10" fill="#6b7280" transform="rotate(-45, 60, 365)">
    11-03
  </text>
  <text x="157.14285714285714" y="365" text-anchor="middle" font-size="10" fill="#6b7280" transform="rotate(-45, 157.14285714285714, 365)">
    11-04
  </text>
  <text x="254.28571428571428" y="365" text-anchor="middle" font-size="10" fill="#6b7280" transform="rotate(-45, 254.28571428571428, 365)">
    11-05
  </text>
  <text x="351.42857142857144" y="365" text-anchor="middle" font-size="10" fill="#6b7280" transform="rotate(-45, 351.42857142857144, 365)">
    11-06
  </text>
  <text x="448.57142857142856" y="365" text-anchor="middle" font-size="10" fill="#6b7280" transform="rotate(-45, 448.57142857142856, 365)">
    11-07
  </text>
  <text x="545.7142857142857" y="365" text-anchor="middle" font-size="10" fill="#6b7280" transform="rotate(-45, 545.7142857142857, 365)">
    11-08
  </text>
  <text x="642.8571428571429" y="365" text-anchor="middle" font-size="10" fill="#6b7280" transform="rotate(-45, 642.8571428571429, 365)">
    11-09
  </text>
  <text x="740" y="365" text-anchor="middle" font-size="10" fill="#6b7280" transform="rotate(-45, 740, 365)">
    11-10
  </text>
  <polyline points="60,310.47936576478185 157.14285714285714,310.47936576478185 254.28571428571428,310.47936576478185 351.42857142857144,311.06937196243456 448.57142857142856,331.2563983504398 545.7142857142857,331.18388162423844 642.8571428571429,331.1611627326006 740,331.711189125655" fill="none" stroke="#3b82f6" stroke-width="2"/>
  <circle cx="60" cy="310.47936576478185" r="4" fill="#3b82f6"/>
  <circle cx="157.14285714285714" cy="310.47936576478185" r="4" fill="#3b82f6"/>
  <circle cx="254.28571428571428" cy="310.47936576478185" r="4" fill="#3b82f6"/>
  <circle cx="351.42857142857144" cy="311.06937196243456" r="4" fill="#3b82f6"/>
  <circle cx="448.57142857142856" cy="331.2563983504398" r="4" fill="#3b82f6"/>
  <circle cx="545.7142857142857" cy="331.18388162423844" r="4" fill="#3b82f6"/>
  <circle cx="642.8571428571429" cy="331.1611627326006" r="4" fill="#3b82f6"/>
  <circle cx="740" cy="331.711189125655" r="4" fill="#3b82f6"/>
  <polyline points="60,297.50833311171647 157.14285714285714,297.50833311171647 254.28571428571428,297.50833311171647 351.42857142857144,298.50036029726016 448.57142857142856,326.9240668228265 545.7142857142857,326.79186556168014 642.8571428571429,326.94712471626593 740,327.43983425523163" fill="none" stroke="#ef4444" stroke-width="2"/>
  <circle cx="60" cy="297.50833311171647" r="4" fill="#ef4444"/>
  <circle cx="157.14285714285714" cy="297.50833311171647" r="4" fill="#ef4444"/>
  <circle cx="254.28571428571428" cy="297.50833311171647" r="4" fill="#ef4444"/>
  <circle cx="351.42857142857144" cy="298.50036029726016" r="4" fill="#ef4444"/>
  <circle cx="448.57142857142856" cy="326.9240668228265" r="4" fill="#ef4444"/>
  <circle cx="545.7142857142857" cy="326.79186556168014" r="4" fill="#ef4444"/>
  <circle cx="642.8571428571429" cy="326.94712471626593" r="4" fill="#ef4444"/>
  <circle cx="740" cy="327.43983425523163" r="4" fill="#ef4444"/>
  <polyline points="60,85.45454545454547 157.14285714285714,85.45454545454547 254.28571428571428,85.45454545454547 351.42857142857144,177.9410518765961 448.57142857142856,283.8299954463889 545.7142857142857,286.04185879754783 642.8571428571429,282.41330327462293 740,286.99828033671906" fill="none" stroke="#10b981" stroke-width="2"/>
  <circle cx="60" cy="85.45454545454547" r="4" fill="#10b981"/>
  <circle cx="157.14285714285714" cy="85.45454545454547" r="4" fill="#10b981"/>
  <circle cx="254.28571428571428" cy="85.45454545454547" r="4" fill="#10b981"/>
  <circle cx="351.42857142857144" cy="177.9410518765961" r="4" fill="#10b981"/>
  <circle cx="448.57142857142856" cy="283.8299954463889" r="4" fill="#10b981"/>
  <circle cx="545.7142857142857" cy="286.04185879754783" r="4" fill="#10b981"/>
  <circle cx="642.8571428571429" cy="282.41330327462293" r="4" fill="#10b981"/>
  <circle cx="740" cy="286.99828033671906" r="4" fill="#10b981"/>
  <polyline points="60,191.63087532455435 157.14285714285714,191.63087532455435 254.28571428571428,191.63087532455435 351.42857142857144,194.5139018555865 448.57142857142856,297.33329222323437 545.7142857142857,296.6521617738647 642.8571428571429,296.96342501988147 740,296.7555720157139" fill="none" stroke="#f59e0b" stroke-width="2"/>
  <circle cx="60" cy="191.63087532455435" r="4" fill="#f59e0b"/>
  <circle cx="157.14285714285714" cy="191.63087532455435" r="4" fill="#f59e0b"/>
  <circle cx="254.28571428571428" cy="191.63087532455435" r="4" fill="#f59e0b"/>
  <circle cx="351.42857142857144" cy="194.5139018555865" r="4" fill="#f59e0b"/>
  <circle cx="448.57142857142856" cy="297.33329222323437" r="4" fill="#f59e0b"/>
  <circle cx="545.7142857142857" cy="296.6521617738647" r="4" fill="#f59e0b"/>
  <circle cx="642.8571428571429" cy="296.96342501988147" r="4" fill="#f59e0b"/>
  <circle cx="740" cy="296.7555720157139" r="4" fill="#f59e0b"/>
  <polyline points="60,334.7432090035185 157.14285714285714,334.7432090035185 254.28571428571428,334.7432090035185 351.42857142857144,334.7981230820241 448.57142857142856,338.12372847099726 545.7142857142857,338.07544069171666 642.8571428571429,338.0844932618913 740,338.10688426683635" fill="none" stroke="#8b5cf6" stroke-width="2"/>
  <circle cx="60" cy="334.7432090035185" r="4" fill="#8b5cf6"/>
  <circle cx="157.14285714285714" cy="334.7432090035185" r="4" fill="#8b5cf6"/>
  <circle cx="254.28571428571428" cy="334.7432090035185" r="4" fill="#8b5cf6"/>
  <circle cx="351.42857142857144" cy="334.7981230820241" r="4" fill="#8b5cf6"/>
  <circle cx="448.57142857142856" cy="338.12372847099726" r="4" fill="#8b5cf6"/>
  <circle cx="545.7142857142857" cy="338.07544069171666" r="4" fill="#8b5cf6"/>
  <circle cx="642.8571428571429" cy="338.0844932618913" r="4" fill="#8b5cf6"/>
  <circle cx="740" cy="338.10688426683635" r="4" fill="#8b5cf6"/>
  <polyline points="351.42857142857144,290.51339251914726 448.57142857142856,324.4862881284875 545.7142857142857,324.3048370109491 642.8571428571429,324.65445541317064 740,324.9322556365079" fill="none" stroke="#ec4899" stroke-width="2"/>
  <circle cx="351.42857142857144" cy="290.51339251914726" r="4" fill="#ec4899"/>
  <circle cx="448.57142857142856" cy="324.4862881284875" r="4" fill="#ec4899"/>
  <circle cx="545.7142857142857" cy="324.3048370109491" r="4" fill="#ec4899"/>
  <circle cx="642.8571428571429" cy="324.65445541317064" r="4" fill="#ec4899"/>
  <circle cx="740" cy="324.9322556365079" r="4" fill="#ec4899"/>
  <rect x="650" y="42" width="12" height="12" fill="#3b82f6"/>
  <text x="668" y="53" font-size="12" fill="#374151">Immer</text>
  <rect x="650" y="62" width="12" height="12" fill="#ef4444"/>
  <text x="668" y="73" font-size="12" fill="#374151">Mutative</text>
  <rect x="650" y="82" width="12" height="12" fill="#10b981"/>
  <text x="668" y="93" font-size="12" fill="#374151">Immutable.js</text>
  <rect x="650" y="102" width="12" height="12" fill="#f59e0b"/>
  <text x="668" y="113" font-size="12" fill="#374151">Immutability Helper</text>
  <rect x="650" y="122" width="12" height="12" fill="#8b5cf6"/>
  <text x="668" y="133" font-size="12" fill="#374151">Seamless Immutable</text>
  <rect x="650" y="142" width="12" height="12" fill="#ec4899"/>
  <text x="668" y="153" font-size="12" fill="#374151">Craft</text>
</svg>