<svg width="800" height="400" xmlns="http://www.w3.org/2000/svg">
  <!-- Background -->
  <rect width="800" height="400" fill="white"/>

  <!-- Title -->
  <text x="400" y="30" text-anchor="middle" font-size="18" font-weight="bold" fill="#1f2937">
    Array Remove - Performance Trend
  </text>

  <!-- Grid lines -->
  <line x1="60" y1="60" x2="740" y2="60" stroke="#e5e7eb" stroke-width="1"/>
  <text x="50" y="65" text-anchor="end" font-size="12" fill="#6b7280">
    3.2M
  </text>
  <line x1="60" y1="116" x2="740" y2="116" stroke="#e5e7eb" stroke-width="1"/>
  <text x="50" y="121" text-anchor="end" font-size="12" fill="#6b7280">
    2.6M
  </text>
  <line x1="60" y1="172" x2="740" y2="172" stroke="#e5e7eb" stroke-width="1"/>
  <text x="50" y="177" text-anchor="end" font-size="12" fill="#6b7280">
    1.9M
  </text>
  <line x1="60" y1="228" x2="740" y2="228" stroke="#e5e7eb" stroke-width="1"/>
  <text x="50" y="233" text-anchor="end" font-size="12" fill="#6b7280">
    1.3M
  </text>
  <line x1="60" y1="284" x2="740" y2="284" stroke="#e5e7eb" stroke-width="1"/>
  <text x="50" y="289" text-anchor="end" font-size="12" fill="#6b7280">
    639K
  </text>
  <line x1="60" y1="340" x2="740" y2="340" stroke="#e5e7eb" stroke-width="1"/>
  <text x="50" y="345" text-anchor="end" font-size="12" fill="#6b7280">
    0
  </text>
  <text x="60" y="365" text-anchor="middle" font-size="10" fill="#6b7280" transform="rotate(-45, 60, 365)">
    11-03
  </text>
  <text x="157.14285714285714" y="365" text-anchor="middle" font-size="10" fill="#6b7280" transform="rotate(-45, 157.14285714285714, 365)">
    11-04
  </text>
  <text x="254.28571428571428" y="365" text-anchor="middle" font-size="10" fill="#6b7280" transform="rotate(-45, 254.28571428571428, 365)">
    11-05
  </text>
  <text x="351.42857142857144" y="365" text-anchor="middle" font-size="10" fill="#6b7280" transform="rotate(-45, 351.42857142857144, 365)">
    11-06
  </text>
  <text x="448.57142857142856" y="365" text-anchor="middle" font-size="10" fill="#6b7280" transform="rotate(-45, 448.57142857142856, 365)">
    11-07
  </text>
  <text x="545.7142857142857" y="365" text-anchor="middle" font-size="10" fill="#6b7280" transform="rotate(-45, 545.7142857142857, 365)">
    11-08
  </text>
  <text x="642.8571428571429" y="365" text-anchor="middle" font-size="10" fill="#6b7280" transform="rotate(-45, 642.8571428571429, 365)">
    11-09
  </text>
  <text x="740" y="365" text-anchor="middle" font-size="10" fill="#6b7280" transform="rotate(-45, 740, 365)">
    11-10
  </text>
  <polyline points="60,301.67134149599593 157.14285714285714,301.67134149599593 254.28571428571428,301.67134149599593 351.42857142857144,301.4706593784686 448.57142857142856,327.60273213594326 545.7142857142857,327.6027619022026 642.8571428571429,327.56075625325735 740,327.6399008557722" fill="none" stroke="#3b82f6" stroke-width="2"/>
  <circle cx="60" cy="301.67134149599593" r="4" fill="#3b82f6"/>
  <circle cx="157.14285714285714" cy="301.67134149599593" r="4" fill="#3b82f6"/>
  <circle cx="254.28571428571428" cy="301.67134149599593" r="4" fill="#3b82f6"/>
  <circle cx="351.42857142857144" cy="301.4706593784686" r="4" fill="#3b82f6"/>
  <circle cx="448.57142857142856" cy="327.60273213594326" r="4" fill="#3b82f6"/>
  <circle cx="545.7142857142857" cy="327.6027619022026" r="4" fill="#3b82f6"/>
  <circle cx="642.8571428571429" cy="327.56075625325735" r="4" fill="#3b82f6"/>
  <circle cx="740" cy="327.6399008557722" r="4" fill="#3b82f6"/>
  <polyline points="60,284.232165958752 157.14285714285714,284.232165958752 254.28571428571428,284.232165958752 351.42857142857144,282.54786586391276 448.57142857142856,320.679917799652 545.7142857142857,320.77972120537595 642.8571428571429,321.1384019665755 740,320.99731473267775" fill="none" stroke="#ef4444" stroke-width="2"/>
  <circle cx="60" cy="284.232165958752" r="4" fill="#ef4444"/>
  <circle cx="157.14285714285714" cy="284.232165958752" r="4" fill="#ef4444"/>
  <circle cx="254.28571428571428" cy="284.232165958752" r="4" fill="#ef4444"/>
  <circle cx="351.42857142857144" cy="282.54786586391276" r="4" fill="#ef4444"/>
  <circle cx="448.57142857142856" cy="320.679917799652" r="4" fill="#ef4444"/>
  <circle cx="545.7142857142857" cy="320.77972120537595" r="4" fill="#ef4444"/>
  <circle cx="642.8571428571429" cy="321.1384019665755" r="4" fill="#ef4444"/>
  <circle cx="740" cy="320.99731473267775" r="4" fill="#ef4444"/>
  <polyline points="60,85.45454545454547 157.14285714285714,85.45454545454547 254.28571428571428,85.45454545454547 351.42857142857144,137.07614102037115 448.57142857142856,267.7247884101681 545.7142857142857,268.6864367670561 642.8571428571429,270.061022472741 740,267.52633453681284" fill="none" stroke="#10b981" stroke-width="2"/>
  <circle cx="60" cy="85.45454545454547" r="4" fill="#10b981"/>
  <circle cx="157.14285714285714" cy="85.45454545454547" r="4" fill="#10b981"/>
  <circle cx="254.28571428571428" cy="85.45454545454547" r="4" fill="#10b981"/>
  <circle cx="351.42857142857144" cy="137.07614102037115" r="4" fill="#10b981"/>
  <circle cx="448.57142857142856" cy="267.7247884101681" r="4" fill="#10b981"/>
  <circle cx="545.7142857142857" cy="268.6864367670561" r="4" fill="#10b981"/>
  <circle cx="642.8571428571429" cy="270.061022472741" r="4" fill="#10b981"/>
  <circle cx="740" cy="267.52633453681284" r="4" fill="#10b981"/>
  <polyline points="60,187.11653837917595 157.14285714285714,187.11653837917595 254.28571428571428,187.11653837917595 351.42857142857144,188.00935612204313 448.57142857142856,289.96305164874457 545.7142857142857,289.7663825158042 642.8571428571429,289.8339778100736 740,289.379224337767" fill="none" stroke="#f59e0b" stroke-width="2"/>
  <circle cx="60" cy="187.11653837917595" r="4" fill="#f59e0b"/>
  <circle cx="157.14285714285714" cy="187.11653837917595" r="4" fill="#f59e0b"/>
  <circle cx="254.28571428571428" cy="187.11653837917595" r="4" fill="#f59e0b"/>
  <circle cx="351.42857142857144" cy="188.00935612204313" r="4" fill="#f59e0b"/>
  <circle cx="448.57142857142856" cy="289.96305164874457" r="4" fill="#f59e0b"/>
  <circle cx="545.7142857142857" cy="289.7663825158042" r="4" fill="#f59e0b"/>
  <circle cx="642.8571428571429" cy="289.8339778100736" r="4" fill="#f59e0b"/>
  <circle cx="740" cy="289.379224337767" r="4" fill="#f59e0b"/>
  <polyline points="60,325.1657208660117 157.14285714285714,325.1657208660117 254.28571428571428,325.1657208660117 351.42857142857144,325.06913608054 448.57142857142856,334.52411021495476 545.7142857142857,334.5263443371865 642.8571428571429,334.55035566706107 740,334.662558301" fill="none" stroke="#8b5cf6" stroke-width="2"/>
  <circle cx="60" cy="325.1657208660117" r="4" fill="#8b5cf6"/>
  <circle cx="157.14285714285714" cy="325.1657208660117" r="4" fill="#8b5cf6"/>
  <circle cx="254.28571428571428" cy="325.1657208660117" r="4" fill="#8b5cf6"/>
  <circle cx="351.42857142857144" cy="325.06913608054" r="4" fill="#8b5cf6"/>
  <circle cx="448.57142857142856" cy="334.52411021495476" r="4" fill="#8b5cf6"/>
  <circle cx="545.7142857142857" cy="334.5263443371865" r="4" fill="#8b5cf6"/>
  <circle cx="642.8571428571429" cy="334.55035566706107" r="4" fill="#8b5cf6"/>
  <circle cx="740" cy="334.662558301" r="4" fill="#8b5cf6"/>
  <polyline points="351.42857142857144,253.88612067577208 448.57142857142856,311.9821590853354 545.7142857142857,311.84668639601523 642.8571428571429,312.31160406878917 740,312.13777259730915" fill="none" stroke="#ec4899" stroke-width="2"/>
  <circle cx="351.42857142857144" cy="253.88612067577208" r="4" fill="#ec4899"/>
  <circle cx="448.57142857142856" cy="311.9821590853354" r="4" fill="#ec4899"/>
  <circle cx="545.7142857142857" cy="311.84668639601523" r="4" fill="#ec4899"/>
  <circle cx="642.8571428571429" cy="312.31160406878917" r="4" fill="#ec4899"/>
  <circle cx="740" cy="312.13777259730915" r="4" fill="#ec4899"/>
  <rect x="650" y="42" width="12" height="12" fill="#3b82f6"/>
  <text x="668" y="53" font-size="12" fill="#374151">Immer</text>
  <rect x="650" y="62" width="12" height="12" fill="#ef4444"/>
  <text x="668" y="73" font-size="12" fill="#374151">Mutative</text>
  <rect x="650" y="82" width="12" height="12" fill="#10b981"/>
  <text x="668" y="93" font-size="12" fill="#374151">Immutable.js</text>
  <rect x="650" y="102" width="12" height="12" fill="#f59e0b"/>
  <text x="668" y="113" font-size="12" fill="#374151">Immutability Helper</text>
  <rect x="650" y="122" width="12" height="12" fill="#8b5cf6"/>
  <text x="668" y="133" font-size="12" fill="#374151">Seamless Immutable</text>
  <rect x="650" y="142" width="12" height="12" fill="#ec4899"/>
  <text x="668" y="153" font-size="12" fill="#374151">Craft</text>
</svg>