<svg width="800" height="400" xmlns="http://www.w3.org/2000/svg">
  <!-- Background -->
  <rect width="800" height="400" fill="white"/>

  <!-- Title -->
  <text x="400" y="30" text-anchor="middle" font-size="18" font-weight="bold" fill="#1f2937">
    Array Remove - Performance Trend
  </text>

  <!-- Grid lines -->
  <line x1="60" y1="60" x2="740" y2="60" stroke="#e5e7eb" stroke-width="1"/>
  <text x="50" y="65" text-anchor="end" font-size="12" fill="#6b7280">
    3.2M
  </text>
  <line x1="60" y1="116" x2="740" y2="116" stroke="#e5e7eb" stroke-width="1"/>
  <text x="50" y="121" text-anchor="end" font-size="12" fill="#6b7280">
    2.6M
  </text>
  <line x1="60" y1="172" x2="740" y2="172" stroke="#e5e7eb" stroke-width="1"/>
  <text x="50" y="177" text-anchor="end" font-size="12" fill="#6b7280">
    1.9M
  </text>
  <line x1="60" y1="228" x2="740" y2="228" stroke="#e5e7eb" stroke-width="1"/>
  <text x="50" y="233" text-anchor="end" font-size="12" fill="#6b7280">
    1.3M
  </text>
  <line x1="60" y1="284" x2="740" y2="284" stroke="#e5e7eb" stroke-width="1"/>
  <text x="50" y="289" text-anchor="end" font-size="12" fill="#6b7280">
    639K
  </text>
  <line x1="60" y1="340" x2="740" y2="340" stroke="#e5e7eb" stroke-width="1"/>
  <text x="50" y="345" text-anchor="end" font-size="12" fill="#6b7280">
    0
  </text>
  <text x="60" y="365" text-anchor="middle" font-size="10" fill="#6b7280" transform="rotate(-45, 60, 365)">
    11-03
  </text>
  <text x="145" y="365" text-anchor="middle" font-size="10" fill="#6b7280" transform="rotate(-45, 145, 365)">
    11-04
  </text>
  <text x="230" y="365" text-anchor="middle" font-size="10" fill="#6b7280" transform="rotate(-45, 230, 365)">
    11-05
  </text>
  <text x="315" y="365" text-anchor="middle" font-size="10" fill="#6b7280" transform="rotate(-45, 315, 365)">
    11-06
  </text>
  <text x="400" y="365" text-anchor="middle" font-size="10" fill="#6b7280" transform="rotate(-45, 400, 365)">
    11-07
  </text>
  <text x="485" y="365" text-anchor="middle" font-size="10" fill="#6b7280" transform="rotate(-45, 485, 365)">
    11-08
  </text>
  <text x="570" y="365" text-anchor="middle" font-size="10" fill="#6b7280" transform="rotate(-45, 570, 365)">
    11-09
  </text>
  <text x="655" y="365" text-anchor="middle" font-size="10" fill="#6b7280" transform="rotate(-45, 655, 365)">
    11-10
  </text>
  <text x="740" y="365" text-anchor="middle" font-size="10" fill="#6b7280" transform="rotate(-45, 740, 365)">
    11-11
  </text>
  <polyline points="60,301.67134149599593 145,301.67134149599593 230,301.67134149599593 315,301.4706593784686 400,327.60273213594326 485,327.6027619022026 570,327.56075625325735 655,328.33235413902133 740,327.46112593049577" fill="none" stroke="#3b82f6" stroke-width="2"/>
  <circle cx="60" cy="301.67134149599593" r="4" fill="#3b82f6"/>
  <circle cx="145" cy="301.67134149599593" r="4" fill="#3b82f6"/>
  <circle cx="230" cy="301.67134149599593" r="4" fill="#3b82f6"/>
  <circle cx="315" cy="301.4706593784686" r="4" fill="#3b82f6"/>
  <circle cx="400" cy="327.60273213594326" r="4" fill="#3b82f6"/>
  <circle cx="485" cy="327.6027619022026" r="4" fill="#3b82f6"/>
  <circle cx="570" cy="327.56075625325735" r="4" fill="#3b82f6"/>
  <circle cx="655" cy="328.33235413902133" r="4" fill="#3b82f6"/>
  <circle cx="740" cy="327.46112593049577" r="4" fill="#3b82f6"/>
  <polyline points="60,284.232165958752 145,284.232165958752 230,284.232165958752 315,282.54786586391276 400,320.679917799652 485,320.77972120537595 570,321.1384019665755 655,322.63795062831275 740,320.96746694090166" fill="none" stroke="#ef4444" stroke-width="2"/>
  <circle cx="60" cy="284.232165958752" r="4" fill="#ef4444"/>
  <circle cx="145" cy="284.232165958752" r="4" fill="#ef4444"/>
  <circle cx="230" cy="284.232165958752" r="4" fill="#ef4444"/>
  <circle cx="315" cy="282.54786586391276" r="4" fill="#ef4444"/>
  <circle cx="400" cy="320.679917799652" r="4" fill="#ef4444"/>
  <circle cx="485" cy="320.77972120537595" r="4" fill="#ef4444"/>
  <circle cx="570" cy="321.1384019665755" r="4" fill="#ef4444"/>
  <circle cx="655" cy="322.63795062831275" r="4" fill="#ef4444"/>
  <circle cx="740" cy="320.96746694090166" r="4" fill="#ef4444"/>
  <polyline points="60,85.45454545454547 145,85.45454545454547 230,85.45454545454547 315,137.07614102037115 400,267.7247884101681 485,268.6864367670561 570,270.061022472741 655,274.9380730949765 740,270.8236535197128" fill="none" stroke="#10b981" stroke-width="2"/>
  <circle cx="60" cy="85.45454545454547" r="4" fill="#10b981"/>
  <circle cx="145" cy="85.45454545454547" r="4" fill="#10b981"/>
  <circle cx="230" cy="85.45454545454547" r="4" fill="#10b981"/>
  <circle cx="315" cy="137.07614102037115" r="4" fill="#10b981"/>
  <circle cx="400" cy="267.7247884101681" r="4" fill="#10b981"/>
  <circle cx="485" cy="268.6864367670561" r="4" fill="#10b981"/>
  <circle cx="570" cy="270.061022472741" r="4" fill="#10b981"/>
  <circle cx="655" cy="274.9380730949765" r="4" fill="#10b981"/>
  <circle cx="740" cy="270.8236535197128" r="4" fill="#10b981"/>
  <polyline points="60,187.11653837917595 145,187.11653837917595 230,187.11653837917595 315,188.00935612204313 400,289.96305164874457 485,289.7663825158042 570,289.8339778100736 655,293.0879296333757 740,289.2773483402888" fill="none" stroke="#f59e0b" stroke-width="2"/>
  <circle cx="60" cy="187.11653837917595" r="4" fill="#f59e0b"/>
  <circle cx="145" cy="187.11653837917595" r="4" fill="#f59e0b"/>
  <circle cx="230" cy="187.11653837917595" r="4" fill="#f59e0b"/>
  <circle cx="315" cy="188.00935612204313" r="4" fill="#f59e0b"/>
  <circle cx="400" cy="289.96305164874457" r="4" fill="#f59e0b"/>
  <circle cx="485" cy="289.7663825158042" r="4" fill="#f59e0b"/>
  <circle cx="570" cy="289.8339778100736" r="4" fill="#f59e0b"/>
  <circle cx="655" cy="293.0879296333757" r="4" fill="#f59e0b"/>
  <circle cx="740" cy="289.2773483402888" r="4" fill="#f59e0b"/>
  <polyline points="60,325.1657208660117 145,325.1657208660117 230,325.1657208660117 315,325.06913608054 400,334.52411021495476 485,334.5263443371865 570,334.55035566706107 655,334.7045924489719 740,334.73853766586416" fill="none" stroke="#8b5cf6" stroke-width="2"/>
  <circle cx="60" cy="325.1657208660117" r="4" fill="#8b5cf6"/>
  <circle cx="145" cy="325.1657208660117" r="4" fill="#8b5cf6"/>
  <circle cx="230" cy="325.1657208660117" r="4" fill="#8b5cf6"/>
  <circle cx="315" cy="325.06913608054" r="4" fill="#8b5cf6"/>
  <circle cx="400" cy="334.52411021495476" r="4" fill="#8b5cf6"/>
  <circle cx="485" cy="334.5263443371865" r="4" fill="#8b5cf6"/>
  <circle cx="570" cy="334.55035566706107" r="4" fill="#8b5cf6"/>
  <circle cx="655" cy="334.7045924489719" r="4" fill="#8b5cf6"/>
  <circle cx="740" cy="334.73853766586416" r="4" fill="#8b5cf6"/>
  <polyline points="315,253.88612067577208 400,311.9821590853354 485,311.84668639601523 570,312.31160406878917 655,314.93054875029026 740,312.4820976113262" fill="none" stroke="#ec4899" stroke-width="2"/>
  <circle cx="315" cy="253.88612067577208" r="4" fill="#ec4899"/>
  <circle cx="400" cy="311.9821590853354" r="4" fill="#ec4899"/>
  <circle cx="485" cy="311.84668639601523" r="4" fill="#ec4899"/>
  <circle cx="570" cy="312.31160406878917" r="4" fill="#ec4899"/>
  <circle cx="655" cy="314.93054875029026" r="4" fill="#ec4899"/>
  <circle cx="740" cy="312.4820976113262" r="4" fill="#ec4899"/>
  <rect x="650" y="42" width="12" height="12" fill="#3b82f6"/>
  <text x="668" y="53" font-size="12" fill="#374151">Immer</text>
  <rect x="650" y="62" width="12" height="12" fill="#ef4444"/>
  <text x="668" y="73" font-size="12" fill="#374151">Mutative</text>
  <rect x="650" y="82" width="12" height="12" fill="#10b981"/>
  <text x="668" y="93" font-size="12" fill="#374151">Immutable.js</text>
  <rect x="650" y="102" width="12" height="12" fill="#f59e0b"/>
  <text x="668" y="113" font-size="12" fill="#374151">Immutability Helper</text>
  <rect x="650" y="122" width="12" height="12" fill="#8b5cf6"/>
  <text x="668" y="133" font-size="12" fill="#374151">Seamless Immutable</text>
  <rect x="650" y="142" width="12" height="12" fill="#ec4899"/>
  <text x="668" y="153" font-size="12" fill="#374151">Craft</text>
</svg>