<svg width="800" height="400" xmlns="http://www.w3.org/2000/svg">
  <!-- Background -->
  <rect width="800" height="400" fill="white"/>

  <!-- Title -->
  <text x="400" y="30" text-anchor="middle" font-size="18" font-weight="bold" fill="#1f2937">
    Array Update - Performance Trend
  </text>

  <!-- Grid lines -->
  <line x1="60" y1="60" x2="740" y2="60" stroke="#e5e7eb" stroke-width="1"/>
  <text x="50" y="65" text-anchor="end" font-size="12" fill="#6b7280">
    1.6M
  </text>
  <line x1="60" y1="116" x2="740" y2="116" stroke="#e5e7eb" stroke-width="1"/>
  <text x="50" y="121" text-anchor="end" font-size="12" fill="#6b7280">
    1.2M
  </text>
  <line x1="60" y1="172" x2="740" y2="172" stroke="#e5e7eb" stroke-width="1"/>
  <text x="50" y="177" text-anchor="end" font-size="12" fill="#6b7280">
    935K
  </text>
  <line x1="60" y1="228" x2="740" y2="228" stroke="#e5e7eb" stroke-width="1"/>
  <text x="50" y="233" text-anchor="end" font-size="12" fill="#6b7280">
    623K
  </text>
  <line x1="60" y1="284" x2="740" y2="284" stroke="#e5e7eb" stroke-width="1"/>
  <text x="50" y="289" text-anchor="end" font-size="12" fill="#6b7280">
    312K
  </text>
  <line x1="60" y1="340" x2="740" y2="340" stroke="#e5e7eb" stroke-width="1"/>
  <text x="50" y="345" text-anchor="end" font-size="12" fill="#6b7280">
    0
  </text>
  <text x="60" y="365" text-anchor="middle" font-size="10" fill="#6b7280" transform="rotate(-45, 60, 365)">
    11-03
  </text>
  <text x="157.14285714285714" y="365" text-anchor="middle" font-size="10" fill="#6b7280" transform="rotate(-45, 157.14285714285714, 365)">
    11-04
  </text>
  <text x="254.28571428571428" y="365" text-anchor="middle" font-size="10" fill="#6b7280" transform="rotate(-45, 254.28571428571428, 365)">
    11-05
  </text>
  <text x="351.42857142857144" y="365" text-anchor="middle" font-size="10" fill="#6b7280" transform="rotate(-45, 351.42857142857144, 365)">
    11-06
  </text>
  <text x="448.57142857142856" y="365" text-anchor="middle" font-size="10" fill="#6b7280" transform="rotate(-45, 448.57142857142856, 365)">
    11-07
  </text>
  <text x="545.7142857142857" y="365" text-anchor="middle" font-size="10" fill="#6b7280" transform="rotate(-45, 545.7142857142857, 365)">
    11-08
  </text>
  <text x="642.8571428571429" y="365" text-anchor="middle" font-size="10" fill="#6b7280" transform="rotate(-45, 642.8571428571429, 365)">
    11-09
  </text>
  <text x="740" y="365" text-anchor="middle" font-size="10" fill="#6b7280" transform="rotate(-45, 740, 365)">
    11-10
  </text>
  <polyline points="60,178.94185730784588 157.14285714285714,178.94185730784588 254.28571428571428,178.94185730784588 351.42857142857144,173.41982733178938 448.57142857142856,288.53556982656835 545.7142857142857,289.0746350589498 642.8571428571429,287.83757121045295 740,288.9148391326723" fill="none" stroke="#3b82f6" stroke-width="2"/>
  <circle cx="60" cy="178.94185730784588" r="4" fill="#3b82f6"/>
  <circle cx="157.14285714285714" cy="178.94185730784588" r="4" fill="#3b82f6"/>
  <circle cx="254.28571428571428" cy="178.94185730784588" r="4" fill="#3b82f6"/>
  <circle cx="351.42857142857144" cy="173.41982733178938" r="4" fill="#3b82f6"/>
  <circle cx="448.57142857142856" cy="288.53556982656835" r="4" fill="#3b82f6"/>
  <circle cx="545.7142857142857" cy="289.0746350589498" r="4" fill="#3b82f6"/>
  <circle cx="642.8571428571429" cy="287.83757121045295" r="4" fill="#3b82f6"/>
  <circle cx="740" cy="288.9148391326723" r="4" fill="#3b82f6"/>
  <polyline points="60,85.4545454545455 157.14285714285714,85.4545454545455 254.28571428571428,85.4545454545455 351.42857142857144,105.17932438504263 448.57142857142856,257.9316227446265 545.7142857142857,258.9402832055557 642.8571428571429,257.50391947051 740,256.49677580825363" fill="none" stroke="#ef4444" stroke-width="2"/>
  <circle cx="60" cy="85.4545454545455" r="4" fill="#ef4444"/>
  <circle cx="157.14285714285714" cy="85.4545454545455" r="4" fill="#ef4444"/>
  <circle cx="254.28571428571428" cy="85.4545454545455" r="4" fill="#ef4444"/>
  <circle cx="351.42857142857144" cy="105.17932438504263" r="4" fill="#ef4444"/>
  <circle cx="448.57142857142856" cy="257.9316227446265" r="4" fill="#ef4444"/>
  <circle cx="545.7142857142857" cy="258.9402832055557" r="4" fill="#ef4444"/>
  <circle cx="642.8571428571429" cy="257.50391947051" r="4" fill="#ef4444"/>
  <circle cx="740" cy="256.49677580825363" r="4" fill="#ef4444"/>
  <polyline points="60,239.831524800554 157.14285714285714,239.831524800554 254.28571428571428,239.831524800554 351.42857142857144,248.11398331999183 448.57142857142856,306.6196683920766 545.7142857142857,305.867477777829 642.8571428571429,305.9903330187639 740,306.31117849430774" fill="none" stroke="#10b981" stroke-width="2"/>
  <circle cx="60" cy="239.831524800554" r="4" fill="#10b981"/>
  <circle cx="157.14285714285714" cy="239.831524800554" r="4" fill="#10b981"/>
  <circle cx="254.28571428571428" cy="239.831524800554" r="4" fill="#10b981"/>
  <circle cx="351.42857142857144" cy="248.11398331999183" r="4" fill="#10b981"/>
  <circle cx="448.57142857142856" cy="306.6196683920766" r="4" fill="#10b981"/>
  <circle cx="545.7142857142857" cy="305.867477777829" r="4" fill="#10b981"/>
  <circle cx="642.8571428571429" cy="305.9903330187639" r="4" fill="#10b981"/>
  <circle cx="740" cy="306.31117849430774" r="4" fill="#10b981"/>
  <polyline points="60,116.32919388325058 157.14285714285714,116.32919388325058 254.28571428571428,116.32919388325058 351.42857142857144,128.38276933685003 448.57142857142856,268.24973382584005 545.7142857142857,267.90579687491964 642.8571428571429,268.94440378148477 740,267.9611980835569" fill="none" stroke="#f59e0b" stroke-width="2"/>
  <circle cx="60" cy="116.32919388325058" r="4" fill="#f59e0b"/>
  <circle cx="157.14285714285714" cy="116.32919388325058" r="4" fill="#f59e0b"/>
  <circle cx="254.28571428571428" cy="116.32919388325058" r="4" fill="#f59e0b"/>
  <circle cx="351.42857142857144" cy="128.38276933685003" r="4" fill="#f59e0b"/>
  <circle cx="448.57142857142856" cy="268.24973382584005" r="4" fill="#f59e0b"/>
  <circle cx="545.7142857142857" cy="267.90579687491964" r="4" fill="#f59e0b"/>
  <circle cx="642.8571428571429" cy="268.94440378148477" r="4" fill="#f59e0b"/>
  <circle cx="740" cy="267.9611980835569" r="4" fill="#f59e0b"/>
  <polyline points="60,324.90799484206 157.14285714285714,324.90799484206 254.28571428571428,324.90799484206 351.42857142857144,324.7317665201283 448.57142857142856,334.33547384104685 545.7142857142857,334.34129646333395 642.8571428571429,334.2807962608466 740,334.3876664203113" fill="none" stroke="#8b5cf6" stroke-width="2"/>
  <circle cx="60" cy="324.90799484206" r="4" fill="#8b5cf6"/>
  <circle cx="157.14285714285714" cy="324.90799484206" r="4" fill="#8b5cf6"/>
  <circle cx="254.28571428571428" cy="324.90799484206" r="4" fill="#8b5cf6"/>
  <circle cx="351.42857142857144" cy="324.7317665201283" r="4" fill="#8b5cf6"/>
  <circle cx="448.57142857142856" cy="334.33547384104685" r="4" fill="#8b5cf6"/>
  <circle cx="545.7142857142857" cy="334.34129646333395" r="4" fill="#8b5cf6"/>
  <circle cx="642.8571428571429" cy="334.2807962608466" r="4" fill="#8b5cf6"/>
  <circle cx="740" cy="334.3876664203113" r="4" fill="#8b5cf6"/>
  <polyline points="351.42857142857144,94.95168280075296 448.57142857142856,251.8531896636103 545.7142857142857,255.7246013195779 642.8571428571429,252.06584878468215 740,254.46710509052681" fill="none" stroke="#ec4899" stroke-width="2"/>
  <circle cx="351.42857142857144" cy="94.95168280075296" r="4" fill="#ec4899"/>
  <circle cx="448.57142857142856" cy="251.8531896636103" r="4" fill="#ec4899"/>
  <circle cx="545.7142857142857" cy="255.7246013195779" r="4" fill="#ec4899"/>
  <circle cx="642.8571428571429" cy="252.06584878468215" r="4" fill="#ec4899"/>
  <circle cx="740" cy="254.46710509052681" r="4" fill="#ec4899"/>
  <rect x="650" y="42" width="12" height="12" fill="#3b82f6"/>
  <text x="668" y="53" font-size="12" fill="#374151">Immer</text>
  <rect x="650" y="62" width="12" height="12" fill="#ef4444"/>
  <text x="668" y="73" font-size="12" fill="#374151">Mutative</text>
  <rect x="650" y="82" width="12" height="12" fill="#10b981"/>
  <text x="668" y="93" font-size="12" fill="#374151">Immutable.js</text>
  <rect x="650" y="102" width="12" height="12" fill="#f59e0b"/>
  <text x="668" y="113" font-size="12" fill="#374151">Immutability Helper</text>
  <rect x="650" y="122" width="12" height="12" fill="#8b5cf6"/>
  <text x="668" y="133" font-size="12" fill="#374151">Seamless Immutable</text>
  <rect x="650" y="142" width="12" height="12" fill="#ec4899"/>
  <text x="668" y="153" font-size="12" fill="#374151">Craft</text>
</svg>