<svg width="800" height="400" xmlns="http://www.w3.org/2000/svg">
  <!-- Background -->
  <rect width="800" height="400" fill="white"/>

  <!-- Title -->
  <text x="400" y="30" text-anchor="middle" font-size="18" font-weight="bold" fill="#1f2937">
    Array Update - Performance Trend
  </text>

  <!-- Grid lines -->
  <line x1="60" y1="60" x2="740" y2="60" stroke="#e5e7eb" stroke-width="1"/>
  <text x="50" y="65" text-anchor="end" font-size="12" fill="#6b7280">
    1.6M
  </text>
  <line x1="60" y1="116" x2="740" y2="116" stroke="#e5e7eb" stroke-width="1"/>
  <text x="50" y="121" text-anchor="end" font-size="12" fill="#6b7280">
    1.2M
  </text>
  <line x1="60" y1="172" x2="740" y2="172" stroke="#e5e7eb" stroke-width="1"/>
  <text x="50" y="177" text-anchor="end" font-size="12" fill="#6b7280">
    935K
  </text>
  <line x1="60" y1="228" x2="740" y2="228" stroke="#e5e7eb" stroke-width="1"/>
  <text x="50" y="233" text-anchor="end" font-size="12" fill="#6b7280">
    623K
  </text>
  <line x1="60" y1="284" x2="740" y2="284" stroke="#e5e7eb" stroke-width="1"/>
  <text x="50" y="289" text-anchor="end" font-size="12" fill="#6b7280">
    312K
  </text>
  <line x1="60" y1="340" x2="740" y2="340" stroke="#e5e7eb" stroke-width="1"/>
  <text x="50" y="345" text-anchor="end" font-size="12" fill="#6b7280">
    0
  </text>
  <text x="60" y="365" text-anchor="middle" font-size="10" fill="#6b7280" transform="rotate(-45, 60, 365)">
    11-03
  </text>
  <text x="230" y="365" text-anchor="middle" font-size="10" fill="#6b7280" transform="rotate(-45, 230, 365)">
    11-04
  </text>
  <text x="400" y="365" text-anchor="middle" font-size="10" fill="#6b7280" transform="rotate(-45, 400, 365)">
    11-05
  </text>
  <text x="570" y="365" text-anchor="middle" font-size="10" fill="#6b7280" transform="rotate(-45, 570, 365)">
    11-06
  </text>
  <text x="740" y="365" text-anchor="middle" font-size="10" fill="#6b7280" transform="rotate(-45, 740, 365)">
    11-07
  </text>
  <polyline points="60,178.94185730784588 230,178.94185730784588 400,178.94185730784588 570,173.41982733178938 740,288.8151276796666" fill="none" stroke="#3b82f6" stroke-width="2"/>
  <circle cx="60" cy="178.94185730784588" r="4" fill="#3b82f6"/>
  <circle cx="230" cy="178.94185730784588" r="4" fill="#3b82f6"/>
  <circle cx="400" cy="178.94185730784588" r="4" fill="#3b82f6"/>
  <circle cx="570" cy="173.41982733178938" r="4" fill="#3b82f6"/>
  <circle cx="740" cy="288.8151276796666" r="4" fill="#3b82f6"/>
  <polyline points="60,85.4545454545455 230,85.4545454545455 400,85.4545454545455 570,105.17932438504263 740,260.779243371097" fill="none" stroke="#ef4444" stroke-width="2"/>
  <circle cx="60" cy="85.4545454545455" r="4" fill="#ef4444"/>
  <circle cx="230" cy="85.4545454545455" r="4" fill="#ef4444"/>
  <circle cx="400" cy="85.4545454545455" r="4" fill="#ef4444"/>
  <circle cx="570" cy="105.17932438504263" r="4" fill="#ef4444"/>
  <circle cx="740" cy="260.779243371097" r="4" fill="#ef4444"/>
  <polyline points="60,239.831524800554 230,239.831524800554 400,239.831524800554 570,248.11398331999183 740,308.619069309959" fill="none" stroke="#10b981" stroke-width="2"/>
  <circle cx="60" cy="239.831524800554" r="4" fill="#10b981"/>
  <circle cx="230" cy="239.831524800554" r="4" fill="#10b981"/>
  <circle cx="400" cy="239.831524800554" r="4" fill="#10b981"/>
  <circle cx="570" cy="248.11398331999183" r="4" fill="#10b981"/>
  <circle cx="740" cy="308.619069309959" r="4" fill="#10b981"/>
  <polyline points="60,116.32919388325058 230,116.32919388325058 400,116.32919388325058 570,128.38276933685003 740,267.87843501868974" fill="none" stroke="#f59e0b" stroke-width="2"/>
  <circle cx="60" cy="116.32919388325058" r="4" fill="#f59e0b"/>
  <circle cx="230" cy="116.32919388325058" r="4" fill="#f59e0b"/>
  <circle cx="400" cy="116.32919388325058" r="4" fill="#f59e0b"/>
  <circle cx="570" cy="128.38276933685003" r="4" fill="#f59e0b"/>
  <circle cx="740" cy="267.87843501868974" r="4" fill="#f59e0b"/>
  <polyline points="60,324.90799484206 230,324.90799484206 400,324.90799484206 570,324.7317665201283 740,334.3830776499992" fill="none" stroke="#8b5cf6" stroke-width="2"/>
  <circle cx="60" cy="324.90799484206" r="4" fill="#8b5cf6"/>
  <circle cx="230" cy="324.90799484206" r="4" fill="#8b5cf6"/>
  <circle cx="400" cy="324.90799484206" r="4" fill="#8b5cf6"/>
  <circle cx="570" cy="324.7317665201283" r="4" fill="#8b5cf6"/>
  <circle cx="740" cy="334.3830776499992" r="4" fill="#8b5cf6"/>
  <polyline points="570,94.95168280075296 740,253.07784716647464" fill="none" stroke="#ec4899" stroke-width="2"/>
  <circle cx="570" cy="94.95168280075296" r="4" fill="#ec4899"/>
  <circle cx="740" cy="253.07784716647464" r="4" fill="#ec4899"/>
  <rect x="650" y="42" width="12" height="12" fill="#3b82f6"/>
  <text x="668" y="53" font-size="12" fill="#374151">Immer</text>
  <rect x="650" y="62" width="12" height="12" fill="#ef4444"/>
  <text x="668" y="73" font-size="12" fill="#374151">Mutative</text>
  <rect x="650" y="82" width="12" height="12" fill="#10b981"/>
  <text x="668" y="93" font-size="12" fill="#374151">Immutable.js</text>
  <rect x="650" y="102" width="12" height="12" fill="#f59e0b"/>
  <text x="668" y="113" font-size="12" fill="#374151">Immutability Helper</text>
  <rect x="650" y="122" width="12" height="12" fill="#8b5cf6"/>
  <text x="668" y="133" font-size="12" fill="#374151">Seamless Immutable</text>
  <rect x="650" y="142" width="12" height="12" fill="#ec4899"/>
  <text x="668" y="153" font-size="12" fill="#374151">Craft</text>
</svg>