<svg width="800" height="400" xmlns="http://www.w3.org/2000/svg">
  <!-- Background -->
  <rect width="800" height="400" fill="white"/>

  <!-- Title -->
  <text x="400" y="30" text-anchor="middle" font-size="18" font-weight="bold" fill="#1f2937">
    Array Push - Performance Trend
  </text>

  <!-- Grid lines -->
  <line x1="60" y1="60" x2="740" y2="60" stroke="#e5e7eb" stroke-width="1"/>
  <text x="50" y="65" text-anchor="end" font-size="12" fill="#6b7280">
    9.1M
  </text>
  <line x1="60" y1="116" x2="740" y2="116" stroke="#e5e7eb" stroke-width="1"/>
  <text x="50" y="121" text-anchor="end" font-size="12" fill="#6b7280">
    7.2M
  </text>
  <line x1="60" y1="172" x2="740" y2="172" stroke="#e5e7eb" stroke-width="1"/>
  <text x="50" y="177" text-anchor="end" font-size="12" fill="#6b7280">
    5.4M
  </text>
  <line x1="60" y1="228" x2="740" y2="228" stroke="#e5e7eb" stroke-width="1"/>
  <text x="50" y="233" text-anchor="end" font-size="12" fill="#6b7280">
    3.6M
  </text>
  <line x1="60" y1="284" x2="740" y2="284" stroke="#e5e7eb" stroke-width="1"/>
  <text x="50" y="289" text-anchor="end" font-size="12" fill="#6b7280">
    1.8M
  </text>
  <line x1="60" y1="340" x2="740" y2="340" stroke="#e5e7eb" stroke-width="1"/>
  <text x="50" y="345" text-anchor="end" font-size="12" fill="#6b7280">
    0
  </text>
  <text x="60" y="365" text-anchor="middle" font-size="10" fill="#6b7280" transform="rotate(-45, 60, 365)">
    11-03
  </text>
  <text x="230" y="365" text-anchor="middle" font-size="10" fill="#6b7280" transform="rotate(-45, 230, 365)">
    11-04
  </text>
  <text x="400" y="365" text-anchor="middle" font-size="10" fill="#6b7280" transform="rotate(-45, 400, 365)">
    11-05
  </text>
  <text x="570" y="365" text-anchor="middle" font-size="10" fill="#6b7280" transform="rotate(-45, 570, 365)">
    11-06
  </text>
  <text x="740" y="365" text-anchor="middle" font-size="10" fill="#6b7280" transform="rotate(-45, 740, 365)">
    11-07
  </text>
  <polyline points="60,310.47936576478185 230,310.47936576478185 400,310.47936576478185 570,311.06937196243456 740,331.5497416561918" fill="none" stroke="#3b82f6" stroke-width="2"/>
  <circle cx="60" cy="310.47936576478185" r="4" fill="#3b82f6"/>
  <circle cx="230" cy="310.47936576478185" r="4" fill="#3b82f6"/>
  <circle cx="400" cy="310.47936576478185" r="4" fill="#3b82f6"/>
  <circle cx="570" cy="311.06937196243456" r="4" fill="#3b82f6"/>
  <circle cx="740" cy="331.5497416561918" r="4" fill="#3b82f6"/>
  <polyline points="60,297.50833311171647 230,297.50833311171647 400,297.50833311171647 570,298.50036029726016 740,327.4956947805836" fill="none" stroke="#ef4444" stroke-width="2"/>
  <circle cx="60" cy="297.50833311171647" r="4" fill="#ef4444"/>
  <circle cx="230" cy="297.50833311171647" r="4" fill="#ef4444"/>
  <circle cx="400" cy="297.50833311171647" r="4" fill="#ef4444"/>
  <circle cx="570" cy="298.50036029726016" r="4" fill="#ef4444"/>
  <circle cx="740" cy="327.4956947805836" r="4" fill="#ef4444"/>
  <polyline points="60,85.45454545454547 230,85.45454545454547 400,85.45454545454547 570,177.9410518765961 740,290.8715957244081" fill="none" stroke="#10b981" stroke-width="2"/>
  <circle cx="60" cy="85.45454545454547" r="4" fill="#10b981"/>
  <circle cx="230" cy="85.45454545454547" r="4" fill="#10b981"/>
  <circle cx="400" cy="85.45454545454547" r="4" fill="#10b981"/>
  <circle cx="570" cy="177.9410518765961" r="4" fill="#10b981"/>
  <circle cx="740" cy="290.8715957244081" r="4" fill="#10b981"/>
  <polyline points="60,191.63087532455435 230,191.63087532455435 400,191.63087532455435 570,194.5139018555865 740,300.76342745068627" fill="none" stroke="#f59e0b" stroke-width="2"/>
  <circle cx="60" cy="191.63087532455435" r="4" fill="#f59e0b"/>
  <circle cx="230" cy="191.63087532455435" r="4" fill="#f59e0b"/>
  <circle cx="400" cy="191.63087532455435" r="4" fill="#f59e0b"/>
  <circle cx="570" cy="194.5139018555865" r="4" fill="#f59e0b"/>
  <circle cx="740" cy="300.76342745068627" r="4" fill="#f59e0b"/>
  <polyline points="60,334.7432090035185 230,334.7432090035185 400,334.7432090035185 570,334.7981230820241 740,338.14523555755454" fill="none" stroke="#8b5cf6" stroke-width="2"/>
  <circle cx="60" cy="334.7432090035185" r="4" fill="#8b5cf6"/>
  <circle cx="230" cy="334.7432090035185" r="4" fill="#8b5cf6"/>
  <circle cx="400" cy="334.7432090035185" r="4" fill="#8b5cf6"/>
  <circle cx="570" cy="334.7981230820241" r="4" fill="#8b5cf6"/>
  <circle cx="740" cy="338.14523555755454" r="4" fill="#8b5cf6"/>
  <polyline points="570,290.51339251914726 740,325.22109819859537" fill="none" stroke="#ec4899" stroke-width="2"/>
  <circle cx="570" cy="290.51339251914726" r="4" fill="#ec4899"/>
  <circle cx="740" cy="325.22109819859537" r="4" fill="#ec4899"/>
  <rect x="650" y="42" width="12" height="12" fill="#3b82f6"/>
  <text x="668" y="53" font-size="12" fill="#374151">Immer</text>
  <rect x="650" y="62" width="12" height="12" fill="#ef4444"/>
  <text x="668" y="73" font-size="12" fill="#374151">Mutative</text>
  <rect x="650" y="82" width="12" height="12" fill="#10b981"/>
  <text x="668" y="93" font-size="12" fill="#374151">Immutable.js</text>
  <rect x="650" y="102" width="12" height="12" fill="#f59e0b"/>
  <text x="668" y="113" font-size="12" fill="#374151">Immutability Helper</text>
  <rect x="650" y="122" width="12" height="12" fill="#8b5cf6"/>
  <text x="668" y="133" font-size="12" fill="#374151">Seamless Immutable</text>
  <rect x="650" y="142" width="12" height="12" fill="#ec4899"/>
  <text x="668" y="153" font-size="12" fill="#374151">Craft</text>
</svg>