<svg width="800" height="400" xmlns="http://www.w3.org/2000/svg">
  <!-- Background -->
  <rect width="800" height="400" fill="white"/>

  <!-- Title -->
  <text x="400" y="30" text-anchor="middle" font-size="18" font-weight="bold" fill="#1f2937">
    Nested Object Update - Performance Trend
  </text>

  <!-- Grid lines -->
  <line x1="60" y1="60" x2="740" y2="60" stroke="#e5e7eb" stroke-width="1"/>
  <text x="50" y="65" text-anchor="end" font-size="12" fill="#6b7280">
    1.7M
  </text>
  <line x1="60" y1="116" x2="740" y2="116" stroke="#e5e7eb" stroke-width="1"/>
  <text x="50" y="121" text-anchor="end" font-size="12" fill="#6b7280">
    1.4M
  </text>
  <line x1="60" y1="172" x2="740" y2="172" stroke="#e5e7eb" stroke-width="1"/>
  <text x="50" y="177" text-anchor="end" font-size="12" fill="#6b7280">
    1.0M
  </text>
  <line x1="60" y1="228" x2="740" y2="228" stroke="#e5e7eb" stroke-width="1"/>
  <text x="50" y="233" text-anchor="end" font-size="12" fill="#6b7280">
    681K
  </text>
  <line x1="60" y1="284" x2="740" y2="284" stroke="#e5e7eb" stroke-width="1"/>
  <text x="50" y="289" text-anchor="end" font-size="12" fill="#6b7280">
    340K
  </text>
  <line x1="60" y1="340" x2="740" y2="340" stroke="#e5e7eb" stroke-width="1"/>
  <text x="50" y="345" text-anchor="end" font-size="12" fill="#6b7280">
    0
  </text>
  <text x="60" y="365" text-anchor="middle" font-size="10" fill="#6b7280" transform="rotate(-45, 60, 365)">
    11-03
  </text>
  <text x="145" y="365" text-anchor="middle" font-size="10" fill="#6b7280" transform="rotate(-45, 145, 365)">
    11-04
  </text>
  <text x="230" y="365" text-anchor="middle" font-size="10" fill="#6b7280" transform="rotate(-45, 230, 365)">
    11-05
  </text>
  <text x="315" y="365" text-anchor="middle" font-size="10" fill="#6b7280" transform="rotate(-45, 315, 365)">
    11-06
  </text>
  <text x="400" y="365" text-anchor="middle" font-size="10" fill="#6b7280" transform="rotate(-45, 400, 365)">
    11-07
  </text>
  <text x="485" y="365" text-anchor="middle" font-size="10" fill="#6b7280" transform="rotate(-45, 485, 365)">
    11-08
  </text>
  <text x="570" y="365" text-anchor="middle" font-size="10" fill="#6b7280" transform="rotate(-45, 570, 365)">
    11-09
  </text>
  <text x="655" y="365" text-anchor="middle" font-size="10" fill="#6b7280" transform="rotate(-45, 655, 365)">
    11-10
  </text>
  <text x="740" y="365" text-anchor="middle" font-size="10" fill="#6b7280" transform="rotate(-45, 740, 365)">
    11-11
  </text>
  <polyline points="60,234.56939779864427 145,234.56939779864427 230,234.56939779864427 315,235.53169346419492 400,314.6115966096803 485,314.2762305721509 570,314.1362049795176 655,316.47608410168937 740,314.6484113415206" fill="none" stroke="#3b82f6" stroke-width="2"/>
  <circle cx="60" cy="234.56939779864427" r="4" fill="#3b82f6"/>
  <circle cx="145" cy="234.56939779864427" r="4" fill="#3b82f6"/>
  <circle cx="230" cy="234.56939779864427" r="4" fill="#3b82f6"/>
  <circle cx="315" cy="235.53169346419492" r="4" fill="#3b82f6"/>
  <circle cx="400" cy="314.6115966096803" r="4" fill="#3b82f6"/>
  <circle cx="485" cy="314.2762305721509" r="4" fill="#3b82f6"/>
  <circle cx="570" cy="314.1362049795176" r="4" fill="#3b82f6"/>
  <circle cx="655" cy="316.47608410168937" r="4" fill="#3b82f6"/>
  <circle cx="740" cy="314.6484113415206" r="4" fill="#3b82f6"/>
  <polyline points="60,138.78414193594213 145,138.78414193594213 230,138.78414193594213 315,147.68916544570212 400,272.74682194783725 485,278.10932256678404 570,275.96440244627354 655,278.560287909932 740,275.01443725716956" fill="none" stroke="#ef4444" stroke-width="2"/>
  <circle cx="60" cy="138.78414193594213" r="4" fill="#ef4444"/>
  <circle cx="145" cy="138.78414193594213" r="4" fill="#ef4444"/>
  <circle cx="230" cy="138.78414193594213" r="4" fill="#ef4444"/>
  <circle cx="315" cy="147.68916544570212" r="4" fill="#ef4444"/>
  <circle cx="400" cy="272.74682194783725" r="4" fill="#ef4444"/>
  <circle cx="485" cy="278.10932256678404" r="4" fill="#ef4444"/>
  <circle cx="570" cy="275.96440244627354" r="4" fill="#ef4444"/>
  <circle cx="655" cy="278.560287909932" r="4" fill="#ef4444"/>
  <circle cx="740" cy="275.01443725716956" r="4" fill="#ef4444"/>
  <polyline points="60,235.6629773379087 145,235.6629773379087 230,235.6629773379087 315,227.05114066266782 400,301.88412744268896 485,305.1051138199126 570,300.500137518853 655,306.701815132482 740,301.4481114474208" fill="none" stroke="#10b981" stroke-width="2"/>
  <circle cx="60" cy="235.6629773379087" r="4" fill="#10b981"/>
  <circle cx="145" cy="235.6629773379087" r="4" fill="#10b981"/>
  <circle cx="230" cy="235.6629773379087" r="4" fill="#10b981"/>
  <circle cx="315" cy="227.05114066266782" r="4" fill="#10b981"/>
  <circle cx="400" cy="301.88412744268896" r="4" fill="#10b981"/>
  <circle cx="485" cy="305.1051138199126" r="4" fill="#10b981"/>
  <circle cx="570" cy="300.500137518853" r="4" fill="#10b981"/>
  <circle cx="655" cy="306.701815132482" r="4" fill="#10b981"/>
  <circle cx="740" cy="301.4481114474208" r="4" fill="#10b981"/>
  <polyline points="60,85.4545454545455 145,85.4545454545455 230,85.4545454545455 315,88.191213143992 400,257.13499261580796 485,253.6815195432966 570,251.57169530276508 655,262.9076716297445 740,260.1993699647101" fill="none" stroke="#f59e0b" stroke-width="2"/>
  <circle cx="60" cy="85.4545454545455" r="4" fill="#f59e0b"/>
  <circle cx="145" cy="85.4545454545455" r="4" fill="#f59e0b"/>
  <circle cx="230" cy="85.4545454545455" r="4" fill="#f59e0b"/>
  <circle cx="315" cy="88.191213143992" r="4" fill="#f59e0b"/>
  <circle cx="400" cy="257.13499261580796" r="4" fill="#f59e0b"/>
  <circle cx="485" cy="253.6815195432966" r="4" fill="#f59e0b"/>
  <circle cx="570" cy="251.57169530276508" r="4" fill="#f59e0b"/>
  <circle cx="655" cy="262.9076716297445" r="4" fill="#f59e0b"/>
  <circle cx="740" cy="260.1993699647101" r="4" fill="#f59e0b"/>
  <polyline points="60,322.28078496597533 145,322.28078496597533 230,322.28078496597533 315,322.7196864728126 400,333.84168060099444 485,334.0441021188007 570,333.80069878781956 655,333.85287387289515 740,333.82049768942437" fill="none" stroke="#8b5cf6" stroke-width="2"/>
  <circle cx="60" cy="322.28078496597533" r="4" fill="#8b5cf6"/>
  <circle cx="145" cy="322.28078496597533" r="4" fill="#8b5cf6"/>
  <circle cx="230" cy="322.28078496597533" r="4" fill="#8b5cf6"/>
  <circle cx="315" cy="322.7196864728126" r="4" fill="#8b5cf6"/>
  <circle cx="400" cy="333.84168060099444" r="4" fill="#8b5cf6"/>
  <circle cx="485" cy="334.0441021188007" r="4" fill="#8b5cf6"/>
  <circle cx="570" cy="333.80069878781956" r="4" fill="#8b5cf6"/>
  <circle cx="655" cy="333.85287387289515" r="4" fill="#8b5cf6"/>
  <circle cx="740" cy="333.82049768942437" r="4" fill="#8b5cf6"/>
  <polyline points="315,132.1051463146322 400,283.5338941599757 485,284.42007675682976 570,282.7093988055417 655,288.1873580849875 740,282.72922883520937" fill="none" stroke="#ec4899" stroke-width="2"/>
  <circle cx="315" cy="132.1051463146322" r="4" fill="#ec4899"/>
  <circle cx="400" cy="283.5338941599757" r="4" fill="#ec4899"/>
  <circle cx="485" cy="284.42007675682976" r="4" fill="#ec4899"/>
  <circle cx="570" cy="282.7093988055417" r="4" fill="#ec4899"/>
  <circle cx="655" cy="288.1873580849875" r="4" fill="#ec4899"/>
  <circle cx="740" cy="282.72922883520937" r="4" fill="#ec4899"/>
  <rect x="650" y="42" width="12" height="12" fill="#3b82f6"/>
  <text x="668" y="53" font-size="12" fill="#374151">Immer</text>
  <rect x="650" y="62" width="12" height="12" fill="#ef4444"/>
  <text x="668" y="73" font-size="12" fill="#374151">Mutative</text>
  <rect x="650" y="82" width="12" height="12" fill="#10b981"/>
  <text x="668" y="93" font-size="12" fill="#374151">Immutable.js</text>
  <rect x="650" y="102" width="12" height="12" fill="#f59e0b"/>
  <text x="668" y="113" font-size="12" fill="#374151">Immutability Helper</text>
  <rect x="650" y="122" width="12" height="12" fill="#8b5cf6"/>
  <text x="668" y="133" font-size="12" fill="#374151">Seamless Immutable</text>
  <rect x="650" y="142" width="12" height="12" fill="#ec4899"/>
  <text x="668" y="153" font-size="12" fill="#374151">Craft</text>
</svg>