<svg width="800" height="400" xmlns="http://www.w3.org/2000/svg">
  <!-- Background -->
  <rect width="800" height="400" fill="white"/>

  <!-- Title -->
  <text x="400" y="30" text-anchor="middle" font-size="18" font-weight="bold" fill="#1f2937">
    Simple Object Update - Performance Trend
  </text>

  <!-- Grid lines -->
  <line x1="60" y1="60" x2="740" y2="60" stroke="#e5e7eb" stroke-width="1"/>
  <text x="50" y="65" text-anchor="end" font-size="12" fill="#6b7280">
    5.2M
  </text>
  <line x1="60" y1="116" x2="740" y2="116" stroke="#e5e7eb" stroke-width="1"/>
  <text x="50" y="121" text-anchor="end" font-size="12" fill="#6b7280">
    4.2M
  </text>
  <line x1="60" y1="172" x2="740" y2="172" stroke="#e5e7eb" stroke-width="1"/>
  <text x="50" y="177" text-anchor="end" font-size="12" fill="#6b7280">
    3.1M
  </text>
  <line x1="60" y1="228" x2="740" y2="228" stroke="#e5e7eb" stroke-width="1"/>
  <text x="50" y="233" text-anchor="end" font-size="12" fill="#6b7280">
    2.1M
  </text>
  <line x1="60" y1="284" x2="740" y2="284" stroke="#e5e7eb" stroke-width="1"/>
  <text x="50" y="289" text-anchor="end" font-size="12" fill="#6b7280">
    1.0M
  </text>
  <line x1="60" y1="340" x2="740" y2="340" stroke="#e5e7eb" stroke-width="1"/>
  <text x="50" y="345" text-anchor="end" font-size="12" fill="#6b7280">
    0
  </text>
  <text x="60" y="365" text-anchor="middle" font-size="10" fill="#6b7280" transform="rotate(-45, 60, 365)">
    11-03
  </text>
  <text x="145" y="365" text-anchor="middle" font-size="10" fill="#6b7280" transform="rotate(-45, 145, 365)">
    11-04
  </text>
  <text x="230" y="365" text-anchor="middle" font-size="10" fill="#6b7280" transform="rotate(-45, 230, 365)">
    11-05
  </text>
  <text x="315" y="365" text-anchor="middle" font-size="10" fill="#6b7280" transform="rotate(-45, 315, 365)">
    11-06
  </text>
  <text x="400" y="365" text-anchor="middle" font-size="10" fill="#6b7280" transform="rotate(-45, 400, 365)">
    11-07
  </text>
  <text x="485" y="365" text-anchor="middle" font-size="10" fill="#6b7280" transform="rotate(-45, 485, 365)">
    11-08
  </text>
  <text x="570" y="365" text-anchor="middle" font-size="10" fill="#6b7280" transform="rotate(-45, 570, 365)">
    11-09
  </text>
  <text x="655" y="365" text-anchor="middle" font-size="10" fill="#6b7280" transform="rotate(-45, 655, 365)">
    11-10
  </text>
  <text x="740" y="365" text-anchor="middle" font-size="10" fill="#6b7280" transform="rotate(-45, 740, 365)">
    11-11
  </text>
  <polyline points="60,187.48592581128378 145,187.48592581128378 230,187.48592581128378 315,192.15045694784243 400,302.84476860510733 485,302.48686514544335 570,303.05160548609064 655,306.6290849620172 740,301.9590895322228" fill="none" stroke="#3b82f6" stroke-width="2"/>
  <circle cx="60" cy="187.48592581128378" r="4" fill="#3b82f6"/>
  <circle cx="145" cy="187.48592581128378" r="4" fill="#3b82f6"/>
  <circle cx="230" cy="187.48592581128378" r="4" fill="#3b82f6"/>
  <circle cx="315" cy="192.15045694784243" r="4" fill="#3b82f6"/>
  <circle cx="400" cy="302.84476860510733" r="4" fill="#3b82f6"/>
  <circle cx="485" cy="302.48686514544335" r="4" fill="#3b82f6"/>
  <circle cx="570" cy="303.05160548609064" r="4" fill="#3b82f6"/>
  <circle cx="655" cy="306.6290849620172" r="4" fill="#3b82f6"/>
  <circle cx="740" cy="301.9590895322228" r="4" fill="#3b82f6"/>
  <polyline points="60,190.70033415628464 145,190.70033415628464 230,190.70033415628464 315,178.85813607553317 400,287.91921270818494 485,287.73192144777477 570,287.03921509881116 655,293.20246043208056 740,287.82905915915387" fill="none" stroke="#ef4444" stroke-width="2"/>
  <circle cx="60" cy="190.70033415628464" r="4" fill="#ef4444"/>
  <circle cx="145" cy="190.70033415628464" r="4" fill="#ef4444"/>
  <circle cx="230" cy="190.70033415628464" r="4" fill="#ef4444"/>
  <circle cx="315" cy="178.85813607553317" r="4" fill="#ef4444"/>
  <circle cx="400" cy="287.91921270818494" r="4" fill="#ef4444"/>
  <circle cx="485" cy="287.73192144777477" r="4" fill="#ef4444"/>
  <circle cx="570" cy="287.03921509881116" r="4" fill="#ef4444"/>
  <circle cx="655" cy="293.20246043208056" r="4" fill="#ef4444"/>
  <circle cx="740" cy="287.82905915915387" r="4" fill="#ef4444"/>
  <polyline points="60,85.45454545454547 145,85.45454545454547 230,85.45454545454547 315,142.20166890683524 400,285.02863548281266 485,282.0460578134305 570,282.59518650729945 655,287.22086970014396 740,283.3738669572366" fill="none" stroke="#10b981" stroke-width="2"/>
  <circle cx="60" cy="85.45454545454547" r="4" fill="#10b981"/>
  <circle cx="145" cy="85.45454545454547" r="4" fill="#10b981"/>
  <circle cx="230" cy="85.45454545454547" r="4" fill="#10b981"/>
  <circle cx="315" cy="142.20166890683524" r="4" fill="#10b981"/>
  <circle cx="400" cy="285.02863548281266" r="4" fill="#10b981"/>
  <circle cx="485" cy="282.0460578134305" r="4" fill="#10b981"/>
  <circle cx="570" cy="282.59518650729945" r="4" fill="#10b981"/>
  <circle cx="655" cy="287.22086970014396" r="4" fill="#10b981"/>
  <circle cx="740" cy="283.3738669572366" r="4" fill="#10b981"/>
  <polyline points="60,167.20871266098217 145,167.20871266098217 230,167.20871266098217 315,171.33725702298625 400,287.2809878839729 485,287.25917255754206 570,287.27565075718474 655,294.20583080809774 740,286.33153446591587" fill="none" stroke="#f59e0b" stroke-width="2"/>
  <circle cx="60" cy="167.20871266098217" r="4" fill="#f59e0b"/>
  <circle cx="145" cy="167.20871266098217" r="4" fill="#f59e0b"/>
  <circle cx="230" cy="167.20871266098217" r="4" fill="#f59e0b"/>
  <circle cx="315" cy="171.33725702298625" r="4" fill="#f59e0b"/>
  <circle cx="400" cy="287.2809878839729" r="4" fill="#f59e0b"/>
  <circle cx="485" cy="287.25917255754206" r="4" fill="#f59e0b"/>
  <circle cx="570" cy="287.27565075718474" r="4" fill="#f59e0b"/>
  <circle cx="655" cy="294.20583080809774" r="4" fill="#f59e0b"/>
  <circle cx="740" cy="286.33153446591587" r="4" fill="#f59e0b"/>
  <polyline points="60,321.96814002711426 145,321.96814002711426 230,321.96814002711426 315,320.04181677190144 400,333.1188228136961 485,333.0469032487064 570,333.0895560002461 655,333.2448368333933 740,333.1350575970468" fill="none" stroke="#8b5cf6" stroke-width="2"/>
  <circle cx="60" cy="321.96814002711426" r="4" fill="#8b5cf6"/>
  <circle cx="145" cy="321.96814002711426" r="4" fill="#8b5cf6"/>
  <circle cx="230" cy="321.96814002711426" r="4" fill="#8b5cf6"/>
  <circle cx="315" cy="320.04181677190144" r="4" fill="#8b5cf6"/>
  <circle cx="400" cy="333.1188228136961" r="4" fill="#8b5cf6"/>
  <circle cx="485" cy="333.0469032487064" r="4" fill="#8b5cf6"/>
  <circle cx="570" cy="333.0895560002461" r="4" fill="#8b5cf6"/>
  <circle cx="655" cy="333.2448368333933" r="4" fill="#8b5cf6"/>
  <circle cx="740" cy="333.1350575970468" r="4" fill="#8b5cf6"/>
  <polyline points="315,112.19740452745265 400,294.7854650982899 485,288.5739513307769 570,287.8977500543182 655,295.22715663955523 740,288.55305463298714" fill="none" stroke="#ec4899" stroke-width="2"/>
  <circle cx="315" cy="112.19740452745265" r="4" fill="#ec4899"/>
  <circle cx="400" cy="294.7854650982899" r="4" fill="#ec4899"/>
  <circle cx="485" cy="288.5739513307769" r="4" fill="#ec4899"/>
  <circle cx="570" cy="287.8977500543182" r="4" fill="#ec4899"/>
  <circle cx="655" cy="295.22715663955523" r="4" fill="#ec4899"/>
  <circle cx="740" cy="288.55305463298714" r="4" fill="#ec4899"/>
  <rect x="650" y="42" width="12" height="12" fill="#3b82f6"/>
  <text x="668" y="53" font-size="12" fill="#374151">Immer</text>
  <rect x="650" y="62" width="12" height="12" fill="#ef4444"/>
  <text x="668" y="73" font-size="12" fill="#374151">Mutative</text>
  <rect x="650" y="82" width="12" height="12" fill="#10b981"/>
  <text x="668" y="93" font-size="12" fill="#374151">Immutable.js</text>
  <rect x="650" y="102" width="12" height="12" fill="#f59e0b"/>
  <text x="668" y="113" font-size="12" fill="#374151">Immutability Helper</text>
  <rect x="650" y="122" width="12" height="12" fill="#8b5cf6"/>
  <text x="668" y="133" font-size="12" fill="#374151">Seamless Immutable</text>
  <rect x="650" y="142" width="12" height="12" fill="#ec4899"/>
  <text x="668" y="153" font-size="12" fill="#374151">Craft</text>
</svg>