<svg width="800" height="400" xmlns="http://www.w3.org/2000/svg">
  <!-- Background -->
  <rect width="800" height="400" fill="white"/>

  <!-- Title -->
  <text x="400" y="30" text-anchor="middle" font-size="18" font-weight="bold" fill="#1f2937">
    Simple Object Update - Performance Trend
  </text>

  <!-- Grid lines -->
  <line x1="60" y1="60" x2="740" y2="60" stroke="#e5e7eb" stroke-width="1"/>
  <text x="50" y="65" text-anchor="end" font-size="12" fill="#6b7280">
    5.2M
  </text>
  <line x1="60" y1="116" x2="740" y2="116" stroke="#e5e7eb" stroke-width="1"/>
  <text x="50" y="121" text-anchor="end" font-size="12" fill="#6b7280">
    4.2M
  </text>
  <line x1="60" y1="172" x2="740" y2="172" stroke="#e5e7eb" stroke-width="1"/>
  <text x="50" y="177" text-anchor="end" font-size="12" fill="#6b7280">
    3.1M
  </text>
  <line x1="60" y1="228" x2="740" y2="228" stroke="#e5e7eb" stroke-width="1"/>
  <text x="50" y="233" text-anchor="end" font-size="12" fill="#6b7280">
    2.1M
  </text>
  <line x1="60" y1="284" x2="740" y2="284" stroke="#e5e7eb" stroke-width="1"/>
  <text x="50" y="289" text-anchor="end" font-size="12" fill="#6b7280">
    1.0M
  </text>
  <line x1="60" y1="340" x2="740" y2="340" stroke="#e5e7eb" stroke-width="1"/>
  <text x="50" y="345" text-anchor="end" font-size="12" fill="#6b7280">
    0
  </text>
  <text x="60" y="365" text-anchor="middle" font-size="10" fill="#6b7280" transform="rotate(-45, 60, 365)">
    11-03
  </text>
  <text x="157.14285714285714" y="365" text-anchor="middle" font-size="10" fill="#6b7280" transform="rotate(-45, 157.14285714285714, 365)">
    11-04
  </text>
  <text x="254.28571428571428" y="365" text-anchor="middle" font-size="10" fill="#6b7280" transform="rotate(-45, 254.28571428571428, 365)">
    11-05
  </text>
  <text x="351.42857142857144" y="365" text-anchor="middle" font-size="10" fill="#6b7280" transform="rotate(-45, 351.42857142857144, 365)">
    11-06
  </text>
  <text x="448.57142857142856" y="365" text-anchor="middle" font-size="10" fill="#6b7280" transform="rotate(-45, 448.57142857142856, 365)">
    11-07
  </text>
  <text x="545.7142857142857" y="365" text-anchor="middle" font-size="10" fill="#6b7280" transform="rotate(-45, 545.7142857142857, 365)">
    11-08
  </text>
  <text x="642.8571428571429" y="365" text-anchor="middle" font-size="10" fill="#6b7280" transform="rotate(-45, 642.8571428571429, 365)">
    11-09
  </text>
  <text x="740" y="365" text-anchor="middle" font-size="10" fill="#6b7280" transform="rotate(-45, 740, 365)">
    11-10
  </text>
  <polyline points="60,187.48592581128378 157.14285714285714,187.48592581128378 254.28571428571428,187.48592581128378 351.42857142857144,192.15045694784243 448.57142857142856,302.84476860510733 545.7142857142857,302.48686514544335 642.8571428571429,303.05160548609064 740,302.579913775687" fill="none" stroke="#3b82f6" stroke-width="2"/>
  <circle cx="60" cy="187.48592581128378" r="4" fill="#3b82f6"/>
  <circle cx="157.14285714285714" cy="187.48592581128378" r="4" fill="#3b82f6"/>
  <circle cx="254.28571428571428" cy="187.48592581128378" r="4" fill="#3b82f6"/>
  <circle cx="351.42857142857144" cy="192.15045694784243" r="4" fill="#3b82f6"/>
  <circle cx="448.57142857142856" cy="302.84476860510733" r="4" fill="#3b82f6"/>
  <circle cx="545.7142857142857" cy="302.48686514544335" r="4" fill="#3b82f6"/>
  <circle cx="642.8571428571429" cy="303.05160548609064" r="4" fill="#3b82f6"/>
  <circle cx="740" cy="302.579913775687" r="4" fill="#3b82f6"/>
  <polyline points="60,190.70033415628464 157.14285714285714,190.70033415628464 254.28571428571428,190.70033415628464 351.42857142857144,178.85813607553317 448.57142857142856,287.91921270818494 545.7142857142857,287.73192144777477 642.8571428571429,287.03921509881116 740,289.65920123877936" fill="none" stroke="#ef4444" stroke-width="2"/>
  <circle cx="60" cy="190.70033415628464" r="4" fill="#ef4444"/>
  <circle cx="157.14285714285714" cy="190.70033415628464" r="4" fill="#ef4444"/>
  <circle cx="254.28571428571428" cy="190.70033415628464" r="4" fill="#ef4444"/>
  <circle cx="351.42857142857144" cy="178.85813607553317" r="4" fill="#ef4444"/>
  <circle cx="448.57142857142856" cy="287.91921270818494" r="4" fill="#ef4444"/>
  <circle cx="545.7142857142857" cy="287.73192144777477" r="4" fill="#ef4444"/>
  <circle cx="642.8571428571429" cy="287.03921509881116" r="4" fill="#ef4444"/>
  <circle cx="740" cy="289.65920123877936" r="4" fill="#ef4444"/>
  <polyline points="60,85.45454545454547 157.14285714285714,85.45454545454547 254.28571428571428,85.45454545454547 351.42857142857144,142.20166890683524 448.57142857142856,285.02863548281266 545.7142857142857,282.0460578134305 642.8571428571429,282.59518650729945 740,283.0286447249839" fill="none" stroke="#10b981" stroke-width="2"/>
  <circle cx="60" cy="85.45454545454547" r="4" fill="#10b981"/>
  <circle cx="157.14285714285714" cy="85.45454545454547" r="4" fill="#10b981"/>
  <circle cx="254.28571428571428" cy="85.45454545454547" r="4" fill="#10b981"/>
  <circle cx="351.42857142857144" cy="142.20166890683524" r="4" fill="#10b981"/>
  <circle cx="448.57142857142856" cy="285.02863548281266" r="4" fill="#10b981"/>
  <circle cx="545.7142857142857" cy="282.0460578134305" r="4" fill="#10b981"/>
  <circle cx="642.8571428571429" cy="282.59518650729945" r="4" fill="#10b981"/>
  <circle cx="740" cy="283.0286447249839" r="4" fill="#10b981"/>
  <polyline points="60,167.20871266098217 157.14285714285714,167.20871266098217 254.28571428571428,167.20871266098217 351.42857142857144,171.33725702298625 448.57142857142856,287.2809878839729 545.7142857142857,287.25917255754206 642.8571428571429,287.27565075718474 740,288.843609967997" fill="none" stroke="#f59e0b" stroke-width="2"/>
  <circle cx="60" cy="167.20871266098217" r="4" fill="#f59e0b"/>
  <circle cx="157.14285714285714" cy="167.20871266098217" r="4" fill="#f59e0b"/>
  <circle cx="254.28571428571428" cy="167.20871266098217" r="4" fill="#f59e0b"/>
  <circle cx="351.42857142857144" cy="171.33725702298625" r="4" fill="#f59e0b"/>
  <circle cx="448.57142857142856" cy="287.2809878839729" r="4" fill="#f59e0b"/>
  <circle cx="545.7142857142857" cy="287.25917255754206" r="4" fill="#f59e0b"/>
  <circle cx="642.8571428571429" cy="287.27565075718474" r="4" fill="#f59e0b"/>
  <circle cx="740" cy="288.843609967997" r="4" fill="#f59e0b"/>
  <polyline points="60,321.96814002711426 157.14285714285714,321.96814002711426 254.28571428571428,321.96814002711426 351.42857142857144,320.04181677190144 448.57142857142856,333.1188228136961 545.7142857142857,333.0469032487064 642.8571428571429,333.0895560002461 740,333.105435620976" fill="none" stroke="#8b5cf6" stroke-width="2"/>
  <circle cx="60" cy="321.96814002711426" r="4" fill="#8b5cf6"/>
  <circle cx="157.14285714285714" cy="321.96814002711426" r="4" fill="#8b5cf6"/>
  <circle cx="254.28571428571428" cy="321.96814002711426" r="4" fill="#8b5cf6"/>
  <circle cx="351.42857142857144" cy="320.04181677190144" r="4" fill="#8b5cf6"/>
  <circle cx="448.57142857142856" cy="333.1188228136961" r="4" fill="#8b5cf6"/>
  <circle cx="545.7142857142857" cy="333.0469032487064" r="4" fill="#8b5cf6"/>
  <circle cx="642.8571428571429" cy="333.0895560002461" r="4" fill="#8b5cf6"/>
  <circle cx="740" cy="333.105435620976" r="4" fill="#8b5cf6"/>
  <polyline points="351.42857142857144,112.19740452745265 448.57142857142856,294.7854650982899 545.7142857142857,288.5739513307769 642.8571428571429,287.8977500543182 740,289.70945804149954" fill="none" stroke="#ec4899" stroke-width="2"/>
  <circle cx="351.42857142857144" cy="112.19740452745265" r="4" fill="#ec4899"/>
  <circle cx="448.57142857142856" cy="294.7854650982899" r="4" fill="#ec4899"/>
  <circle cx="545.7142857142857" cy="288.5739513307769" r="4" fill="#ec4899"/>
  <circle cx="642.8571428571429" cy="287.8977500543182" r="4" fill="#ec4899"/>
  <circle cx="740" cy="289.70945804149954" r="4" fill="#ec4899"/>
  <rect x="650" y="42" width="12" height="12" fill="#3b82f6"/>
  <text x="668" y="53" font-size="12" fill="#374151">Immer</text>
  <rect x="650" y="62" width="12" height="12" fill="#ef4444"/>
  <text x="668" y="73" font-size="12" fill="#374151">Mutative</text>
  <rect x="650" y="82" width="12" height="12" fill="#10b981"/>
  <text x="668" y="93" font-size="12" fill="#374151">Immutable.js</text>
  <rect x="650" y="102" width="12" height="12" fill="#f59e0b"/>
  <text x="668" y="113" font-size="12" fill="#374151">Immutability Helper</text>
  <rect x="650" y="122" width="12" height="12" fill="#8b5cf6"/>
  <text x="668" y="133" font-size="12" fill="#374151">Seamless Immutable</text>
  <rect x="650" y="142" width="12" height="12" fill="#ec4899"/>
  <text x="668" y="153" font-size="12" fill="#374151">Craft</text>
</svg>