<svg width="800" height="400" xmlns="http://www.w3.org/2000/svg">
  <!-- Background -->
  <rect width="800" height="400" fill="white"/>

  <!-- Title -->
  <text x="400" y="30" text-anchor="middle" font-size="18" font-weight="bold" fill="#1f2937">
    Simple Object Update - Performance Trend
  </text>

  <!-- Grid lines -->
  <line x1="60" y1="60" x2="740" y2="60" stroke="#e5e7eb" stroke-width="1"/>
  <text x="50" y="65" text-anchor="end" font-size="12" fill="#6b7280">
    5.2M
  </text>
  <line x1="60" y1="116" x2="740" y2="116" stroke="#e5e7eb" stroke-width="1"/>
  <text x="50" y="121" text-anchor="end" font-size="12" fill="#6b7280">
    4.2M
  </text>
  <line x1="60" y1="172" x2="740" y2="172" stroke="#e5e7eb" stroke-width="1"/>
  <text x="50" y="177" text-anchor="end" font-size="12" fill="#6b7280">
    3.1M
  </text>
  <line x1="60" y1="228" x2="740" y2="228" stroke="#e5e7eb" stroke-width="1"/>
  <text x="50" y="233" text-anchor="end" font-size="12" fill="#6b7280">
    2.1M
  </text>
  <line x1="60" y1="284" x2="740" y2="284" stroke="#e5e7eb" stroke-width="1"/>
  <text x="50" y="289" text-anchor="end" font-size="12" fill="#6b7280">
    1.0M
  </text>
  <line x1="60" y1="340" x2="740" y2="340" stroke="#e5e7eb" stroke-width="1"/>
  <text x="50" y="345" text-anchor="end" font-size="12" fill="#6b7280">
    0
  </text>
  <text x="60" y="365" text-anchor="middle" font-size="10" fill="#6b7280" transform="rotate(-45, 60, 365)">
    11-03
  </text>
  <text x="173.33333333333331" y="365" text-anchor="middle" font-size="10" fill="#6b7280" transform="rotate(-45, 173.33333333333331, 365)">
    11-04
  </text>
  <text x="286.66666666666663" y="365" text-anchor="middle" font-size="10" fill="#6b7280" transform="rotate(-45, 286.66666666666663, 365)">
    11-05
  </text>
  <text x="400" y="365" text-anchor="middle" font-size="10" fill="#6b7280" transform="rotate(-45, 400, 365)">
    11-06
  </text>
  <text x="513.3333333333333" y="365" text-anchor="middle" font-size="10" fill="#6b7280" transform="rotate(-45, 513.3333333333333, 365)">
    11-07
  </text>
  <text x="626.6666666666666" y="365" text-anchor="middle" font-size="10" fill="#6b7280" transform="rotate(-45, 626.6666666666666, 365)">
    11-08
  </text>
  <text x="740" y="365" text-anchor="middle" font-size="10" fill="#6b7280" transform="rotate(-45, 740, 365)">
    11-09
  </text>
  <polyline points="60,187.48592581128378 173.33333333333331,187.48592581128378 286.66666666666663,187.48592581128378 400,192.15045694784243 513.3333333333333,302.84476860510733 626.6666666666666,302.48686514544335 740,302.8618917484579" fill="none" stroke="#3b82f6" stroke-width="2"/>
  <circle cx="60" cy="187.48592581128378" r="4" fill="#3b82f6"/>
  <circle cx="173.33333333333331" cy="187.48592581128378" r="4" fill="#3b82f6"/>
  <circle cx="286.66666666666663" cy="187.48592581128378" r="4" fill="#3b82f6"/>
  <circle cx="400" cy="192.15045694784243" r="4" fill="#3b82f6"/>
  <circle cx="513.3333333333333" cy="302.84476860510733" r="4" fill="#3b82f6"/>
  <circle cx="626.6666666666666" cy="302.48686514544335" r="4" fill="#3b82f6"/>
  <circle cx="740" cy="302.8618917484579" r="4" fill="#3b82f6"/>
  <polyline points="60,190.70033415628464 173.33333333333331,190.70033415628464 286.66666666666663,190.70033415628464 400,178.85813607553317 513.3333333333333,287.91921270818494 626.6666666666666,287.73192144777477 740,286.71525462646895" fill="none" stroke="#ef4444" stroke-width="2"/>
  <circle cx="60" cy="190.70033415628464" r="4" fill="#ef4444"/>
  <circle cx="173.33333333333331" cy="190.70033415628464" r="4" fill="#ef4444"/>
  <circle cx="286.66666666666663" cy="190.70033415628464" r="4" fill="#ef4444"/>
  <circle cx="400" cy="178.85813607553317" r="4" fill="#ef4444"/>
  <circle cx="513.3333333333333" cy="287.91921270818494" r="4" fill="#ef4444"/>
  <circle cx="626.6666666666666" cy="287.73192144777477" r="4" fill="#ef4444"/>
  <circle cx="740" cy="286.71525462646895" r="4" fill="#ef4444"/>
  <polyline points="60,85.45454545454547 173.33333333333331,85.45454545454547 286.66666666666663,85.45454545454547 400,142.20166890683524 513.3333333333333,285.02863548281266 626.6666666666666,282.0460578134305 740,281.5608228126699" fill="none" stroke="#10b981" stroke-width="2"/>
  <circle cx="60" cy="85.45454545454547" r="4" fill="#10b981"/>
  <circle cx="173.33333333333331" cy="85.45454545454547" r="4" fill="#10b981"/>
  <circle cx="286.66666666666663" cy="85.45454545454547" r="4" fill="#10b981"/>
  <circle cx="400" cy="142.20166890683524" r="4" fill="#10b981"/>
  <circle cx="513.3333333333333" cy="285.02863548281266" r="4" fill="#10b981"/>
  <circle cx="626.6666666666666" cy="282.0460578134305" r="4" fill="#10b981"/>
  <circle cx="740" cy="281.5608228126699" r="4" fill="#10b981"/>
  <polyline points="60,167.20871266098217 173.33333333333331,167.20871266098217 286.66666666666663,167.20871266098217 400,171.33725702298625 513.3333333333333,287.2809878839729 626.6666666666666,287.25917255754206 740,286.6174928520702" fill="none" stroke="#f59e0b" stroke-width="2"/>
  <circle cx="60" cy="167.20871266098217" r="4" fill="#f59e0b"/>
  <circle cx="173.33333333333331" cy="167.20871266098217" r="4" fill="#f59e0b"/>
  <circle cx="286.66666666666663" cy="167.20871266098217" r="4" fill="#f59e0b"/>
  <circle cx="400" cy="171.33725702298625" r="4" fill="#f59e0b"/>
  <circle cx="513.3333333333333" cy="287.2809878839729" r="4" fill="#f59e0b"/>
  <circle cx="626.6666666666666" cy="287.25917255754206" r="4" fill="#f59e0b"/>
  <circle cx="740" cy="286.6174928520702" r="4" fill="#f59e0b"/>
  <polyline points="60,321.96814002711426 173.33333333333331,321.96814002711426 286.66666666666663,321.96814002711426 400,320.04181677190144 513.3333333333333,333.1188228136961 626.6666666666666,333.0469032487064 740,333.1743141774725" fill="none" stroke="#8b5cf6" stroke-width="2"/>
  <circle cx="60" cy="321.96814002711426" r="4" fill="#8b5cf6"/>
  <circle cx="173.33333333333331" cy="321.96814002711426" r="4" fill="#8b5cf6"/>
  <circle cx="286.66666666666663" cy="321.96814002711426" r="4" fill="#8b5cf6"/>
  <circle cx="400" cy="320.04181677190144" r="4" fill="#8b5cf6"/>
  <circle cx="513.3333333333333" cy="333.1188228136961" r="4" fill="#8b5cf6"/>
  <circle cx="626.6666666666666" cy="333.0469032487064" r="4" fill="#8b5cf6"/>
  <circle cx="740" cy="333.1743141774725" r="4" fill="#8b5cf6"/>
  <polyline points="400,112.19740452745265 513.3333333333333,294.7854650982899 626.6666666666666,288.5739513307769 740,290.1122024301813" fill="none" stroke="#ec4899" stroke-width="2"/>
  <circle cx="400" cy="112.19740452745265" r="4" fill="#ec4899"/>
  <circle cx="513.3333333333333" cy="294.7854650982899" r="4" fill="#ec4899"/>
  <circle cx="626.6666666666666" cy="288.5739513307769" r="4" fill="#ec4899"/>
  <circle cx="740" cy="290.1122024301813" r="4" fill="#ec4899"/>
  <rect x="650" y="42" width="12" height="12" fill="#3b82f6"/>
  <text x="668" y="53" font-size="12" fill="#374151">Immer</text>
  <rect x="650" y="62" width="12" height="12" fill="#ef4444"/>
  <text x="668" y="73" font-size="12" fill="#374151">Mutative</text>
  <rect x="650" y="82" width="12" height="12" fill="#10b981"/>
  <text x="668" y="93" font-size="12" fill="#374151">Immutable.js</text>
  <rect x="650" y="102" width="12" height="12" fill="#f59e0b"/>
  <text x="668" y="113" font-size="12" fill="#374151">Immutability Helper</text>
  <rect x="650" y="122" width="12" height="12" fill="#8b5cf6"/>
  <text x="668" y="133" font-size="12" fill="#374151">Seamless Immutable</text>
  <rect x="650" y="142" width="12" height="12" fill="#ec4899"/>
  <text x="668" y="153" font-size="12" fill="#374151">Craft</text>
</svg>