<svg width="800" height="400" xmlns="http://www.w3.org/2000/svg">
  <!-- Background -->
  <rect width="800" height="400" fill="white"/>

  <!-- Title -->
  <text x="400" y="30" text-anchor="middle" font-size="18" font-weight="bold" fill="#1f2937">
    Conditional styling (1000 iterations) - Performance Trend
  </text>

  <!-- Grid lines -->
  <line x1="60" y1="60" x2="740" y2="60" stroke="#e5e7eb" stroke-width="1"/>
  <text x="50" y="65" text-anchor="end" font-size="12" fill="#6b7280">
    2.9M
  </text>
  <line x1="60" y1="116" x2="740" y2="116" stroke="#e5e7eb" stroke-width="1"/>
  <text x="50" y="121" text-anchor="end" font-size="12" fill="#6b7280">
    2.3M
  </text>
  <line x1="60" y1="172" x2="740" y2="172" stroke="#e5e7eb" stroke-width="1"/>
  <text x="50" y="177" text-anchor="end" font-size="12" fill="#6b7280">
    1.7M
  </text>
  <line x1="60" y1="228" x2="740" y2="228" stroke="#e5e7eb" stroke-width="1"/>
  <text x="50" y="233" text-anchor="end" font-size="12" fill="#6b7280">
    1.2M
  </text>
  <line x1="60" y1="284" x2="740" y2="284" stroke="#e5e7eb" stroke-width="1"/>
  <text x="50" y="289" text-anchor="end" font-size="12" fill="#6b7280">
    576K
  </text>
  <line x1="60" y1="340" x2="740" y2="340" stroke="#e5e7eb" stroke-width="1"/>
  <text x="50" y="345" text-anchor="end" font-size="12" fill="#6b7280">
    0
  </text>
  <text x="60" y="365" text-anchor="middle" font-size="10" fill="#6b7280" transform="rotate(-45, 60, 365)">
    11-07
  </text>
  <text x="400" y="365" text-anchor="middle" font-size="10" fill="#6b7280" transform="rotate(-45, 400, 365)">
    11-08
  </text>
  <text x="740" y="365" text-anchor="middle" font-size="10" fill="#6b7280" transform="rotate(-45, 740, 365)">
    11-09
  </text>
  <polyline points="60,94.43216998280806 400,89.94423666346975 740,89.67127852277258" fill="none" stroke="#3b82f6" stroke-width="2"/>
  <circle cx="60" cy="94.43216998280806" r="4" fill="#3b82f6"/>
  <circle cx="400" cy="89.94423666346975" r="4" fill="#3b82f6"/>
  <circle cx="740" cy="89.67127852277258" r="4" fill="#3b82f6"/>
  <polyline points="60,91.50960314544352 400,89.44175270772735 740,87.7297981809599" fill="none" stroke="#ef4444" stroke-width="2"/>
  <circle cx="60" cy="91.50960314544352" r="4" fill="#ef4444"/>
  <circle cx="400" cy="89.44175270772735" r="4" fill="#ef4444"/>
  <circle cx="740" cy="87.7297981809599" r="4" fill="#ef4444"/>
  <polyline points="60,85.45454545454547 400,92.4842668915629 740,87.04390362578607" fill="none" stroke="#10b981" stroke-width="2"/>
  <circle cx="60" cy="85.45454545454547" r="4" fill="#10b981"/>
  <circle cx="400" cy="92.4842668915629" r="4" fill="#10b981"/>
  <circle cx="740" cy="87.04390362578607" r="4" fill="#10b981"/>
  <polyline points="60,86.65365973390578 400,89.17519419113984 740,88.64734857785896" fill="none" stroke="#f59e0b" stroke-width="2"/>
  <circle cx="60" cy="86.65365973390578" r="4" fill="#f59e0b"/>
  <circle cx="400" cy="89.17519419113984" r="4" fill="#f59e0b"/>
  <circle cx="740" cy="88.64734857785896" r="4" fill="#f59e0b"/>
  <rect x="650" y="42" width="12" height="12" fill="#3b82f6"/>
  <text x="668" y="53" font-size="12" fill="#374151">Silk - Conditional styles</text>
  <rect x="650" y="62" width="12" height="12" fill="#ef4444"/>
  <text x="668" y="73" font-size="12" fill="#374151">Tailwind CSS - Conditional styles</text>
  <rect x="650" y="82" width="12" height="12" fill="#10b981"/>
  <text x="668" y="93" font-size="12" fill="#374151">Panda CSS - Conditional styles</text>
  <rect x="650" y="102" width="12" height="12" fill="#f59e0b"/>
  <text x="668" y="113" font-size="12" fill="#374151">UnoCSS - Conditional styles</text>
</svg>