<svg width="800" height="400" xmlns="http://www.w3.org/2000/svg">
  <!-- Background -->
  <rect width="800" height="400" fill="white"/>

  <!-- Title -->
  <text x="400" y="30" text-anchor="middle" font-size="18" font-weight="bold" fill="#1f2937">
    Conditional styling (1000 iterations) - Performance Trend
  </text>

  <!-- Grid lines -->
  <line x1="60" y1="60" x2="740" y2="60" stroke="#e5e7eb" stroke-width="1"/>
  <text x="50" y="65" text-anchor="end" font-size="12" fill="#6b7280">
    3.0M
  </text>
  <line x1="60" y1="116" x2="740" y2="116" stroke="#e5e7eb" stroke-width="1"/>
  <text x="50" y="121" text-anchor="end" font-size="12" fill="#6b7280">
    2.4M
  </text>
  <line x1="60" y1="172" x2="740" y2="172" stroke="#e5e7eb" stroke-width="1"/>
  <text x="50" y="177" text-anchor="end" font-size="12" fill="#6b7280">
    1.8M
  </text>
  <line x1="60" y1="228" x2="740" y2="228" stroke="#e5e7eb" stroke-width="1"/>
  <text x="50" y="233" text-anchor="end" font-size="12" fill="#6b7280">
    1.2M
  </text>
  <line x1="60" y1="284" x2="740" y2="284" stroke="#e5e7eb" stroke-width="1"/>
  <text x="50" y="289" text-anchor="end" font-size="12" fill="#6b7280">
    605K
  </text>
  <line x1="60" y1="340" x2="740" y2="340" stroke="#e5e7eb" stroke-width="1"/>
  <text x="50" y="345" text-anchor="end" font-size="12" fill="#6b7280">
    0
  </text>
  <text x="60" y="365" text-anchor="middle" font-size="10" fill="#6b7280" transform="rotate(-45, 60, 365)">
    11-07
  </text>
  <text x="286.66666666666663" y="365" text-anchor="middle" font-size="10" fill="#6b7280" transform="rotate(-45, 286.66666666666663, 365)">
    11-08
  </text>
  <text x="513.3333333333333" y="365" text-anchor="middle" font-size="10" fill="#6b7280" transform="rotate(-45, 513.3333333333333, 365)">
    11-09
  </text>
  <text x="740" y="365" text-anchor="middle" font-size="10" fill="#6b7280" transform="rotate(-45, 740, 365)">
    11-10
  </text>
  <polyline points="60,106.11827724209405 286.66666666666663,101.84391615711007 513.3333333333333,88.95526212139475 740,99.12498887896976" fill="none" stroke="#3b82f6" stroke-width="2"/>
  <circle cx="60" cy="106.11827724209405" r="4" fill="#3b82f6"/>
  <circle cx="286.66666666666663" cy="101.84391615711007" r="4" fill="#3b82f6"/>
  <circle cx="513.3333333333333" cy="88.95526212139475" r="4" fill="#3b82f6"/>
  <circle cx="740" cy="99.12498887896976" r="4" fill="#3b82f6"/>
  <polyline points="60,103.33478981725469 286.66666666666663,101.36534445975454 513.3333333333333,85.4545454545455 740,99.36571365710029" fill="none" stroke="#ef4444" stroke-width="2"/>
  <circle cx="60" cy="103.33478981725469" r="4" fill="#ef4444"/>
  <circle cx="286.66666666666663" cy="101.36534445975454" r="4" fill="#ef4444"/>
  <circle cx="513.3333333333333" cy="85.4545454545455" r="4" fill="#ef4444"/>
  <circle cx="740" cy="99.36571365710029" r="4" fill="#ef4444"/>
  <polyline points="60,97.56788083717126 286.66666666666663,104.2630711643518 513.3333333333333,89.56258088678868 740,98.41277750797792" fill="none" stroke="#10b981" stroke-width="2"/>
  <circle cx="60" cy="97.56788083717126" r="4" fill="#10b981"/>
  <circle cx="286.66666666666663" cy="104.2630711643518" r="4" fill="#10b981"/>
  <circle cx="513.3333333333333" cy="89.56258088678868" r="4" fill="#10b981"/>
  <circle cx="740" cy="98.41277750797792" r="4" fill="#10b981"/>
  <polyline points="60,98.70993154235023 286.66666666666663,101.1114709573869 513.3333333333333,92.38288623943569 740,98.9313300082149" fill="none" stroke="#f59e0b" stroke-width="2"/>
  <circle cx="60" cy="98.70993154235023" r="4" fill="#f59e0b"/>
  <circle cx="286.66666666666663" cy="101.1114709573869" r="4" fill="#f59e0b"/>
  <circle cx="513.3333333333333" cy="92.38288623943569" r="4" fill="#f59e0b"/>
  <circle cx="740" cy="98.9313300082149" r="4" fill="#f59e0b"/>
  <rect x="650" y="42" width="12" height="12" fill="#3b82f6"/>
  <text x="668" y="53" font-size="12" fill="#374151">Silk - Conditional styles</text>
  <rect x="650" y="62" width="12" height="12" fill="#ef4444"/>
  <text x="668" y="73" font-size="12" fill="#374151">Tailwind CSS - Conditional styles</text>
  <rect x="650" y="82" width="12" height="12" fill="#10b981"/>
  <text x="668" y="93" font-size="12" fill="#374151">Panda CSS - Conditional styles</text>
  <rect x="650" y="102" width="12" height="12" fill="#f59e0b"/>
  <text x="668" y="113" font-size="12" fill="#374151">UnoCSS - Conditional styles</text>
</svg>