<svg width="800" height="400" xmlns="http://www.w3.org/2000/svg">
  <!-- Background -->
  <rect width="800" height="400" fill="white"/>

  <!-- Title -->
  <text x="400" y="30" text-anchor="middle" font-size="18" font-weight="bold" fill="#1f2937">
    Responsive breakpoint matching - Performance Trend
  </text>

  <!-- Grid lines -->
  <line x1="60" y1="60" x2="740" y2="60" stroke="#e5e7eb" stroke-width="1"/>
  <text x="50" y="65" text-anchor="end" font-size="12" fill="#6b7280">
    349K
  </text>
  <line x1="60" y1="116" x2="740" y2="116" stroke="#e5e7eb" stroke-width="1"/>
  <text x="50" y="121" text-anchor="end" font-size="12" fill="#6b7280">
    280K
  </text>
  <line x1="60" y1="172" x2="740" y2="172" stroke="#e5e7eb" stroke-width="1"/>
  <text x="50" y="177" text-anchor="end" font-size="12" fill="#6b7280">
    210K
  </text>
  <line x1="60" y1="228" x2="740" y2="228" stroke="#e5e7eb" stroke-width="1"/>
  <text x="50" y="233" text-anchor="end" font-size="12" fill="#6b7280">
    140K
  </text>
  <line x1="60" y1="284" x2="740" y2="284" stroke="#e5e7eb" stroke-width="1"/>
  <text x="50" y="289" text-anchor="end" font-size="12" fill="#6b7280">
    70K
  </text>
  <line x1="60" y1="340" x2="740" y2="340" stroke="#e5e7eb" stroke-width="1"/>
  <text x="50" y="345" text-anchor="end" font-size="12" fill="#6b7280">
    0
  </text>
  <text x="60" y="365" text-anchor="middle" font-size="10" fill="#6b7280" transform="rotate(-45, 60, 365)">
    11-07
  </text>
  <text x="230" y="365" text-anchor="middle" font-size="10" fill="#6b7280" transform="rotate(-45, 230, 365)">
    11-08
  </text>
  <text x="400" y="365" text-anchor="middle" font-size="10" fill="#6b7280" transform="rotate(-45, 400, 365)">
    11-09
  </text>
  <text x="570" y="365" text-anchor="middle" font-size="10" fill="#6b7280" transform="rotate(-45, 570, 365)">
    11-10
  </text>
  <text x="740" y="365" text-anchor="middle" font-size="10" fill="#6b7280" transform="rotate(-45, 740, 365)">
    11-11
  </text>
  <polyline points="60,103.45853575916189 230,99.51867523498706 400,106.50516684642682 570,103.27789804857144 740,102.6354628900526" fill="none" stroke="#3b82f6" stroke-width="2"/>
  <circle cx="60" cy="103.45853575916189" r="4" fill="#3b82f6"/>
  <circle cx="230" cy="99.51867523498706" r="4" fill="#3b82f6"/>
  <circle cx="400" cy="106.50516684642682" r="4" fill="#3b82f6"/>
  <circle cx="570" cy="103.27789804857144" r="4" fill="#3b82f6"/>
  <circle cx="740" cy="102.6354628900526" r="4" fill="#3b82f6"/>
  <polyline points="60,97.30596967513404 230,93.32823663570983 400,86.01816926063691 570,96.55852017713534 740,93.3518612022489" fill="none" stroke="#ef4444" stroke-width="2"/>
  <circle cx="60" cy="97.30596967513404" r="4" fill="#ef4444"/>
  <circle cx="230" cy="93.32823663570983" r="4" fill="#ef4444"/>
  <circle cx="400" cy="86.01816926063691" r="4" fill="#ef4444"/>
  <circle cx="570" cy="96.55852017713534" r="4" fill="#ef4444"/>
  <circle cx="740" cy="93.3518612022489" r="4" fill="#ef4444"/>
  <polyline points="60,103.35874356575866 230,99.83786027616938 400,108.66518549263802 570,103.35582369641591 740,99.73847798676462" fill="none" stroke="#10b981" stroke-width="2"/>
  <circle cx="60" cy="103.35874356575866" r="4" fill="#10b981"/>
  <circle cx="230" cy="99.83786027616938" r="4" fill="#10b981"/>
  <circle cx="400" cy="108.66518549263802" r="4" fill="#10b981"/>
  <circle cx="570" cy="103.35582369641591" r="4" fill="#10b981"/>
  <circle cx="740" cy="99.73847798676462" r="4" fill="#10b981"/>
  <polyline points="60,96.45576221895436 230,93.91998008312467 400,85.45454545454547 570,96.52372291814504 740,93.50948746075025" fill="none" stroke="#f59e0b" stroke-width="2"/>
  <circle cx="60" cy="96.45576221895436" r="4" fill="#f59e0b"/>
  <circle cx="230" cy="93.91998008312467" r="4" fill="#f59e0b"/>
  <circle cx="400" cy="85.45454545454547" r="4" fill="#f59e0b"/>
  <circle cx="570" cy="96.52372291814504" r="4" fill="#f59e0b"/>
  <circle cx="740" cy="93.50948746075025" r="4" fill="#f59e0b"/>
  <rect x="650" y="42" width="12" height="12" fill="#3b82f6"/>
  <text x="668" y="53" font-size="12" fill="#374151">Silk - Match breakpoint 1000x</text>
  <rect x="650" y="62" width="12" height="12" fill="#ef4444"/>
  <text x="668" y="73" font-size="12" fill="#374151">Tailwind CSS - Match breakpoint 1000x</text>
  <rect x="650" y="82" width="12" height="12" fill="#10b981"/>
  <text x="668" y="93" font-size="12" fill="#374151">Panda CSS - Match breakpoint 1000x</text>
  <rect x="650" y="102" width="12" height="12" fill="#f59e0b"/>
  <text x="668" y="113" font-size="12" fill="#374151">UnoCSS - Match breakpoint 1000x</text>
</svg>