<svg width="800" height="400" xmlns="http://www.w3.org/2000/svg">
  <!-- Background -->
  <rect width="800" height="400" fill="white"/>

  <!-- Title -->
  <text x="400" y="30" text-anchor="middle" font-size="18" font-weight="bold" fill="#1f2937">
    Responsive breakpoint matching - Performance Trend
  </text>

  <!-- Grid lines -->
  <line x1="60" y1="60" x2="740" y2="60" stroke="#e5e7eb" stroke-width="1"/>
  <text x="50" y="65" text-anchor="end" font-size="12" fill="#6b7280">
    350K
  </text>
  <line x1="60" y1="116" x2="740" y2="116" stroke="#e5e7eb" stroke-width="1"/>
  <text x="50" y="121" text-anchor="end" font-size="12" fill="#6b7280">
    280K
  </text>
  <line x1="60" y1="172" x2="740" y2="172" stroke="#e5e7eb" stroke-width="1"/>
  <text x="50" y="177" text-anchor="end" font-size="12" fill="#6b7280">
    210K
  </text>
  <line x1="60" y1="228" x2="740" y2="228" stroke="#e5e7eb" stroke-width="1"/>
  <text x="50" y="233" text-anchor="end" font-size="12" fill="#6b7280">
    140K
  </text>
  <line x1="60" y1="284" x2="740" y2="284" stroke="#e5e7eb" stroke-width="1"/>
  <text x="50" y="289" text-anchor="end" font-size="12" fill="#6b7280">
    70K
  </text>
  <line x1="60" y1="340" x2="740" y2="340" stroke="#e5e7eb" stroke-width="1"/>
  <text x="50" y="345" text-anchor="end" font-size="12" fill="#6b7280">
    0
  </text>
  <text x="60" y="365" text-anchor="middle" font-size="10" fill="#6b7280" transform="rotate(-45, 60, 365)">
    11-07
  </text>
  <text x="400" y="365" text-anchor="middle" font-size="10" fill="#6b7280" transform="rotate(-45, 400, 365)">
    11-08
  </text>
  <text x="740" y="365" text-anchor="middle" font-size="10" fill="#6b7280" transform="rotate(-45, 740, 365)">
    11-09
  </text>
  <polyline points="60,103.82261317574967 400,99.88881676488347 740,107.17284588201298" fill="none" stroke="#3b82f6" stroke-width="2"/>
  <circle cx="60" cy="103.82261317574967" r="4" fill="#3b82f6"/>
  <circle cx="400" cy="99.88881676488347" r="4" fill="#3b82f6"/>
  <circle cx="740" cy="107.17284588201298" r="4" fill="#3b82f6"/>
  <polyline points="60,97.67951693402807 400,93.7079063001344 740,87.56260265173407" fill="none" stroke="#ef4444" stroke-width="2"/>
  <circle cx="60" cy="97.67951693402807" r="4" fill="#ef4444"/>
  <circle cx="400" cy="93.7079063001344" r="4" fill="#ef4444"/>
  <circle cx="740" cy="87.56260265173407" r="4" fill="#ef4444"/>
  <polyline points="60,103.72297457945078 400,100.20751052617297 740,108.2056136082301" fill="none" stroke="#10b981" stroke-width="2"/>
  <circle cx="60" cy="103.72297457945078" r="4" fill="#10b981"/>
  <circle cx="400" cy="100.20751052617297" r="4" fill="#10b981"/>
  <circle cx="740" cy="108.2056136082301" r="4" fill="#10b981"/>
  <polyline points="60,96.83061809126724 400,94.29873895405981 740,85.45454545454547" fill="none" stroke="#f59e0b" stroke-width="2"/>
  <circle cx="60" cy="96.83061809126724" r="4" fill="#f59e0b"/>
  <circle cx="400" cy="94.29873895405981" r="4" fill="#f59e0b"/>
  <circle cx="740" cy="85.45454545454547" r="4" fill="#f59e0b"/>
  <rect x="650" y="42" width="12" height="12" fill="#3b82f6"/>
  <text x="668" y="53" font-size="12" fill="#374151">Silk - Match breakpoint 1000x</text>
  <rect x="650" y="62" width="12" height="12" fill="#ef4444"/>
  <text x="668" y="73" font-size="12" fill="#374151">Tailwind CSS - Match breakpoint 1000x</text>
  <rect x="650" y="82" width="12" height="12" fill="#10b981"/>
  <text x="668" y="93" font-size="12" fill="#374151">Panda CSS - Match breakpoint 1000x</text>
  <rect x="650" y="102" width="12" height="12" fill="#f59e0b"/>
  <text x="668" y="113" font-size="12" fill="#374151">UnoCSS - Match breakpoint 1000x</text>
</svg>