<svg width="800" height="400" xmlns="http://www.w3.org/2000/svg">
  <!-- Background -->
  <rect width="800" height="400" fill="white"/>

  <!-- Title -->
  <text x="400" y="30" text-anchor="middle" font-size="18" font-weight="bold" fill="#1f2937">
    String concatenation (complex className) - Performance Trend
  </text>

  <!-- Grid lines -->
  <line x1="60" y1="60" x2="740" y2="60" stroke="#e5e7eb" stroke-width="1"/>
  <text x="50" y="65" text-anchor="end" font-size="12" fill="#6b7280">
    20.5M
  </text>
  <line x1="60" y1="116" x2="740" y2="116" stroke="#e5e7eb" stroke-width="1"/>
  <text x="50" y="121" text-anchor="end" font-size="12" fill="#6b7280">
    16.4M
  </text>
  <line x1="60" y1="172" x2="740" y2="172" stroke="#e5e7eb" stroke-width="1"/>
  <text x="50" y="177" text-anchor="end" font-size="12" fill="#6b7280">
    12.3M
  </text>
  <line x1="60" y1="228" x2="740" y2="228" stroke="#e5e7eb" stroke-width="1"/>
  <text x="50" y="233" text-anchor="end" font-size="12" fill="#6b7280">
    8.2M
  </text>
  <line x1="60" y1="284" x2="740" y2="284" stroke="#e5e7eb" stroke-width="1"/>
  <text x="50" y="289" text-anchor="end" font-size="12" fill="#6b7280">
    4.1M
  </text>
  <line x1="60" y1="340" x2="740" y2="340" stroke="#e5e7eb" stroke-width="1"/>
  <text x="50" y="345" text-anchor="end" font-size="12" fill="#6b7280">
    0
  </text>
  <text x="60" y="365" text-anchor="middle" font-size="10" fill="#6b7280" transform="rotate(-45, 60, 365)">
    11-07
  </text>
  <text x="400" y="365" text-anchor="middle" font-size="10" fill="#6b7280" transform="rotate(-45, 400, 365)">
    11-08
  </text>
  <text x="740" y="365" text-anchor="middle" font-size="10" fill="#6b7280" transform="rotate(-45, 740, 365)">
    11-09
  </text>
  <polyline points="60,94.15906704355424 400,93.69704510382482 740,95.85576916760158" fill="none" stroke="#3b82f6" stroke-width="2"/>
  <circle cx="60" cy="94.15906704355424" r="4" fill="#3b82f6"/>
  <circle cx="400" cy="93.69704510382482" r="4" fill="#3b82f6"/>
  <circle cx="740" cy="95.85576916760158" r="4" fill="#3b82f6"/>
  <polyline points="60,92.77902281332379 400,92.52342452169975 740,85.45454545454547" fill="none" stroke="#ef4444" stroke-width="2"/>
  <circle cx="60" cy="92.77902281332379" r="4" fill="#ef4444"/>
  <circle cx="400" cy="92.52342452169975" r="4" fill="#ef4444"/>
  <circle cx="740" cy="85.45454545454547" r="4" fill="#ef4444"/>
  <polyline points="60,93.32219849229668 400,93.26222029273077 740,89.59048215320499" fill="none" stroke="#10b981" stroke-width="2"/>
  <circle cx="60" cy="93.32219849229668" r="4" fill="#10b981"/>
  <circle cx="400" cy="93.26222029273077" r="4" fill="#10b981"/>
  <circle cx="740" cy="89.59048215320499" r="4" fill="#10b981"/>
  <polyline points="60,93.39727174764235 400,95.05985698727372 740,88.50940386998784" fill="none" stroke="#f59e0b" stroke-width="2"/>
  <circle cx="60" cy="93.39727174764235" r="4" fill="#f59e0b"/>
  <circle cx="400" cy="95.05985698727372" r="4" fill="#f59e0b"/>
  <circle cx="740" cy="88.50940386998784" r="4" fill="#f59e0b"/>
  <rect x="650" y="42" width="12" height="12" fill="#3b82f6"/>
  <text x="668" y="53" font-size="12" fill="#374151">Silk - Concat 10 classes</text>
  <rect x="650" y="62" width="12" height="12" fill="#ef4444"/>
  <text x="668" y="73" font-size="12" fill="#374151">Tailwind CSS - Concat 10 classes</text>
  <rect x="650" y="82" width="12" height="12" fill="#10b981"/>
  <text x="668" y="93" font-size="12" fill="#374151">Panda CSS - Concat 10 classes</text>
  <rect x="650" y="102" width="12" height="12" fill="#f59e0b"/>
  <text x="668" y="113" font-size="12" fill="#374151">UnoCSS - Concat 10 classes</text>
</svg>