<svg width="800" height="400" xmlns="http://www.w3.org/2000/svg">
  <!-- Background -->
  <rect width="800" height="400" fill="white"/>

  <!-- Title -->
  <text x="400" y="30" text-anchor="middle" font-size="18" font-weight="bold" fill="#1f2937">
    String concatenation (complex className) - Performance Trend
  </text>

  <!-- Grid lines -->
  <line x1="60" y1="60" x2="740" y2="60" stroke="#e5e7eb" stroke-width="1"/>
  <text x="50" y="65" text-anchor="end" font-size="12" fill="#6b7280">
    20.7M
  </text>
  <line x1="60" y1="116" x2="740" y2="116" stroke="#e5e7eb" stroke-width="1"/>
  <text x="50" y="121" text-anchor="end" font-size="12" fill="#6b7280">
    16.6M
  </text>
  <line x1="60" y1="172" x2="740" y2="172" stroke="#e5e7eb" stroke-width="1"/>
  <text x="50" y="177" text-anchor="end" font-size="12" fill="#6b7280">
    12.4M
  </text>
  <line x1="60" y1="228" x2="740" y2="228" stroke="#e5e7eb" stroke-width="1"/>
  <text x="50" y="233" text-anchor="end" font-size="12" fill="#6b7280">
    8.3M
  </text>
  <line x1="60" y1="284" x2="740" y2="284" stroke="#e5e7eb" stroke-width="1"/>
  <text x="50" y="289" text-anchor="end" font-size="12" fill="#6b7280">
    4.1M
  </text>
  <line x1="60" y1="340" x2="740" y2="340" stroke="#e5e7eb" stroke-width="1"/>
  <text x="50" y="345" text-anchor="end" font-size="12" fill="#6b7280">
    0
  </text>
  <text x="60" y="365" text-anchor="middle" font-size="10" fill="#6b7280" transform="rotate(-45, 60, 365)">
    11-07
  </text>
  <text x="230" y="365" text-anchor="middle" font-size="10" fill="#6b7280" transform="rotate(-45, 230, 365)">
    11-08
  </text>
  <text x="400" y="365" text-anchor="middle" font-size="10" fill="#6b7280" transform="rotate(-45, 400, 365)">
    11-09
  </text>
  <text x="570" y="365" text-anchor="middle" font-size="10" fill="#6b7280" transform="rotate(-45, 570, 365)">
    11-10
  </text>
  <text x="740" y="365" text-anchor="middle" font-size="10" fill="#6b7280" transform="rotate(-45, 740, 365)">
    11-11
  </text>
  <polyline points="60,97.27457052963845 230,96.81840372130057 400,87.24090171696409 570,97.076786758579 740,97.16244955868564" fill="none" stroke="#3b82f6" stroke-width="2"/>
  <circle cx="60" cy="97.27457052963845" r="4" fill="#3b82f6"/>
  <circle cx="230" cy="96.81840372130057" r="4" fill="#3b82f6"/>
  <circle cx="400" cy="87.24090171696409" r="4" fill="#3b82f6"/>
  <circle cx="570" cy="97.076786758579" r="4" fill="#3b82f6"/>
  <circle cx="740" cy="97.16244955868564" r="4" fill="#3b82f6"/>
  <polyline points="60,95.91201538293262 230,95.65965624826674 400,89.31448377860562 570,96.84077214258798 740,95.65865945965686" fill="none" stroke="#ef4444" stroke-width="2"/>
  <circle cx="60" cy="95.91201538293262" r="4" fill="#ef4444"/>
  <circle cx="230" cy="95.65965624826674" r="4" fill="#ef4444"/>
  <circle cx="400" cy="89.31448377860562" r="4" fill="#ef4444"/>
  <circle cx="570" cy="96.84077214258798" r="4" fill="#ef4444"/>
  <circle cx="740" cy="95.65865945965686" r="4" fill="#ef4444"/>
  <polyline points="60,96.44830748193755 230,96.38908937666349 400,90.25545032372435 570,97.22294123368891 740,97.456760203898" fill="none" stroke="#10b981" stroke-width="2"/>
  <circle cx="60" cy="96.44830748193755" r="4" fill="#10b981"/>
  <circle cx="230" cy="96.38908937666349" r="4" fill="#10b981"/>
  <circle cx="400" cy="90.25545032372435" r="4" fill="#10b981"/>
  <circle cx="570" cy="97.22294123368891" r="4" fill="#10b981"/>
  <circle cx="740" cy="97.456760203898" r="4" fill="#10b981"/>
  <polyline points="60,96.52242934572314 230,98.16394490404596 400,85.4545454545455 570,96.22290741104854 740,97.08005513789058" fill="none" stroke="#f59e0b" stroke-width="2"/>
  <circle cx="60" cy="96.52242934572314" r="4" fill="#f59e0b"/>
  <circle cx="230" cy="98.16394490404596" r="4" fill="#f59e0b"/>
  <circle cx="400" cy="85.4545454545455" r="4" fill="#f59e0b"/>
  <circle cx="570" cy="96.22290741104854" r="4" fill="#f59e0b"/>
  <circle cx="740" cy="97.08005513789058" r="4" fill="#f59e0b"/>
  <rect x="650" y="42" width="12" height="12" fill="#3b82f6"/>
  <text x="668" y="53" font-size="12" fill="#374151">Silk - Concat 10 classes</text>
  <rect x="650" y="62" width="12" height="12" fill="#ef4444"/>
  <text x="668" y="73" font-size="12" fill="#374151">Tailwind CSS - Concat 10 classes</text>
  <rect x="650" y="82" width="12" height="12" fill="#10b981"/>
  <text x="668" y="93" font-size="12" fill="#374151">Panda CSS - Concat 10 classes</text>
  <rect x="650" y="102" width="12" height="12" fill="#f59e0b"/>
  <text x="668" y="113" font-size="12" fill="#374151">UnoCSS - Concat 10 classes</text>
</svg>