<svg width="800" height="400" xmlns="http://www.w3.org/2000/svg">
  <!-- Background -->
  <rect width="800" height="400" fill="white"/>

  <!-- Title -->
  <text x="400" y="30" text-anchor="middle" font-size="18" font-weight="bold" fill="#1f2937">
    String concatenation (complex className) - Performance Trend
  </text>

  <!-- Grid lines -->
  <line x1="60" y1="60" x2="740" y2="60" stroke="#e5e7eb" stroke-width="1"/>
  <text x="50" y="65" text-anchor="end" font-size="12" fill="#6b7280">
    20.7M
  </text>
  <line x1="60" y1="116" x2="740" y2="116" stroke="#e5e7eb" stroke-width="1"/>
  <text x="50" y="121" text-anchor="end" font-size="12" fill="#6b7280">
    16.6M
  </text>
  <line x1="60" y1="172" x2="740" y2="172" stroke="#e5e7eb" stroke-width="1"/>
  <text x="50" y="177" text-anchor="end" font-size="12" fill="#6b7280">
    12.4M
  </text>
  <line x1="60" y1="228" x2="740" y2="228" stroke="#e5e7eb" stroke-width="1"/>
  <text x="50" y="233" text-anchor="end" font-size="12" fill="#6b7280">
    8.3M
  </text>
  <line x1="60" y1="284" x2="740" y2="284" stroke="#e5e7eb" stroke-width="1"/>
  <text x="50" y="289" text-anchor="end" font-size="12" fill="#6b7280">
    4.1M
  </text>
  <line x1="60" y1="340" x2="740" y2="340" stroke="#e5e7eb" stroke-width="1"/>
  <text x="50" y="345" text-anchor="end" font-size="12" fill="#6b7280">
    0
  </text>
  <text x="60" y="365" text-anchor="middle" font-size="10" fill="#6b7280" transform="rotate(-45, 60, 365)">
    11-07
  </text>
  <text x="286.66666666666663" y="365" text-anchor="middle" font-size="10" fill="#6b7280" transform="rotate(-45, 286.66666666666663, 365)">
    11-08
  </text>
  <text x="513.3333333333333" y="365" text-anchor="middle" font-size="10" fill="#6b7280" transform="rotate(-45, 513.3333333333333, 365)">
    11-09
  </text>
  <text x="740" y="365" text-anchor="middle" font-size="10" fill="#6b7280" transform="rotate(-45, 740, 365)">
    11-10
  </text>
  <polyline points="60,97.27457052963845 286.66666666666663,96.81840372130057 513.3333333333333,87.24090171696409 740,97.239501722782" fill="none" stroke="#3b82f6" stroke-width="2"/>
  <circle cx="60" cy="97.27457052963845" r="4" fill="#3b82f6"/>
  <circle cx="286.66666666666663" cy="96.81840372130057" r="4" fill="#3b82f6"/>
  <circle cx="513.3333333333333" cy="87.24090171696409" r="4" fill="#3b82f6"/>
  <circle cx="740" cy="97.239501722782" r="4" fill="#3b82f6"/>
  <polyline points="60,95.91201538293262 286.66666666666663,95.65965624826674 513.3333333333333,89.31448377860562 740,97.76114052079939" fill="none" stroke="#ef4444" stroke-width="2"/>
  <circle cx="60" cy="95.91201538293262" r="4" fill="#ef4444"/>
  <circle cx="286.66666666666663" cy="95.65965624826674" r="4" fill="#ef4444"/>
  <circle cx="513.3333333333333" cy="89.31448377860562" r="4" fill="#ef4444"/>
  <circle cx="740" cy="97.76114052079939" r="4" fill="#ef4444"/>
  <polyline points="60,96.44830748193755 286.66666666666663,96.38908937666349 513.3333333333333,90.25545032372435 740,98.47359447348552" fill="none" stroke="#10b981" stroke-width="2"/>
  <circle cx="60" cy="96.44830748193755" r="4" fill="#10b981"/>
  <circle cx="286.66666666666663" cy="96.38908937666349" r="4" fill="#10b981"/>
  <circle cx="513.3333333333333" cy="90.25545032372435" r="4" fill="#10b981"/>
  <circle cx="740" cy="98.47359447348552" r="4" fill="#10b981"/>
  <polyline points="60,96.52242934572314 286.66666666666663,98.16394490404596 513.3333333333333,85.4545454545455 740,96.00910843680623" fill="none" stroke="#f59e0b" stroke-width="2"/>
  <circle cx="60" cy="96.52242934572314" r="4" fill="#f59e0b"/>
  <circle cx="286.66666666666663" cy="98.16394490404596" r="4" fill="#f59e0b"/>
  <circle cx="513.3333333333333" cy="85.4545454545455" r="4" fill="#f59e0b"/>
  <circle cx="740" cy="96.00910843680623" r="4" fill="#f59e0b"/>
  <rect x="650" y="42" width="12" height="12" fill="#3b82f6"/>
  <text x="668" y="53" font-size="12" fill="#374151">Silk - Concat 10 classes</text>
  <rect x="650" y="62" width="12" height="12" fill="#ef4444"/>
  <text x="668" y="73" font-size="12" fill="#374151">Tailwind CSS - Concat 10 classes</text>
  <rect x="650" y="82" width="12" height="12" fill="#10b981"/>
  <text x="668" y="93" font-size="12" fill="#374151">Panda CSS - Concat 10 classes</text>
  <rect x="650" y="102" width="12" height="12" fill="#f59e0b"/>
  <text x="668" y="113" font-size="12" fill="#374151">UnoCSS - Concat 10 classes</text>
</svg>