<svg width="800" height="400" xmlns="http://www.w3.org/2000/svg">
  <!-- Background -->
  <rect width="800" height="400" fill="white"/>

  <!-- Title -->
  <text x="400" y="30" text-anchor="middle" font-size="18" font-weight="bold" fill="#1f2937">
    Theme toggle (dark/light mode) - Performance Trend
  </text>

  <!-- Grid lines -->
  <line x1="60" y1="60" x2="740" y2="60" stroke="#e5e7eb" stroke-width="1"/>
  <text x="50" y="65" text-anchor="end" font-size="12" fill="#6b7280">
    587K
  </text>
  <line x1="60" y1="116" x2="740" y2="116" stroke="#e5e7eb" stroke-width="1"/>
  <text x="50" y="121" text-anchor="end" font-size="12" fill="#6b7280">
    469K
  </text>
  <line x1="60" y1="172" x2="740" y2="172" stroke="#e5e7eb" stroke-width="1"/>
  <text x="50" y="177" text-anchor="end" font-size="12" fill="#6b7280">
    352K
  </text>
  <line x1="60" y1="228" x2="740" y2="228" stroke="#e5e7eb" stroke-width="1"/>
  <text x="50" y="233" text-anchor="end" font-size="12" fill="#6b7280">
    235K
  </text>
  <line x1="60" y1="284" x2="740" y2="284" stroke="#e5e7eb" stroke-width="1"/>
  <text x="50" y="289" text-anchor="end" font-size="12" fill="#6b7280">
    117K
  </text>
  <line x1="60" y1="340" x2="740" y2="340" stroke="#e5e7eb" stroke-width="1"/>
  <text x="50" y="345" text-anchor="end" font-size="12" fill="#6b7280">
    0
  </text>
  <text x="60" y="365" text-anchor="middle" font-size="10" fill="#6b7280" transform="rotate(-45, 60, 365)">
    11-07
  </text>
  <text x="286.66666666666663" y="365" text-anchor="middle" font-size="10" fill="#6b7280" transform="rotate(-45, 286.66666666666663, 365)">
    11-08
  </text>
  <text x="513.3333333333333" y="365" text-anchor="middle" font-size="10" fill="#6b7280" transform="rotate(-45, 513.3333333333333, 365)">
    11-09
  </text>
  <text x="740" y="365" text-anchor="middle" font-size="10" fill="#6b7280" transform="rotate(-45, 740, 365)">
    11-10
  </text>
  <polyline points="60,93.76340239917559 286.66666666666663,99.88955364552527 513.3333333333333,108.00633219698759 740,93.75138842480118" fill="none" stroke="#3b82f6" stroke-width="2"/>
  <circle cx="60" cy="93.76340239917559" r="4" fill="#3b82f6"/>
  <circle cx="286.66666666666663" cy="99.88955364552527" r="4" fill="#3b82f6"/>
  <circle cx="513.3333333333333" cy="108.00633219698759" r="4" fill="#3b82f6"/>
  <circle cx="740" cy="93.75138842480118" r="4" fill="#3b82f6"/>
  <polyline points="60,93.57730892928012 286.66666666666663,94.95927294919537 513.3333333333333,116.13910594822161 740,92.81958309064126" fill="none" stroke="#ef4444" stroke-width="2"/>
  <circle cx="60" cy="93.57730892928012" r="4" fill="#ef4444"/>
  <circle cx="286.66666666666663" cy="94.95927294919537" r="4" fill="#ef4444"/>
  <circle cx="513.3333333333333" cy="116.13910594822161" r="4" fill="#ef4444"/>
  <circle cx="740" cy="92.81958309064126" r="4" fill="#ef4444"/>
  <polyline points="60,94.26497813518645 286.66666666666663,93.44976510589379 513.3333333333333,85.4545454545455 740,92.77258901021659" fill="none" stroke="#10b981" stroke-width="2"/>
  <circle cx="60" cy="94.26497813518645" r="4" fill="#10b981"/>
  <circle cx="286.66666666666663" cy="93.44976510589379" r="4" fill="#10b981"/>
  <circle cx="513.3333333333333" cy="85.4545454545455" r="4" fill="#10b981"/>
  <circle cx="740" cy="92.77258901021659" r="4" fill="#10b981"/>
  <polyline points="60,93.62627823138052 286.66666666666663,93.43175789825665 513.3333333333333,87.21317746039446 740,96.60310713630062" fill="none" stroke="#f59e0b" stroke-width="2"/>
  <circle cx="60" cy="93.62627823138052" r="4" fill="#f59e0b"/>
  <circle cx="286.66666666666663" cy="93.43175789825665" r="4" fill="#f59e0b"/>
  <circle cx="513.3333333333333" cy="87.21317746039446" r="4" fill="#f59e0b"/>
  <circle cx="740" cy="96.60310713630062" r="4" fill="#f59e0b"/>
  <rect x="650" y="42" width="12" height="12" fill="#3b82f6"/>
  <text x="668" y="53" font-size="12" fill="#374151">Silk - Toggle theme 1000x</text>
  <rect x="650" y="62" width="12" height="12" fill="#ef4444"/>
  <text x="668" y="73" font-size="12" fill="#374151">Tailwind CSS - Toggle theme 1000x</text>
  <rect x="650" y="82" width="12" height="12" fill="#10b981"/>
  <text x="668" y="93" font-size="12" fill="#374151">Panda CSS - Toggle theme 1000x</text>
  <rect x="650" y="102" width="12" height="12" fill="#f59e0b"/>
  <text x="668" y="113" font-size="12" fill="#374151">UnoCSS - Toggle theme 1000x</text>
</svg>